<?xml version="1.0" encoding="UTF-8" standalone="no"?>
<!DOCTYPE svg PUBLIC "-//W3C//DTD SVG 1.1//EN"
 "http://www.w3.org/Graphics/SVG/1.1/DTD/svg11.dtd">
<!-- Generated by graphviz version 2.38.0 (20140413.2041)
 -->
<!-- Title: LexicalAnalyzer.h Pages: 1 -->
<svg width="318pt" height="84pt"
 viewBox="0.00 0.00 318.00 84.00" xmlns="http://www.w3.org/2000/svg" xmlns:xlink="http://www.w3.org/1999/xlink">
<g id="graph0" class="graph" transform="scale(1 1) rotate(0) translate(4 80)">
<title>LexicalAnalyzer.h</title>
<polygon fill="white" stroke="none" points="-4,4 -4,-80 314,-80 314,4 -4,4"/>
<!-- Node1 -->
<g id="node1" class="node"><title>Node1</title>
<polygon fill="#bfbfbf" stroke="black" points="95.5,-56.5 95.5,-75.5 189.5,-75.5 189.5,-56.5 95.5,-56.5"/>
<text text-anchor="middle" x="142.5" y="-63.5" font-family="Helvetica,sans-Serif" font-size="10.00">LexicalAnalyzer.h</text>
</g>
<!-- Node2 -->
<g id="node2" class="node"><title>Node2</title>
<polygon fill="white" stroke="#bfbfbf" points="0,-0.5 0,-19.5 41,-19.5 41,-0.5 0,-0.5"/>
<text text-anchor="middle" x="20.5" y="-7.5" font-family="Helvetica,sans-Serif" font-size="10.00">string</text>
</g>
<!-- Node1&#45;&gt;Node2 -->
<g id="edge1" class="edge"><title>Node1&#45;&gt;Node2</title>
<path fill="none" stroke="midnightblue" d="M123.169,-56.4435C103.18,-47.5961 71.7569,-33.6875 48.9361,-23.5865"/>
<polygon fill="midnightblue" stroke="midnightblue" points="50.3018,-20.3635 39.7408,-19.5164 47.4685,-26.7645 50.3018,-20.3635"/>
</g>
<!-- Node3 -->
<g id="node3" class="node"><title>Node3</title>
<polygon fill="white" stroke="#bfbfbf" points="59.5,-0.5 59.5,-19.5 101.5,-19.5 101.5,-0.5 59.5,-0.5"/>
<text text-anchor="middle" x="80.5" y="-7.5" font-family="Helvetica,sans-Serif" font-size="10.00">vector</text>
</g>
<!-- Node1&#45;&gt;Node3 -->
<g id="edge2" class="edge"><title>Node1&#45;&gt;Node3</title>
<path fill="none" stroke="midnightblue" d="M132.539,-56.324C123.373,-48.3414 109.563,-36.3128 98.4718,-26.6529"/>
<polygon fill="midnightblue" stroke="midnightblue" points="100.482,-23.7624 90.6426,-19.8339 95.8847,-29.041 100.482,-23.7624"/>
</g>
<!-- Node4 -->
<g id="node4" class="node"><title>Node4</title>
<polygon fill="white" stroke="#bfbfbf" points="119.5,-0.5 119.5,-19.5 165.5,-19.5 165.5,-0.5 119.5,-0.5"/>
<text text-anchor="middle" x="142.5" y="-7.5" font-family="Helvetica,sans-Serif" font-size="10.00">cctype</text>
</g>
<!-- Node1&#45;&gt;Node4 -->
<g id="edge3" class="edge"><title>Node1&#45;&gt;Node4</title>
<path fill="none" stroke="midnightblue" d="M142.5,-56.083C142.5,-49.0059 142.5,-38.8611 142.5,-29.9865"/>
<polygon fill="midnightblue" stroke="midnightblue" points="146,-29.751 142.5,-19.7511 139,-29.7511 146,-29.751"/>
</g>
<!-- Node5 -->
<g id="node5" class="node"><title>Node5</title>
<polygon fill="white" stroke="#bfbfbf" points="184,-0.5 184,-19.5 243,-19.5 243,-0.5 184,-0.5"/>
<text text-anchor="middle" x="213.5" y="-7.5" font-family="Helvetica,sans-Serif" font-size="10.00">stdexcept</text>
</g>
<!-- Node1&#45;&gt;Node5 -->
<g id="edge4" class="edge"><title>Node1&#45;&gt;Node5</title>
<path fill="none" stroke="midnightblue" d="M153.907,-56.324C164.609,-48.1849 180.841,-35.8395 193.663,-26.0874"/>
<polygon fill="midnightblue" stroke="midnightblue" points="196.044,-28.6734 201.885,-19.8339 191.807,-23.1018 196.044,-28.6734"/>
</g>
<!-- Node6 -->
<g id="node6" class="node"><title>Node6</title>
<g id="a_node6"><a xlink:href="token_8h.html" target="_top" xlink:title="Файл с определением структуры лексемы ">
<polygon fill="white" stroke="black" points="261,-0.5 261,-19.5 310,-19.5 310,-0.5 261,-0.5"/>
<text text-anchor="middle" x="285.5" y="-7.5" font-family="Helvetica,sans-Serif" font-size="10.00">token.h</text>
</a>
</g>
</g>
<!-- Node1&#45;&gt;Node6 -->
<g id="edge5" class="edge"><title>Node1&#45;&gt;Node6</title>
<path fill="none" stroke="midnightblue" d="M165.159,-56.4435C188.902,-47.4776 226.409,-33.314 253.238,-23.1827"/>
<polygon fill="midnightblue" stroke="midnightblue" points="254.829,-26.3235 262.947,-19.5164 252.356,-19.7749 254.829,-26.3235"/>
</g>
</g>
</svg>
