<?xml version="1.0" encoding="UTF-8" standalone="no"?>
<!DOCTYPE svg PUBLIC "-//W3C//DTD SVG 1.1//EN"
 "http://www.w3.org/Graphics/SVG/1.1/DTD/svg11.dtd">
<!-- Generated by graphviz version 2.38.0 (20140413.2041)
 -->
<!-- Title: LexicalAnalyzer.h Pages: 1 -->
<svg width="233pt" height="140pt"
 viewBox="0.00 0.00 233.00 140.00" xmlns="http://www.w3.org/2000/svg" xmlns:xlink="http://www.w3.org/1999/xlink">
<g id="graph0" class="graph" transform="scale(1 1) rotate(0) translate(4 136)">
<title>LexicalAnalyzer.h</title>
<polygon fill="white" stroke="none" points="-4,4 -4,-136 229,-136 229,4 -4,4"/>
<!-- Node1 -->
<g id="node1" class="node"><title>Node1</title>
<polygon fill="#bfbfbf" stroke="black" points="54,-112.5 54,-131.5 148,-131.5 148,-112.5 54,-112.5"/>
<text text-anchor="middle" x="101" y="-119.5" font-family="Helvetica,sans-Serif" font-size="10.00">LexicalAnalyzer.h</text>
</g>
<!-- Node2 -->
<g id="node2" class="node"><title>Node2</title>
<g id="a_node2"><a xlink:href="_lexical_analyzer_8cpp.html" target="_top" xlink:title="LexicalAnalyzer.cpp">
<polygon fill="white" stroke="black" points="0,-56.5 0,-75.5 104,-75.5 104,-56.5 0,-56.5"/>
<text text-anchor="middle" x="52" y="-63.5" font-family="Helvetica,sans-Serif" font-size="10.00">LexicalAnalyzer.cpp</text>
</a>
</g>
</g>
<!-- Node1&#45;&gt;Node2 -->
<g id="edge1" class="edge"><title>Node1&#45;&gt;Node2</title>
<path fill="none" stroke="midnightblue" d="M85.9655,-104.431C77.3778,-94.9673 66.9565,-83.4827 59.9408,-75.7511"/>
<polygon fill="midnightblue" stroke="midnightblue" points="83.5967,-107.029 92.9086,-112.083 88.7807,-102.325 83.5967,-107.029"/>
</g>
<!-- Node3 -->
<g id="node3" class="node"><title>Node3</title>
<g id="a_node3"><a xlink:href="_regexp_8h.html" target="_top" xlink:title="Заголовочный файл класса регулярного выражения ">
<polygon fill="white" stroke="black" points="122,-56.5 122,-75.5 180,-75.5 180,-56.5 122,-56.5"/>
<text text-anchor="middle" x="151" y="-63.5" font-family="Helvetica,sans-Serif" font-size="10.00">Regexp.h</text>
</a>
</g>
</g>
<!-- Node1&#45;&gt;Node3 -->
<g id="edge2" class="edge"><title>Node1&#45;&gt;Node3</title>
<path fill="none" stroke="midnightblue" d="M116.076,-104.718C124.889,-95.1997 135.666,-83.5608 142.897,-75.7511"/>
<polygon fill="midnightblue" stroke="midnightblue" points="113.482,-102.367 109.256,-112.083 118.619,-107.123 113.482,-102.367"/>
</g>
<!-- Node4 -->
<g id="node4" class="node"><title>Node4</title>
<g id="a_node4"><a xlink:href="main_8cpp.html" target="_top" xlink:title="main.cpp">
<polygon fill="white" stroke="black" points="83,-0.5 83,-19.5 139,-19.5 139,-0.5 83,-0.5"/>
<text text-anchor="middle" x="111" y="-7.5" font-family="Helvetica,sans-Serif" font-size="10.00">main.cpp</text>
</a>
</g>
</g>
<!-- Node3&#45;&gt;Node4 -->
<g id="edge3" class="edge"><title>Node3&#45;&gt;Node4</title>
<path fill="none" stroke="midnightblue" d="M138.3,-47.8554C131.374,-38.5048 123.094,-27.3265 117.482,-19.7511"/>
<polygon fill="midnightblue" stroke="midnightblue" points="135.63,-50.1307 144.395,-56.083 141.255,-45.9641 135.63,-50.1307"/>
</g>
<!-- Node5 -->
<g id="node5" class="node"><title>Node5</title>
<g id="a_node5"><a xlink:href="_regexp_8cpp.html" target="_top" xlink:title="Regexp.cpp">
<polygon fill="white" stroke="black" points="157,-0.5 157,-19.5 225,-19.5 225,-0.5 157,-0.5"/>
<text text-anchor="middle" x="191" y="-7.5" font-family="Helvetica,sans-Serif" font-size="10.00">Regexp.cpp</text>
</a>
</g>
</g>
<!-- Node3&#45;&gt;Node5 -->
<g id="edge4" class="edge"><title>Node3&#45;&gt;Node5</title>
<path fill="none" stroke="midnightblue" d="M163.7,-47.8554C170.626,-38.5048 178.906,-27.3265 184.518,-19.7511"/>
<polygon fill="midnightblue" stroke="midnightblue" points="160.745,-45.9641 157.605,-56.083 166.37,-50.1307 160.745,-45.9641"/>
</g>
</g>
</svg>
