<?xml version="1.0" encoding="UTF-8" standalone="no"?>
<!DOCTYPE svg PUBLIC "-//W3C//DTD SVG 1.1//EN"
 "http://www.w3.org/Graphics/SVG/1.1/DTD/svg11.dtd">
<!-- Generated by graphviz version 2.38.0 (20140413.2041)
 -->
<!-- Title: Regexp.cpp Pages: 1 -->
<svg width="769pt" height="196pt"
 viewBox="0.00 0.00 768.50 196.00" xmlns="http://www.w3.org/2000/svg" xmlns:xlink="http://www.w3.org/1999/xlink">
<g id="graph0" class="graph" transform="scale(1 1) rotate(0) translate(4 192)">
<title>Regexp.cpp</title>
<polygon fill="white" stroke="none" points="-4,4 -4,-192 764.5,-192 764.5,4 -4,4"/>
<!-- Node1 -->
<g id="node1" class="node"><title>Node1</title>
<polygon fill="#bfbfbf" stroke="black" points="223,-168.5 223,-187.5 291,-187.5 291,-168.5 223,-168.5"/>
<text text-anchor="middle" x="257" y="-175.5" font-family="Helvetica,sans-Serif" font-size="10.00">Regexp.cpp</text>
</g>
<!-- Node2 -->
<g id="node2" class="node"><title>Node2</title>
<polygon fill="white" stroke="#bfbfbf" points="193,-112.5 193,-131.5 247,-131.5 247,-112.5 193,-112.5"/>
<text text-anchor="middle" x="220" y="-119.5" font-family="Helvetica,sans-Serif" font-size="10.00">iostream</text>
</g>
<!-- Node1&#45;&gt;Node2 -->
<g id="edge1" class="edge"><title>Node1&#45;&gt;Node2</title>
<path fill="none" stroke="midnightblue" d="M250.89,-168.083C245.718,-160.534 238.154,-149.495 231.806,-140.23"/>
<polygon fill="midnightblue" stroke="midnightblue" points="234.536,-138.022 225.996,-131.751 228.761,-141.979 234.536,-138.022"/>
</g>
<!-- Node3 -->
<g id="node3" class="node"><title>Node3</title>
<g id="a_node3"><a xlink:href="_regexp_8h.html" target="_top" xlink:title="Заголовочный файл класса регулярного выражения ">
<polygon fill="white" stroke="black" points="265,-112.5 265,-131.5 323,-131.5 323,-112.5 265,-112.5"/>
<text text-anchor="middle" x="294" y="-119.5" font-family="Helvetica,sans-Serif" font-size="10.00">Regexp.h</text>
</a>
</g>
</g>
<!-- Node1&#45;&gt;Node3 -->
<g id="edge2" class="edge"><title>Node1&#45;&gt;Node3</title>
<path fill="none" stroke="midnightblue" d="M263.11,-168.083C268.282,-160.534 275.846,-149.495 282.194,-140.23"/>
<polygon fill="midnightblue" stroke="midnightblue" points="285.239,-141.979 288.004,-131.751 279.464,-138.022 285.239,-141.979"/>
</g>
<!-- Node4 -->
<g id="node4" class="node"><title>Node4</title>
<g id="a_node4"><a xlink:href="_lexical_analyzer_8h.html" target="_top" xlink:title="Заголовочный файл лексического анализатора ">
<polygon fill="white" stroke="black" points="135,-56.5 135,-75.5 229,-75.5 229,-56.5 135,-56.5"/>
<text text-anchor="middle" x="182" y="-63.5" font-family="Helvetica,sans-Serif" font-size="10.00">LexicalAnalyzer.h</text>
</a>
</g>
</g>
<!-- Node3&#45;&gt;Node4 -->
<g id="edge3" class="edge"><title>Node3&#45;&gt;Node4</title>
<path fill="none" stroke="midnightblue" d="M276.005,-112.324C257.962,-103.625 229.953,-90.1202 209.197,-80.113"/>
<polygon fill="midnightblue" stroke="midnightblue" points="210.478,-76.8449 199.95,-75.6545 207.438,-83.1502 210.478,-76.8449"/>
</g>
<!-- Node10 -->
<g id="node10" class="node"><title>Node10</title>
<g id="a_node10"><a xlink:href="_syntax_analyzer_8h.html" target="_top" xlink:title="Заголовочный файл синтаксического анализатора ">
<polygon fill="white" stroke="black" points="247,-56.5 247,-75.5 341,-75.5 341,-56.5 247,-56.5"/>
<text text-anchor="middle" x="294" y="-63.5" font-family="Helvetica,sans-Serif" font-size="10.00">SyntaxAnalyzer.h</text>
</a>
</g>
</g>
<!-- Node3&#45;&gt;Node10 -->
<g id="edge9" class="edge"><title>Node3&#45;&gt;Node10</title>
<path fill="none" stroke="midnightblue" d="M294,-112.083C294,-105.006 294,-94.8611 294,-85.9865"/>
<polygon fill="midnightblue" stroke="midnightblue" points="297.5,-85.751 294,-75.7511 290.5,-85.7511 297.5,-85.751"/>
</g>
<!-- Node13 -->
<g id="node13" class="node"><title>Node13</title>
<g id="a_node13"><a xlink:href="_regexp_checker_8h.html" target="_top" xlink:title="Заголовочный файл класса, проверяющего строки ">
<polygon fill="white" stroke="black" points="368,-56.5 368,-75.5 462,-75.5 462,-56.5 368,-56.5"/>
<text text-anchor="middle" x="415" y="-63.5" font-family="Helvetica,sans-Serif" font-size="10.00">RegexpChecker.h</text>
</a>
</g>
</g>
<!-- Node3&#45;&gt;Node13 -->
<g id="edge16" class="edge"><title>Node3&#45;&gt;Node13</title>
<path fill="none" stroke="midnightblue" d="M313.173,-112.444C332.909,-103.636 363.885,-89.8116 386.493,-79.722"/>
<polygon fill="midnightblue" stroke="midnightblue" points="388.211,-82.788 395.917,-75.5164 385.359,-76.3957 388.211,-82.788"/>
</g>
<!-- Node5 -->
<g id="node5" class="node"><title>Node5</title>
<polygon fill="white" stroke="#bfbfbf" points="265.5,-0.5 265.5,-19.5 306.5,-19.5 306.5,-0.5 265.5,-0.5"/>
<text text-anchor="middle" x="286" y="-7.5" font-family="Helvetica,sans-Serif" font-size="10.00">string</text>
</g>
<!-- Node4&#45;&gt;Node5 -->
<g id="edge4" class="edge"><title>Node4&#45;&gt;Node5</title>
<path fill="none" stroke="midnightblue" d="M198.709,-56.324C215.312,-47.7034 241.002,-34.3643 260.22,-24.3855"/>
<polygon fill="midnightblue" stroke="midnightblue" points="262.07,-27.3689 269.332,-19.6545 258.844,-21.1565 262.07,-27.3689"/>
</g>
<!-- Node6 -->
<g id="node6" class="node"><title>Node6</title>
<polygon fill="white" stroke="#bfbfbf" points="325,-0.5 325,-19.5 367,-19.5 367,-0.5 325,-0.5"/>
<text text-anchor="middle" x="346" y="-7.5" font-family="Helvetica,sans-Serif" font-size="10.00">vector</text>
</g>
<!-- Node4&#45;&gt;Node6 -->
<g id="edge5" class="edge"><title>Node4&#45;&gt;Node6</title>
<path fill="none" stroke="midnightblue" d="M207.986,-56.4435C237.037,-46.8782 284.054,-31.3969 315,-21.2075"/>
<polygon fill="midnightblue" stroke="midnightblue" points="316.425,-24.423 324.829,-17.971 314.236,-17.7741 316.425,-24.423"/>
</g>
<!-- Node7 -->
<g id="node7" class="node"><title>Node7</title>
<polygon fill="white" stroke="#bfbfbf" points="0,-0.5 0,-19.5 46,-19.5 46,-0.5 0,-0.5"/>
<text text-anchor="middle" x="23" y="-7.5" font-family="Helvetica,sans-Serif" font-size="10.00">cctype</text>
</g>
<!-- Node4&#45;&gt;Node7 -->
<g id="edge6" class="edge"><title>Node4&#45;&gt;Node7</title>
<path fill="none" stroke="midnightblue" d="M156.806,-56.4435C129.428,-47.1454 85.5906,-32.2572 55.6053,-22.0735"/>
<polygon fill="midnightblue" stroke="midnightblue" points="56.6055,-18.7169 46.0111,-18.8151 54.3544,-25.3451 56.6055,-18.7169"/>
</g>
<!-- Node8 -->
<g id="node8" class="node"><title>Node8</title>
<polygon fill="white" stroke="#bfbfbf" points="385.5,-0.5 385.5,-19.5 444.5,-19.5 444.5,-0.5 385.5,-0.5"/>
<text text-anchor="middle" x="415" y="-7.5" font-family="Helvetica,sans-Serif" font-size="10.00">stdexcept</text>
</g>
<!-- Node4&#45;&gt;Node8 -->
<g id="edge7" class="edge"><title>Node4&#45;&gt;Node8</title>
<path fill="none" stroke="midnightblue" d="M218.92,-56.4435C261.567,-46.5595 331.47,-30.3589 375.273,-20.2072"/>
<polygon fill="midnightblue" stroke="midnightblue" points="376.325,-23.5561 385.277,-17.8886 374.745,-16.7368 376.325,-23.5561"/>
</g>
<!-- Node9 -->
<g id="node9" class="node"><title>Node9</title>
<g id="a_node9"><a xlink:href="token_8h.html" target="_top" xlink:title="Файл с определением структуры лексемы ">
<polygon fill="white" stroke="black" points="64.5,-0.5 64.5,-19.5 113.5,-19.5 113.5,-0.5 64.5,-0.5"/>
<text text-anchor="middle" x="89" y="-7.5" font-family="Helvetica,sans-Serif" font-size="10.00">token.h</text>
</a>
</g>
</g>
<!-- Node4&#45;&gt;Node9 -->
<g id="edge8" class="edge"><title>Node4&#45;&gt;Node9</title>
<path fill="none" stroke="midnightblue" d="M167.058,-56.324C152.415,-47.8215 129.866,-34.7288 112.762,-24.7975"/>
<polygon fill="midnightblue" stroke="midnightblue" points="114.31,-21.6491 103.905,-19.6545 110.795,-27.7027 114.31,-21.6491"/>
</g>
<!-- Node10&#45;&gt;Node5 -->
<g id="edge10" class="edge"><title>Node10&#45;&gt;Node5</title>
<path fill="none" stroke="midnightblue" d="M292.679,-56.083C291.619,-48.9272 290.094,-38.6353 288.769,-29.6911"/>
<polygon fill="midnightblue" stroke="midnightblue" points="292.224,-29.1302 287.296,-19.7511 285.3,-30.1561 292.224,-29.1302"/>
</g>
<!-- Node10&#45;&gt;Node6 -->
<g id="edge11" class="edge"><title>Node10&#45;&gt;Node6</title>
<path fill="none" stroke="midnightblue" d="M302.587,-56.083C310.159,-48.2195 321.378,-36.5688 330.514,-27.0813"/>
<polygon fill="midnightblue" stroke="midnightblue" points="333.158,-29.3821 337.573,-19.7511 328.115,-24.5266 333.158,-29.3821"/>
</g>
<!-- Node10&#45;&gt;Node8 -->
<g id="edge14" class="edge"><title>Node10&#45;&gt;Node8</title>
<path fill="none" stroke="midnightblue" d="M313.173,-56.4435C332.909,-47.6356 363.885,-33.8116 386.493,-23.722"/>
<polygon fill="midnightblue" stroke="midnightblue" points="388.211,-26.788 395.917,-19.5164 385.359,-20.3957 388.211,-26.788"/>
</g>
<!-- Node10&#45;&gt;Node9 -->
<g id="edge15" class="edge"><title>Node10&#45;&gt;Node9</title>
<path fill="none" stroke="midnightblue" d="M261.533,-56.4709C229.082,-47.9428 177.496,-34.3774 123.3,-20.0762"/>
<polygon fill="midnightblue" stroke="midnightblue" points="124.075,-16.6611 113.513,-17.4932 122.289,-23.4293 124.075,-16.6611"/>
</g>
<!-- Node11 -->
<g id="node11" class="node"><title>Node11</title>
<polygon fill="white" stroke="#bfbfbf" points="206.5,-0.5 206.5,-19.5 247.5,-19.5 247.5,-0.5 206.5,-0.5"/>
<text text-anchor="middle" x="227" y="-7.5" font-family="Helvetica,sans-Serif" font-size="10.00">stack</text>
</g>
<!-- Node10&#45;&gt;Node11 -->
<g id="edge12" class="edge"><title>Node10&#45;&gt;Node11</title>
<path fill="none" stroke="midnightblue" d="M283.235,-56.324C273.234,-48.2631 258.113,-36.0765 246.07,-26.3695"/>
<polygon fill="midnightblue" stroke="midnightblue" points="247.943,-23.3841 237.961,-19.8339 243.55,-28.8343 247.943,-23.3841"/>
</g>
<!-- Node12 -->
<g id="node12" class="node"><title>Node12</title>
<polygon fill="white" stroke="#bfbfbf" points="132,-0.5 132,-19.5 188,-19.5 188,-0.5 132,-0.5"/>
<text text-anchor="middle" x="160" y="-7.5" font-family="Helvetica,sans-Serif" font-size="10.00">algorithm</text>
</g>
<!-- Node10&#45;&gt;Node12 -->
<g id="edge13" class="edge"><title>Node10&#45;&gt;Node12</title>
<path fill="none" stroke="midnightblue" d="M272.767,-56.4435C250.616,-47.5171 215.681,-33.4387 190.564,-23.3168"/>
<polygon fill="midnightblue" stroke="midnightblue" points="191.717,-20.0079 181.133,-19.5164 189.1,-26.5006 191.717,-20.0079"/>
</g>
<!-- Node13&#45;&gt;Node5 -->
<g id="edge18" class="edge"><title>Node13&#45;&gt;Node5</title>
<path fill="none" stroke="midnightblue" d="M394.56,-56.4435C373.33,-47.5566 339.901,-33.5632 315.745,-23.4514"/>
<polygon fill="midnightblue" stroke="midnightblue" points="316.921,-20.1493 306.345,-19.5164 314.218,-26.6064 316.921,-20.1493"/>
</g>
<!-- Node13&#45;&gt;Node6 -->
<g id="edge17" class="edge"><title>Node13&#45;&gt;Node6</title>
<path fill="none" stroke="midnightblue" d="M403.914,-56.324C393.514,-48.1849 377.739,-35.8395 365.278,-26.0874"/>
<polygon fill="midnightblue" stroke="midnightblue" points="367.32,-23.2407 357.288,-19.8339 363.006,-28.7533 367.32,-23.2407"/>
</g>
<!-- Node13&#45;&gt;Node8 -->
<g id="edge19" class="edge"><title>Node13&#45;&gt;Node8</title>
<path fill="none" stroke="midnightblue" d="M415,-56.083C415,-49.0059 415,-38.8611 415,-29.9865"/>
<polygon fill="midnightblue" stroke="midnightblue" points="418.5,-29.751 415,-19.7511 411.5,-29.7511 418.5,-29.751"/>
</g>
<!-- Node13&#45;&gt;Node9 -->
<g id="edge23" class="edge"><title>Node13&#45;&gt;Node9</title>
<path fill="none" stroke="midnightblue" d="M367.942,-58.3674C301.685,-48.9294 183.229,-31.6674 123.844,-19.9414"/>
<polygon fill="midnightblue" stroke="midnightblue" points="124.308,-16.464 113.81,-17.892 122.907,-23.3224 124.308,-16.464"/>
</g>
<!-- Node14 -->
<g id="node14" class="node"><title>Node14</title>
<polygon fill="white" stroke="#bfbfbf" points="709.5,-0.5 709.5,-19.5 760.5,-19.5 760.5,-0.5 709.5,-0.5"/>
<text text-anchor="middle" x="735" y="-7.5" font-family="Helvetica,sans-Serif" font-size="10.00">unistd.h</text>
</g>
<!-- Node13&#45;&gt;Node14 -->
<g id="edge20" class="edge"><title>Node13&#45;&gt;Node14</title>
<path fill="none" stroke="midnightblue" d="M462.149,-58.9546C516.823,-51.6342 609.83,-38.2269 699.395,-19.9452"/>
<polygon fill="midnightblue" stroke="midnightblue" points="700.366,-23.3187 709.451,-17.8687 698.95,-16.4634 700.366,-23.3187"/>
</g>
<!-- Node15 -->
<g id="node15" class="node"><title>Node15</title>
<polygon fill="white" stroke="#bfbfbf" points="463,-0.5 463,-19.5 531,-19.5 531,-0.5 463,-0.5"/>
<text text-anchor="middle" x="497" y="-7.5" font-family="Helvetica,sans-Serif" font-size="10.00">sys/types.h</text>
</g>
<!-- Node13&#45;&gt;Node15 -->
<g id="edge21" class="edge"><title>Node13&#45;&gt;Node15</title>
<path fill="none" stroke="midnightblue" d="M428.175,-56.324C440.847,-47.979 460.233,-35.2122 475.206,-25.3524"/>
<polygon fill="midnightblue" stroke="midnightblue" points="477.431,-28.0776 483.858,-19.6545 473.581,-22.2313 477.431,-28.0776"/>
</g>
<!-- Node16 -->
<g id="node16" class="node"><title>Node16</title>
<polygon fill="white" stroke="#bfbfbf" points="549.5,-0.5 549.5,-19.5 610.5,-19.5 610.5,-0.5 549.5,-0.5"/>
<text text-anchor="middle" x="580" y="-7.5" font-family="Helvetica,sans-Serif" font-size="10.00">sys/wait.h</text>
</g>
<!-- Node13&#45;&gt;Node16 -->
<g id="edge22" class="edge"><title>Node13&#45;&gt;Node16</title>
<path fill="none" stroke="midnightblue" d="M441.145,-56.4435C469.023,-47.3196 513.348,-32.8133 544.4,-22.6509"/>
<polygon fill="midnightblue" stroke="midnightblue" points="545.562,-25.9533 553.978,-19.5164 543.385,-19.3005 545.562,-25.9533"/>
</g>
<!-- Node17 -->
<g id="node17" class="node"><title>Node17</title>
<g id="a_node17"><a xlink:href="rc__result_8h.html" target="_top" xlink:title="Файл с определением результата работы класса проверки строк ">
<polygon fill="white" stroke="black" points="629,-0.5 629,-19.5 691,-19.5 691,-0.5 629,-0.5"/>
<text text-anchor="middle" x="660" y="-7.5" font-family="Helvetica,sans-Serif" font-size="10.00">rc_result.h</text>
</a>
</g>
</g>
<!-- Node13&#45;&gt;Node17 -->
<g id="edge24" class="edge"><title>Node13&#45;&gt;Node17</title>
<path fill="none" stroke="midnightblue" d="M454.313,-56.4342C493.494,-47.8829 555.66,-34.2772 618.848,-20.2476"/>
<polygon fill="midnightblue" stroke="midnightblue" points="619.992,-23.5788 628.995,-17.993 618.474,-16.7455 619.992,-23.5788"/>
</g>
</g>
</svg>
