<?xml version="1.0" encoding="UTF-8" standalone="no"?>
<!DOCTYPE svg PUBLIC "-//W3C//DTD SVG 1.1//EN"
 "http://www.w3.org/Graphics/SVG/1.1/DTD/svg11.dtd">
<!-- Generated by graphviz version 2.38.0 (20140413.2041)
 -->
<!-- Title: RegexpChecker.h Pages: 1 -->
<svg width="569pt" height="84pt"
 viewBox="0.00 0.00 569.00 84.00" xmlns="http://www.w3.org/2000/svg" xmlns:xlink="http://www.w3.org/1999/xlink">
<g id="graph0" class="graph" transform="scale(1 1) rotate(0) translate(4 80)">
<title>RegexpChecker.h</title>
<polygon fill="white" stroke="none" points="-4,4 -4,-80 565,-80 565,4 -4,4"/>
<!-- Node1 -->
<g id="node1" class="node"><title>Node1</title>
<polygon fill="#bfbfbf" stroke="black" points="214,-56.5 214,-75.5 308,-75.5 308,-56.5 214,-56.5"/>
<text text-anchor="middle" x="261" y="-63.5" font-family="Helvetica,sans-Serif" font-size="10.00">RegexpChecker.h</text>
</g>
<!-- Node2 -->
<g id="node2" class="node"><title>Node2</title>
<polygon fill="white" stroke="#bfbfbf" points="0,-0.5 0,-19.5 42,-19.5 42,-0.5 0,-0.5"/>
<text text-anchor="middle" x="21" y="-7.5" font-family="Helvetica,sans-Serif" font-size="10.00">vector</text>
</g>
<!-- Node1&#45;&gt;Node2 -->
<g id="edge1" class="edge"><title>Node1&#45;&gt;Node2</title>
<path fill="none" stroke="midnightblue" d="M216.104,-56.4658C175.585,-48.5208 114.153,-35.8752 52.192,-20.1533"/>
<polygon fill="midnightblue" stroke="midnightblue" points="52.8021,-16.6966 42.2462,-17.6039 51.0639,-23.4774 52.8021,-16.6966"/>
</g>
<!-- Node3 -->
<g id="node3" class="node"><title>Node3</title>
<polygon fill="white" stroke="#bfbfbf" points="60.5,-0.5 60.5,-19.5 101.5,-19.5 101.5,-0.5 60.5,-0.5"/>
<text text-anchor="middle" x="81" y="-7.5" font-family="Helvetica,sans-Serif" font-size="10.00">string</text>
</g>
<!-- Node1&#45;&gt;Node3 -->
<g id="edge2" class="edge"><title>Node1&#45;&gt;Node3</title>
<path fill="none" stroke="midnightblue" d="M232.023,-56.4701C203.564,-48.0694 158.662,-34.7538 111.386,-20.4003"/>
<polygon fill="midnightblue" stroke="midnightblue" points="112.172,-16.9811 101.586,-17.4203 110.135,-23.6783 112.172,-16.9811"/>
</g>
<!-- Node4 -->
<g id="node4" class="node"><title>Node4</title>
<polygon fill="white" stroke="#bfbfbf" points="119.5,-0.5 119.5,-19.5 178.5,-19.5 178.5,-0.5 119.5,-0.5"/>
<text text-anchor="middle" x="149" y="-7.5" font-family="Helvetica,sans-Serif" font-size="10.00">stdexcept</text>
</g>
<!-- Node1&#45;&gt;Node4 -->
<g id="edge3" class="edge"><title>Node1&#45;&gt;Node4</title>
<path fill="none" stroke="midnightblue" d="M243.005,-56.324C224.962,-47.6247 196.953,-34.1202 176.197,-24.113"/>
<polygon fill="midnightblue" stroke="midnightblue" points="177.478,-20.8449 166.95,-19.6545 174.438,-27.1502 177.478,-20.8449"/>
</g>
<!-- Node5 -->
<g id="node5" class="node"><title>Node5</title>
<polygon fill="white" stroke="#bfbfbf" points="196.5,-0.5 196.5,-19.5 247.5,-19.5 247.5,-0.5 196.5,-0.5"/>
<text text-anchor="middle" x="222" y="-7.5" font-family="Helvetica,sans-Serif" font-size="10.00">unistd.h</text>
</g>
<!-- Node1&#45;&gt;Node5 -->
<g id="edge4" class="edge"><title>Node1&#45;&gt;Node5</title>
<path fill="none" stroke="midnightblue" d="M254.56,-56.083C249.051,-48.4554 240.969,-37.2645 234.235,-27.9408"/>
<polygon fill="midnightblue" stroke="midnightblue" points="237.013,-25.8087 228.32,-19.7511 231.338,-29.9071 237.013,-25.8087"/>
</g>
<!-- Node6 -->
<g id="node6" class="node"><title>Node6</title>
<polygon fill="white" stroke="#bfbfbf" points="266,-0.5 266,-19.5 334,-19.5 334,-0.5 266,-0.5"/>
<text text-anchor="middle" x="300" y="-7.5" font-family="Helvetica,sans-Serif" font-size="10.00">sys/types.h</text>
</g>
<!-- Node1&#45;&gt;Node6 -->
<g id="edge5" class="edge"><title>Node1&#45;&gt;Node6</title>
<path fill="none" stroke="midnightblue" d="M267.44,-56.083C272.949,-48.4554 281.031,-37.2645 287.765,-27.9408"/>
<polygon fill="midnightblue" stroke="midnightblue" points="290.662,-29.9071 293.68,-19.7511 284.987,-25.8087 290.662,-29.9071"/>
</g>
<!-- Node7 -->
<g id="node7" class="node"><title>Node7</title>
<polygon fill="white" stroke="#bfbfbf" points="352.5,-0.5 352.5,-19.5 413.5,-19.5 413.5,-0.5 352.5,-0.5"/>
<text text-anchor="middle" x="383" y="-7.5" font-family="Helvetica,sans-Serif" font-size="10.00">sys/wait.h</text>
</g>
<!-- Node1&#45;&gt;Node7 -->
<g id="edge6" class="edge"><title>Node1&#45;&gt;Node7</title>
<path fill="none" stroke="midnightblue" d="M280.331,-56.4435C300.32,-47.5961 331.743,-33.6875 354.564,-23.5865"/>
<polygon fill="midnightblue" stroke="midnightblue" points="356.032,-26.7645 363.759,-19.5164 353.198,-20.3635 356.032,-26.7645"/>
</g>
<!-- Node8 -->
<g id="node8" class="node"><title>Node8</title>
<g id="a_node8"><a xlink:href="token_8h.html" target="_top" xlink:title="Файл с определением структуры лексемы ">
<polygon fill="white" stroke="black" points="431.5,-0.5 431.5,-19.5 480.5,-19.5 480.5,-0.5 431.5,-0.5"/>
<text text-anchor="middle" x="456" y="-7.5" font-family="Helvetica,sans-Serif" font-size="10.00">token.h</text>
</a>
</g>
</g>
<!-- Node1&#45;&gt;Node8 -->
<g id="edge7" class="edge"><title>Node1&#45;&gt;Node8</title>
<path fill="none" stroke="midnightblue" d="M291.898,-56.4435C327.237,-46.6574 384.936,-30.6793 421.656,-20.5107"/>
<polygon fill="midnightblue" stroke="midnightblue" points="422.717,-23.8486 431.42,-17.8067 420.849,-17.1025 422.717,-23.8486"/>
</g>
<!-- Node9 -->
<g id="node9" class="node"><title>Node9</title>
<g id="a_node9"><a xlink:href="rc__result_8h.html" target="_top" xlink:title="Файл с определением результата работы класса проверки строк ">
<polygon fill="white" stroke="black" points="499,-0.5 499,-19.5 561,-19.5 561,-0.5 499,-0.5"/>
<text text-anchor="middle" x="530" y="-7.5" font-family="Helvetica,sans-Serif" font-size="10.00">rc_result.h</text>
</a>
</g>
</g>
<!-- Node1&#45;&gt;Node9 -->
<g id="edge8" class="edge"><title>Node1&#45;&gt;Node9</title>
<path fill="none" stroke="midnightblue" d="M306.262,-56.483C350.343,-48.104 419.504,-34.7353 488.413,-20.2937"/>
<polygon fill="midnightblue" stroke="midnightblue" points="489.51,-23.6396 498.575,-18.1557 488.068,-16.7896 489.51,-23.6396"/>
</g>
</g>
</svg>
