<?xml version="1.0" encoding="UTF-8" standalone="no"?>
<!DOCTYPE svg PUBLIC "-//W3C//DTD SVG 1.1//EN"
 "http://www.w3.org/Graphics/SVG/1.1/DTD/svg11.dtd">
<!-- Generated by graphviz version 2.38.0 (20140413.2041)
 -->
<!-- Title: RegexpChecker.h Pages: 1 -->
<svg width="227pt" height="140pt"
 viewBox="0.00 0.00 227.00 140.00" xmlns="http://www.w3.org/2000/svg" xmlns:xlink="http://www.w3.org/1999/xlink">
<g id="graph0" class="graph" transform="scale(1 1) rotate(0) translate(4 136)">
<title>RegexpChecker.h</title>
<polygon fill="white" stroke="none" points="-4,4 -4,-136 223,-136 223,4 -4,4"/>
<!-- Node1 -->
<g id="node1" class="node"><title>Node1</title>
<polygon fill="#bfbfbf" stroke="black" points="70,-112.5 70,-131.5 164,-131.5 164,-112.5 70,-112.5"/>
<text text-anchor="middle" x="117" y="-119.5" font-family="Helvetica,sans-Serif" font-size="10.00">RegexpChecker.h</text>
</g>
<!-- Node2 -->
<g id="node2" class="node"><title>Node2</title>
<g id="a_node2"><a xlink:href="_regexp_8h.html" target="_top" xlink:title="Заголовочный файл класса регулярного выражения ">
<polygon fill="white" stroke="black" points="39,-56.5 39,-75.5 97,-75.5 97,-56.5 39,-56.5"/>
<text text-anchor="middle" x="68" y="-63.5" font-family="Helvetica,sans-Serif" font-size="10.00">Regexp.h</text>
</a>
</g>
</g>
<!-- Node1&#45;&gt;Node2 -->
<g id="edge1" class="edge"><title>Node1&#45;&gt;Node2</title>
<path fill="none" stroke="midnightblue" d="M101.966,-104.431C93.3778,-94.9673 82.9565,-83.4827 75.9408,-75.7511"/>
<polygon fill="midnightblue" stroke="midnightblue" points="99.5967,-107.029 108.909,-112.083 104.781,-102.325 99.5967,-107.029"/>
</g>
<!-- Node5 -->
<g id="node5" class="node"><title>Node5</title>
<g id="a_node5"><a xlink:href="_regexp_checker_8cpp.html" target="_top" xlink:title="RegexpChecker.cpp">
<polygon fill="white" stroke="black" points="115,-56.5 115,-75.5 219,-75.5 219,-56.5 115,-56.5"/>
<text text-anchor="middle" x="167" y="-63.5" font-family="Helvetica,sans-Serif" font-size="10.00">RegexpChecker.cpp</text>
</a>
</g>
</g>
<!-- Node1&#45;&gt;Node5 -->
<g id="edge4" class="edge"><title>Node1&#45;&gt;Node5</title>
<path fill="none" stroke="midnightblue" d="M132.076,-104.718C140.889,-95.1997 151.666,-83.5608 158.897,-75.7511"/>
<polygon fill="midnightblue" stroke="midnightblue" points="129.482,-102.367 125.256,-112.083 134.619,-107.123 129.482,-102.367"/>
</g>
<!-- Node3 -->
<g id="node3" class="node"><title>Node3</title>
<g id="a_node3"><a xlink:href="main_8cpp.html" target="_top" xlink:title="main.cpp">
<polygon fill="white" stroke="black" points="0,-0.5 0,-19.5 56,-19.5 56,-0.5 0,-0.5"/>
<text text-anchor="middle" x="28" y="-7.5" font-family="Helvetica,sans-Serif" font-size="10.00">main.cpp</text>
</a>
</g>
</g>
<!-- Node2&#45;&gt;Node3 -->
<g id="edge2" class="edge"><title>Node2&#45;&gt;Node3</title>
<path fill="none" stroke="midnightblue" d="M55.3003,-47.8554C48.374,-38.5048 40.0937,-27.3265 34.4823,-19.7511"/>
<polygon fill="midnightblue" stroke="midnightblue" points="52.63,-50.1307 61.3948,-56.083 58.255,-45.9641 52.63,-50.1307"/>
</g>
<!-- Node4 -->
<g id="node4" class="node"><title>Node4</title>
<g id="a_node4"><a xlink:href="_regexp_8cpp.html" target="_top" xlink:title="Regexp.cpp">
<polygon fill="white" stroke="black" points="74,-0.5 74,-19.5 142,-19.5 142,-0.5 74,-0.5"/>
<text text-anchor="middle" x="108" y="-7.5" font-family="Helvetica,sans-Serif" font-size="10.00">Regexp.cpp</text>
</a>
</g>
</g>
<!-- Node2&#45;&gt;Node4 -->
<g id="edge3" class="edge"><title>Node2&#45;&gt;Node4</title>
<path fill="none" stroke="midnightblue" d="M80.6997,-47.8554C87.626,-38.5048 95.9063,-27.3265 101.518,-19.7511"/>
<polygon fill="midnightblue" stroke="midnightblue" points="77.745,-45.9641 74.6052,-56.083 83.37,-50.1307 77.745,-45.9641"/>
</g>
</g>
</svg>
