<?xml version="1.0" encoding="UTF-8" standalone="no"?>
<!DOCTYPE svg PUBLIC "-//W3C//DTD SVG 1.1//EN"
 "http://www.w3.org/Graphics/SVG/1.1/DTD/svg11.dtd">
<!-- Generated by graphviz version 2.38.0 (20140413.2041)
 -->
<!-- Title: SyntaxAnalyzer.h Pages: 1 -->
<svg width="388pt" height="84pt"
 viewBox="0.00 0.00 388.00 84.00" xmlns="http://www.w3.org/2000/svg" xmlns:xlink="http://www.w3.org/1999/xlink">
<g id="graph0" class="graph" transform="scale(1 1) rotate(0) translate(4 80)">
<title>SyntaxAnalyzer.h</title>
<polygon fill="white" stroke="none" points="-4,4 -4,-80 384,-80 384,4 -4,4"/>
<!-- Node1 -->
<g id="node1" class="node"><title>Node1</title>
<polygon fill="#bfbfbf" stroke="black" points="126.5,-56.5 126.5,-75.5 220.5,-75.5 220.5,-56.5 126.5,-56.5"/>
<text text-anchor="middle" x="173.5" y="-63.5" font-family="Helvetica,sans-Serif" font-size="10.00">SyntaxAnalyzer.h</text>
</g>
<!-- Node2 -->
<g id="node2" class="node"><title>Node2</title>
<polygon fill="white" stroke="#bfbfbf" points="0,-0.5 0,-19.5 41,-19.5 41,-0.5 0,-0.5"/>
<text text-anchor="middle" x="20.5" y="-7.5" font-family="Helvetica,sans-Serif" font-size="10.00">string</text>
</g>
<!-- Node1&#45;&gt;Node2 -->
<g id="edge1" class="edge"><title>Node1&#45;&gt;Node2</title>
<path fill="none" stroke="midnightblue" d="M149.257,-56.4435C122.574,-47.0262 79.6447,-31.8746 50.7719,-21.6842"/>
<polygon fill="midnightblue" stroke="midnightblue" points="51.79,-18.332 41.1952,-18.3042 49.4602,-24.9329 51.79,-18.332"/>
</g>
<!-- Node3 -->
<g id="node3" class="node"><title>Node3</title>
<polygon fill="white" stroke="#bfbfbf" points="59.5,-0.5 59.5,-19.5 101.5,-19.5 101.5,-0.5 59.5,-0.5"/>
<text text-anchor="middle" x="80.5" y="-7.5" font-family="Helvetica,sans-Serif" font-size="10.00">vector</text>
</g>
<!-- Node1&#45;&gt;Node3 -->
<g id="edge2" class="edge"><title>Node1&#45;&gt;Node3</title>
<path fill="none" stroke="midnightblue" d="M158.558,-56.324C143.915,-47.8215 121.366,-34.7288 104.262,-24.7975"/>
<polygon fill="midnightblue" stroke="midnightblue" points="105.81,-21.6491 95.405,-19.6545 102.295,-27.7027 105.81,-21.6491"/>
</g>
<!-- Node4 -->
<g id="node4" class="node"><title>Node4</title>
<polygon fill="white" stroke="#bfbfbf" points="120,-0.5 120,-19.5 161,-19.5 161,-0.5 120,-0.5"/>
<text text-anchor="middle" x="140.5" y="-7.5" font-family="Helvetica,sans-Serif" font-size="10.00">stack</text>
</g>
<!-- Node1&#45;&gt;Node4 -->
<g id="edge3" class="edge"><title>Node1&#45;&gt;Node4</title>
<path fill="none" stroke="midnightblue" d="M168.051,-56.083C163.486,-48.6127 156.832,-37.7244 151.207,-28.5199"/>
<polygon fill="midnightblue" stroke="midnightblue" points="154.049,-26.4588 145.848,-19.7511 148.076,-30.109 154.049,-26.4588"/>
</g>
<!-- Node5 -->
<g id="node5" class="node"><title>Node5</title>
<polygon fill="white" stroke="#bfbfbf" points="179.5,-0.5 179.5,-19.5 235.5,-19.5 235.5,-0.5 179.5,-0.5"/>
<text text-anchor="middle" x="207.5" y="-7.5" font-family="Helvetica,sans-Serif" font-size="10.00">algorithm</text>
</g>
<!-- Node1&#45;&gt;Node5 -->
<g id="edge4" class="edge"><title>Node1&#45;&gt;Node5</title>
<path fill="none" stroke="midnightblue" d="M179.114,-56.083C183.867,-48.5341 190.818,-37.4948 196.652,-28.2298"/>
<polygon fill="midnightblue" stroke="midnightblue" points="199.624,-30.0783 201.99,-19.7511 193.7,-26.3486 199.624,-30.0783"/>
</g>
<!-- Node6 -->
<g id="node6" class="node"><title>Node6</title>
<polygon fill="white" stroke="#bfbfbf" points="254,-0.5 254,-19.5 313,-19.5 313,-0.5 254,-0.5"/>
<text text-anchor="middle" x="283.5" y="-7.5" font-family="Helvetica,sans-Serif" font-size="10.00">stdexcept</text>
</g>
<!-- Node1&#45;&gt;Node6 -->
<g id="edge5" class="edge"><title>Node1&#45;&gt;Node6</title>
<path fill="none" stroke="midnightblue" d="M191.173,-56.324C208.894,-47.6247 236.403,-34.1202 256.788,-24.113"/>
<polygon fill="midnightblue" stroke="midnightblue" points="258.436,-27.2031 265.87,-19.6545 255.351,-20.9195 258.436,-27.2031"/>
</g>
<!-- Node7 -->
<g id="node7" class="node"><title>Node7</title>
<g id="a_node7"><a xlink:href="token_8h.html" target="_top" xlink:title="Файл с определением структуры лексемы ">
<polygon fill="white" stroke="black" points="331,-0.5 331,-19.5 380,-19.5 380,-0.5 331,-0.5"/>
<text text-anchor="middle" x="355.5" y="-7.5" font-family="Helvetica,sans-Serif" font-size="10.00">token.h</text>
</a>
</g>
</g>
<!-- Node1&#45;&gt;Node7 -->
<g id="edge6" class="edge"><title>Node1&#45;&gt;Node7</title>
<path fill="none" stroke="midnightblue" d="M202.338,-56.4435C234.633,-46.8617 286.935,-31.3435 321.275,-21.1548"/>
<polygon fill="midnightblue" stroke="midnightblue" points="322.291,-24.5041 330.882,-18.3042 320.3,-17.7933 322.291,-24.5041"/>
</g>
</g>
</svg>
