<?xml version="1.0" encoding="UTF-8" standalone="no"?>
<!DOCTYPE svg PUBLIC "-//W3C//DTD SVG 1.1//EN"
 "http://www.w3.org/Graphics/SVG/1.1/DTD/svg11.dtd">
<!-- Generated by graphviz version 2.38.0 (20140413.2041)
 -->
<!-- Title: RegexpChecker::op_iter Pages: 1 -->
<svg width="627pt" height="125pt"
 viewBox="0.00 0.00 627.00 125.30" xmlns="http://www.w3.org/2000/svg" xmlns:xlink="http://www.w3.org/1999/xlink">
<g id="graph0" class="graph" transform="scale(1 1) rotate(0) translate(4 121.304)">
<title>RegexpChecker::op_iter</title>
<polygon fill="white" stroke="none" points="-4,4 -4,-121.304 623,-121.304 623,4 -4,4"/>
<!-- Node1 -->
<g id="node1" class="node"><title>Node1</title>
<polygon fill="#bfbfbf" stroke="black" points="0,-38.5 0,-57.5 121,-57.5 121,-38.5 0,-38.5"/>
<text text-anchor="middle" x="60.5" y="-45.5" font-family="Helvetica,sans-Serif" font-size="10.00">RegexpChecker::op_iter</text>
</g>
<!-- Node2 -->
<g id="node2" class="node"><title>Node2</title>
<g id="a_node2"><a xlink:href="class_regexp_checker.html#adf00606a82e27c614122d001f21f9f96" target="_top" xlink:title="Пропускает текущую операцию ">
<polygon fill="white" stroke="black" points="494,-38.5 494,-57.5 619,-57.5 619,-38.5 494,-38.5"/>
<text text-anchor="middle" x="556.5" y="-45.5" font-family="Helvetica,sans-Serif" font-size="10.00">RegexpChecker::skip_op</text>
</a>
</g>
</g>
<!-- Node1&#45;&gt;Node2 -->
<g id="edge1" class="edge"><title>Node1&#45;&gt;Node2</title>
<path fill="none" stroke="midnightblue" d="M84.2462,-57.602C145.567,-82.1397 319.05,-142.636 458,-105 487.408,-97.0344 517.039,-77.7377 535.786,-63.8006"/>
<polygon fill="midnightblue" stroke="midnightblue" points="538.013,-66.5037 543.83,-57.6485 533.76,-60.9434 538.013,-66.5037"/>
</g>
<!-- Node3 -->
<g id="node3" class="node"><title>Node3</title>
<g id="a_node3"><a xlink:href="class_regexp_checker.html#a12a12dfe322def2c802afd2ebea0b75f" target="_top" xlink:title="RegexpChecker::check_op">
<polygon fill="white" stroke="black" points="157,-38.5 157,-57.5 291,-57.5 291,-38.5 157,-38.5"/>
<text text-anchor="middle" x="224" y="-45.5" font-family="Helvetica,sans-Serif" font-size="10.00">RegexpChecker::check_op</text>
</a>
</g>
</g>
<!-- Node1&#45;&gt;Node3 -->
<g id="edge2" class="edge"><title>Node1&#45;&gt;Node3</title>
<path fill="none" stroke="midnightblue" d="M121.178,-41.4586C129.509,-41.2901 138.162,-41.2237 146.747,-41.2593"/>
<polygon fill="midnightblue" stroke="midnightblue" points="146.74,-44.7593 156.77,-41.3479 146.802,-37.7596 146.74,-44.7593"/>
</g>
<!-- Node3&#45;&gt;Node1 -->
<g id="edge10" class="edge"><title>Node3&#45;&gt;Node1</title>
<path fill="none" stroke="midnightblue" d="M156.77,-54.6521C148.39,-54.7662 139.795,-54.7806 131.36,-54.6951"/>
<polygon fill="midnightblue" stroke="midnightblue" points="131.23,-51.1929 121.178,-54.5414 131.124,-58.1921 131.23,-51.1929"/>
</g>
<!-- Node4 -->
<g id="node4" class="node"><title>Node4</title>
<g id="a_node4"><a xlink:href="class_regexp_checker.html#ad48539a0443212d78e32ff0a23918478" target="_top" xlink:title="RegexpChecker::op_str">
<polygon fill="white" stroke="black" points="333,-76.5 333,-95.5 452,-95.5 452,-76.5 333,-76.5"/>
<text text-anchor="middle" x="392.5" y="-83.5" font-family="Helvetica,sans-Serif" font-size="10.00">RegexpChecker::op_str</text>
</a>
</g>
</g>
<!-- Node3&#45;&gt;Node4 -->
<g id="edge3" class="edge"><title>Node3&#45;&gt;Node4</title>
<path fill="none" stroke="midnightblue" d="M267.015,-57.589C289.184,-62.6487 316.573,-68.8996 340.011,-74.2488"/>
<polygon fill="midnightblue" stroke="midnightblue" points="339.259,-77.6671 349.787,-76.4799 340.817,-70.8425 339.259,-77.6671"/>
</g>
<!-- Node5 -->
<g id="node5" class="node"><title>Node5</title>
<g id="a_node5"><a xlink:href="class_regexp_checker.html#aa775725022ae645c6d8f12633aa3a3d4" target="_top" xlink:title="RegexpChecker::op_enum">
<polygon fill="white" stroke="black" points="327,-38.5 327,-57.5 458,-57.5 458,-38.5 327,-38.5"/>
<text text-anchor="middle" x="392.5" y="-45.5" font-family="Helvetica,sans-Serif" font-size="10.00">RegexpChecker::op_enum</text>
</a>
</g>
</g>
<!-- Node3&#45;&gt;Node5 -->
<g id="edge4" class="edge"><title>Node3&#45;&gt;Node5</title>
<path fill="none" stroke="midnightblue" d="M291.284,-41.3762C299.601,-41.2509 308.153,-41.2189 316.591,-41.2802"/>
<polygon fill="midnightblue" stroke="midnightblue" points="316.761,-44.7824 326.802,-41.4012 316.844,-37.7829 316.761,-44.7824"/>
</g>
<!-- Node6 -->
<g id="node6" class="node"><title>Node6</title>
<g id="a_node6"><a xlink:href="class_regexp_checker.html#a3f379e2420eacf52f91afce6e0ade9e4" target="_top" xlink:title="RegexpChecker::op_cat">
<polygon fill="white" stroke="black" points="332,-0.5 332,-19.5 453,-19.5 453,-0.5 332,-0.5"/>
<text text-anchor="middle" x="392.5" y="-7.5" font-family="Helvetica,sans-Serif" font-size="10.00">RegexpChecker::op_cat</text>
</a>
</g>
</g>
<!-- Node3&#45;&gt;Node6 -->
<g id="edge7" class="edge"><title>Node3&#45;&gt;Node6</title>
<path fill="none" stroke="midnightblue" d="M246.426,-38.4076C265.591,-32.3956 294.77,-25.0809 321.947,-19.2059"/>
<polygon fill="midnightblue" stroke="midnightblue" points="322.787,-22.6056 331.846,-17.1117 321.338,-15.7572 322.787,-22.6056"/>
</g>
<!-- Node5&#45;&gt;Node2 -->
<g id="edge6" class="edge"><title>Node5&#45;&gt;Node2</title>
<path fill="none" stroke="midnightblue" d="M458.458,-48C466.781,-48 475.34,-48 483.764,-48"/>
<polygon fill="midnightblue" stroke="midnightblue" points="483.946,-51.5001 493.946,-48 483.946,-44.5001 483.946,-51.5001"/>
</g>
<!-- Node5&#45;&gt;Node3 -->
<g id="edge5" class="edge"><title>Node5&#45;&gt;Node3</title>
<path fill="none" stroke="midnightblue" d="M326.802,-54.5988C318.516,-54.7359 309.973,-54.7798 301.522,-54.7304"/>
<polygon fill="midnightblue" stroke="midnightblue" points="301.32,-51.2282 291.284,-54.6238 301.247,-58.2278 301.32,-51.2282"/>
</g>
<!-- Node6&#45;&gt;Node2 -->
<g id="edge9" class="edge"><title>Node6&#45;&gt;Node2</title>
<path fill="none" stroke="midnightblue" d="M434.379,-19.589C455.853,-24.6261 482.36,-30.8438 505.097,-36.1771"/>
<polygon fill="midnightblue" stroke="midnightblue" points="504.379,-39.6037 514.915,-38.4799 505.978,-32.7887 504.379,-39.6037"/>
</g>
<!-- Node6&#45;&gt;Node3 -->
<g id="edge8" class="edge"><title>Node6&#45;&gt;Node3</title>
<path fill="none" stroke="midnightblue" d="M370.139,-19.572C352.541,-25.0963 326.468,-31.7242 301.256,-37.325"/>
<polygon fill="midnightblue" stroke="midnightblue" points="300.31,-33.9488 291.284,-39.496 301.799,-40.7886 300.31,-33.9488"/>
</g>
</g>
</svg>
