<?xml version="1.0" encoding="UTF-8" standalone="no"?>
<!DOCTYPE svg PUBLIC "-//W3C//DTD SVG 1.1//EN"
 "http://www.w3.org/Graphics/SVG/1.1/DTD/svg11.dtd">
<!-- Generated by graphviz version 2.38.0 (20140413.2041)
 -->
<!-- Title: SyntaxAnalyzer::E Pages: 1 -->
<svg width="272pt" height="66pt"
 viewBox="0.00 0.00 272.00 66.00" xmlns="http://www.w3.org/2000/svg" xmlns:xlink="http://www.w3.org/1999/xlink">
<g id="graph0" class="graph" transform="scale(1 1) rotate(0) translate(4 62)">
<title>SyntaxAnalyzer::E</title>
<polygon fill="white" stroke="none" points="-4,4 -4,-62 268,-62 268,4 -4,4"/>
<!-- Node1 -->
<g id="node1" class="node"><title>Node1</title>
<polygon fill="#bfbfbf" stroke="black" points="0,-19.5 0,-38.5 98,-38.5 98,-19.5 0,-19.5"/>
<text text-anchor="middle" x="49" y="-26.5" font-family="Helvetica,sans-Serif" font-size="10.00">SyntaxAnalyzer::E</text>
</g>
<!-- Node2 -->
<g id="node2" class="node"><title>Node2</title>
<g id="a_node2"><a xlink:href="class_syntax_analyzer.html#aea363db29fd359d98711018d377f3301" target="_top" xlink:title="SyntaxAnalyzer::flush_buf">
<polygon fill="white" stroke="black" points="134,-38.5 134,-57.5 264,-57.5 264,-38.5 134,-38.5"/>
<text text-anchor="middle" x="199" y="-45.5" font-family="Helvetica,sans-Serif" font-size="10.00">SyntaxAnalyzer::flush_buf</text>
</a>
</g>
</g>
<!-- Node1&#45;&gt;Node2 -->
<g id="edge1" class="edge"><title>Node1&#45;&gt;Node2</title>
<path fill="none" stroke="midnightblue" d="M98.0514,-35.1688C106.241,-36.2202 114.917,-37.3339 123.599,-38.4486"/>
<polygon fill="midnightblue" stroke="midnightblue" points="123.403,-41.9519 133.767,-39.7539 124.294,-35.0089 123.403,-41.9519"/>
</g>
<!-- Node3 -->
<g id="node3" class="node"><title>Node3</title>
<g id="a_node3"><a xlink:href="class_syntax_analyzer.html#a7a94734bb42224681a23045c45cd9ca3" target="_top" xlink:title="SyntaxAnalyzer::O">
<polygon fill="white" stroke="black" points="149.5,-0.5 149.5,-19.5 248.5,-19.5 248.5,-0.5 149.5,-0.5"/>
<text text-anchor="middle" x="199" y="-7.5" font-family="Helvetica,sans-Serif" font-size="10.00">SyntaxAnalyzer::O</text>
</a>
</g>
</g>
<!-- Node1&#45;&gt;Node3 -->
<g id="edge2" class="edge"><title>Node1&#45;&gt;Node3</title>
<path fill="none" stroke="midnightblue" d="M98.0514,-22.8312C111.167,-21.1475 125.528,-19.3039 139.17,-17.5525"/>
<polygon fill="midnightblue" stroke="midnightblue" points="139.957,-20.9803 149.43,-16.2354 139.065,-14.0373 139.957,-20.9803"/>
</g>
</g>
</svg>
