<?xml version="1.0" encoding="UTF-8" standalone="no"?>
<!DOCTYPE svg PUBLIC "-//W3C//DTD SVG 1.1//EN"
 "http://www.w3.org/Graphics/SVG/1.1/DTD/svg11.dtd">
<!-- Generated by graphviz version 2.38.0 (20140413.2041)
 -->
<!-- Title: Regexp::search Pages: 1 -->
<svg width="745pt" height="142pt"
 viewBox="0.00 0.00 745.00 142.00" xmlns="http://www.w3.org/2000/svg" xmlns:xlink="http://www.w3.org/1999/xlink">
<g id="graph0" class="graph" transform="scale(1 1) rotate(0) translate(4 138)">
<title>Regexp::search</title>
<polygon fill="white" stroke="none" points="-4,4 -4,-138 741,-138 741,4 -4,4"/>
<!-- Node1 -->
<g id="node1" class="node"><title>Node1</title>
<polygon fill="#bfbfbf" stroke="black" points="0,-38.5 0,-57.5 85,-57.5 85,-38.5 0,-38.5"/>
<text text-anchor="middle" x="42.5" y="-45.5" font-family="Helvetica,sans-Serif" font-size="10.00">Regexp::search</text>
</g>
<!-- Node2 -->
<g id="node2" class="node"><title>Node2</title>
<g id="a_node2"><a xlink:href="class_regexp_checker.html#a58d9c7c69c53ef18fa6ddb6a2c4bf24f" target="_top" xlink:title="RegexpChecker::check">
<polygon fill="white" stroke="black" points="121,-38.5 121,-57.5 239,-57.5 239,-38.5 121,-38.5"/>
<text text-anchor="middle" x="180" y="-45.5" font-family="Helvetica,sans-Serif" font-size="10.00">RegexpChecker::check</text>
</a>
</g>
</g>
<!-- Node1&#45;&gt;Node2 -->
<g id="edge1" class="edge"><title>Node1&#45;&gt;Node2</title>
<path fill="none" stroke="midnightblue" d="M85.2601,-48C93.3083,-48 101.933,-48 110.573,-48"/>
<polygon fill="midnightblue" stroke="midnightblue" points="110.688,-51.5001 120.688,-48 110.688,-44.5001 110.688,-51.5001"/>
</g>
<!-- Node3 -->
<g id="node3" class="node"><title>Node3</title>
<g id="a_node3"><a xlink:href="class_regexp_checker.html#a12a12dfe322def2c802afd2ebea0b75f" target="_top" xlink:title="RegexpChecker::check_op">
<polygon fill="white" stroke="black" points="275,-38.5 275,-57.5 409,-57.5 409,-38.5 275,-38.5"/>
<text text-anchor="middle" x="342" y="-45.5" font-family="Helvetica,sans-Serif" font-size="10.00">RegexpChecker::check_op</text>
</a>
</g>
</g>
<!-- Node2&#45;&gt;Node3 -->
<g id="edge2" class="edge"><title>Node2&#45;&gt;Node3</title>
<path fill="none" stroke="midnightblue" d="M239.216,-48C247.565,-48 256.256,-48 264.887,-48"/>
<polygon fill="midnightblue" stroke="midnightblue" points="264.967,-51.5001 274.967,-48 264.967,-44.5001 264.967,-51.5001"/>
</g>
<!-- Node4 -->
<g id="node4" class="node"><title>Node4</title>
<g id="a_node4"><a xlink:href="class_regexp_checker.html#ad48539a0443212d78e32ff0a23918478" target="_top" xlink:title="RegexpChecker::op_str">
<polygon fill="white" stroke="black" points="451,-114.5 451,-133.5 570,-133.5 570,-114.5 451,-114.5"/>
<text text-anchor="middle" x="510.5" y="-121.5" font-family="Helvetica,sans-Serif" font-size="10.00">RegexpChecker::op_str</text>
</a>
</g>
</g>
<!-- Node3&#45;&gt;Node4 -->
<g id="edge3" class="edge"><title>Node3&#45;&gt;Node4</title>
<path fill="none" stroke="midnightblue" d="M357.676,-57.587C377.034,-69.9028 412.462,-91.3186 445,-105 450.446,-107.29 456.26,-109.417 462.083,-111.356"/>
<polygon fill="midnightblue" stroke="midnightblue" points="461.238,-114.76 471.828,-114.438 463.349,-108.086 461.238,-114.76"/>
</g>
<!-- Node5 -->
<g id="node5" class="node"><title>Node5</title>
<g id="a_node5"><a xlink:href="class_regexp_checker.html#aa775725022ae645c6d8f12633aa3a3d4" target="_top" xlink:title="RegexpChecker::op_enum">
<polygon fill="white" stroke="black" points="445,-76.5 445,-95.5 576,-95.5 576,-76.5 445,-76.5"/>
<text text-anchor="middle" x="510.5" y="-83.5" font-family="Helvetica,sans-Serif" font-size="10.00">RegexpChecker::op_enum</text>
</a>
</g>
</g>
<!-- Node3&#45;&gt;Node5 -->
<g id="edge4" class="edge"><title>Node3&#45;&gt;Node5</title>
<path fill="none" stroke="midnightblue" d="M409.284,-56.504C433.114,-61.5837 458.881,-67.8713 478.319,-73.4805"/>
<polygon fill="midnightblue" stroke="midnightblue" points="477.555,-76.9052 488.139,-76.428 479.567,-70.2007 477.555,-76.9052"/>
</g>
<!-- Node7 -->
<g id="node7" class="node"><title>Node7</title>
<g id="a_node7"><a xlink:href="class_regexp_checker.html#a3f379e2420eacf52f91afce6e0ade9e4" target="_top" xlink:title="RegexpChecker::op_cat">
<polygon fill="white" stroke="black" points="450,-38.5 450,-57.5 571,-57.5 571,-38.5 450,-38.5"/>
<text text-anchor="middle" x="510.5" y="-45.5" font-family="Helvetica,sans-Serif" font-size="10.00">RegexpChecker::op_cat</text>
</a>
</g>
</g>
<!-- Node3&#45;&gt;Node7 -->
<g id="edge7" class="edge"><title>Node3&#45;&gt;Node7</title>
<path fill="none" stroke="midnightblue" d="M409.284,-41.3762C419.35,-41.2246 429.762,-41.2096 439.896,-41.3313"/>
<polygon fill="midnightblue" stroke="midnightblue" points="439.858,-44.831 449.915,-41.4985 439.975,-37.832 439.858,-44.831"/>
</g>
<!-- Node8 -->
<g id="node8" class="node"><title>Node8</title>
<g id="a_node8"><a xlink:href="class_regexp_checker.html#a5a34d99e02dba23757f33ce8107a961d" target="_top" xlink:title="RegexpChecker::op_iter">
<polygon fill="white" stroke="black" points="450,-0.5 450,-19.5 571,-19.5 571,-0.5 450,-0.5"/>
<text text-anchor="middle" x="510.5" y="-7.5" font-family="Helvetica,sans-Serif" font-size="10.00">RegexpChecker::op_iter</text>
</a>
</g>
</g>
<!-- Node3&#45;&gt;Node8 -->
<g id="edge10" class="edge"><title>Node3&#45;&gt;Node8</title>
<path fill="none" stroke="midnightblue" d="M364.426,-38.4076C383.591,-32.3956 412.77,-25.0809 439.947,-19.2059"/>
<polygon fill="midnightblue" stroke="midnightblue" points="440.787,-22.6056 449.846,-17.1117 439.338,-15.7572 440.787,-22.6056"/>
</g>
<!-- Node5&#45;&gt;Node3 -->
<g id="edge5" class="edge"><title>Node5&#45;&gt;Node3</title>
<path fill="none" stroke="midnightblue" d="M444.705,-77.8123C420.454,-72.6768 394.003,-66.2404 374.156,-60.5125"/>
<polygon fill="midnightblue" stroke="midnightblue" points="375.01,-57.1146 364.426,-57.5924 372.998,-63.8192 375.01,-57.1146"/>
</g>
<!-- Node6 -->
<g id="node6" class="node"><title>Node6</title>
<g id="a_node6"><a xlink:href="class_regexp_checker.html#adf00606a82e27c614122d001f21f9f96" target="_top" xlink:title="Пропускает текущую операцию ">
<polygon fill="white" stroke="black" points="612,-38.5 612,-57.5 737,-57.5 737,-38.5 612,-38.5"/>
<text text-anchor="middle" x="674.5" y="-45.5" font-family="Helvetica,sans-Serif" font-size="10.00">RegexpChecker::skip_op</text>
</a>
</g>
</g>
<!-- Node5&#45;&gt;Node6 -->
<g id="edge6" class="edge"><title>Node5&#45;&gt;Node6</title>
<path fill="none" stroke="midnightblue" d="M552.379,-76.411C573.853,-71.3739 600.36,-65.1562 623.097,-59.8229"/>
<polygon fill="midnightblue" stroke="midnightblue" points="623.978,-63.2113 632.915,-57.5201 622.379,-56.3963 623.978,-63.2113"/>
</g>
<!-- Node7&#45;&gt;Node3 -->
<g id="edge8" class="edge"><title>Node7&#45;&gt;Node3</title>
<path fill="none" stroke="midnightblue" d="M449.915,-54.5015C440.035,-54.7143 429.669,-54.7904 419.442,-54.7299"/>
<polygon fill="midnightblue" stroke="midnightblue" points="419.32,-51.2285 409.284,-54.6238 419.246,-58.2281 419.32,-51.2285"/>
</g>
<!-- Node7&#45;&gt;Node6 -->
<g id="edge9" class="edge"><title>Node7&#45;&gt;Node6</title>
<path fill="none" stroke="midnightblue" d="M571.363,-48C581.3,-48 591.693,-48 601.886,-48"/>
<polygon fill="midnightblue" stroke="midnightblue" points="601.987,-51.5001 611.987,-48 601.987,-44.5001 601.987,-51.5001"/>
</g>
<!-- Node8&#45;&gt;Node3 -->
<g id="edge12" class="edge"><title>Node8&#45;&gt;Node3</title>
<path fill="none" stroke="midnightblue" d="M488.139,-19.572C470.541,-25.0963 444.468,-31.7242 419.256,-37.325"/>
<polygon fill="midnightblue" stroke="midnightblue" points="418.31,-33.9488 409.284,-39.496 419.799,-40.7886 418.31,-33.9488"/>
</g>
<!-- Node8&#45;&gt;Node6 -->
<g id="edge11" class="edge"><title>Node8&#45;&gt;Node6</title>
<path fill="none" stroke="midnightblue" d="M552.379,-19.589C573.853,-24.6261 600.36,-30.8438 623.097,-36.1771"/>
<polygon fill="midnightblue" stroke="midnightblue" points="622.379,-39.6037 632.915,-38.4799 623.978,-32.7887 622.379,-39.6037"/>
</g>
</g>
</svg>
