<?xml version="1.0" encoding="UTF-8" standalone="no"?>
<!DOCTYPE svg PUBLIC "-//W3C//DTD SVG 1.1//EN"
 "http://www.w3.org/Graphics/SVG/1.1/DTD/svg11.dtd">
<!-- Generated by graphviz version 2.38.0 (20140413.2041)
 -->
<!-- Title: Regexp::match Pages: 1 -->
<svg width="743pt" height="142pt"
 viewBox="0.00 0.00 743.00 142.00" xmlns="http://www.w3.org/2000/svg" xmlns:xlink="http://www.w3.org/1999/xlink">
<g id="graph0" class="graph" transform="scale(1 1) rotate(0) translate(4 138)">
<title>Regexp::match</title>
<polygon fill="white" stroke="none" points="-4,4 -4,-138 739,-138 739,4 -4,4"/>
<!-- Node1 -->
<g id="node1" class="node"><title>Node1</title>
<polygon fill="#bfbfbf" stroke="black" points="0,-38.5 0,-57.5 83,-57.5 83,-38.5 0,-38.5"/>
<text text-anchor="middle" x="41.5" y="-45.5" font-family="Helvetica,sans-Serif" font-size="10.00">Regexp::match</text>
</g>
<!-- Node2 -->
<g id="node2" class="node"><title>Node2</title>
<g id="a_node2"><a xlink:href="class_regexp_checker.html#a58d9c7c69c53ef18fa6ddb6a2c4bf24f" target="_top" xlink:title="RegexpChecker::check">
<polygon fill="white" stroke="black" points="119,-38.5 119,-57.5 237,-57.5 237,-38.5 119,-38.5"/>
<text text-anchor="middle" x="178" y="-45.5" font-family="Helvetica,sans-Serif" font-size="10.00">RegexpChecker::check</text>
</a>
</g>
</g>
<!-- Node1&#45;&gt;Node2 -->
<g id="edge1" class="edge"><title>Node1&#45;&gt;Node2</title>
<path fill="none" stroke="midnightblue" d="M83.2194,-48C91.2219,-48 99.8212,-48 108.449,-48"/>
<polygon fill="midnightblue" stroke="midnightblue" points="108.557,-51.5001 118.556,-48 108.556,-44.5001 108.557,-51.5001"/>
</g>
<!-- Node3 -->
<g id="node3" class="node"><title>Node3</title>
<g id="a_node3"><a xlink:href="class_regexp_checker.html#a12a12dfe322def2c802afd2ebea0b75f" target="_top" xlink:title="RegexpChecker::check_op">
<polygon fill="white" stroke="black" points="273,-38.5 273,-57.5 407,-57.5 407,-38.5 273,-38.5"/>
<text text-anchor="middle" x="340" y="-45.5" font-family="Helvetica,sans-Serif" font-size="10.00">RegexpChecker::check_op</text>
</a>
</g>
</g>
<!-- Node2&#45;&gt;Node3 -->
<g id="edge2" class="edge"><title>Node2&#45;&gt;Node3</title>
<path fill="none" stroke="midnightblue" d="M237.216,-48C245.565,-48 254.256,-48 262.887,-48"/>
<polygon fill="midnightblue" stroke="midnightblue" points="262.967,-51.5001 272.967,-48 262.967,-44.5001 262.967,-51.5001"/>
</g>
<!-- Node4 -->
<g id="node4" class="node"><title>Node4</title>
<g id="a_node4"><a xlink:href="class_regexp_checker.html#ad48539a0443212d78e32ff0a23918478" target="_top" xlink:title="RegexpChecker::op_str">
<polygon fill="white" stroke="black" points="449,-114.5 449,-133.5 568,-133.5 568,-114.5 449,-114.5"/>
<text text-anchor="middle" x="508.5" y="-121.5" font-family="Helvetica,sans-Serif" font-size="10.00">RegexpChecker::op_str</text>
</a>
</g>
</g>
<!-- Node3&#45;&gt;Node4 -->
<g id="edge3" class="edge"><title>Node3&#45;&gt;Node4</title>
<path fill="none" stroke="midnightblue" d="M355.676,-57.587C375.034,-69.9028 410.462,-91.3186 443,-105 448.446,-107.29 454.26,-109.417 460.083,-111.356"/>
<polygon fill="midnightblue" stroke="midnightblue" points="459.238,-114.76 469.828,-114.438 461.349,-108.086 459.238,-114.76"/>
</g>
<!-- Node5 -->
<g id="node5" class="node"><title>Node5</title>
<g id="a_node5"><a xlink:href="class_regexp_checker.html#aa775725022ae645c6d8f12633aa3a3d4" target="_top" xlink:title="RegexpChecker::op_enum">
<polygon fill="white" stroke="black" points="443,-76.5 443,-95.5 574,-95.5 574,-76.5 443,-76.5"/>
<text text-anchor="middle" x="508.5" y="-83.5" font-family="Helvetica,sans-Serif" font-size="10.00">RegexpChecker::op_enum</text>
</a>
</g>
</g>
<!-- Node3&#45;&gt;Node5 -->
<g id="edge4" class="edge"><title>Node3&#45;&gt;Node5</title>
<path fill="none" stroke="midnightblue" d="M407.284,-56.504C431.114,-61.5837 456.881,-67.8713 476.319,-73.4805"/>
<polygon fill="midnightblue" stroke="midnightblue" points="475.555,-76.9052 486.139,-76.428 477.567,-70.2007 475.555,-76.9052"/>
</g>
<!-- Node7 -->
<g id="node7" class="node"><title>Node7</title>
<g id="a_node7"><a xlink:href="class_regexp_checker.html#a3f379e2420eacf52f91afce6e0ade9e4" target="_top" xlink:title="RegexpChecker::op_cat">
<polygon fill="white" stroke="black" points="448,-38.5 448,-57.5 569,-57.5 569,-38.5 448,-38.5"/>
<text text-anchor="middle" x="508.5" y="-45.5" font-family="Helvetica,sans-Serif" font-size="10.00">RegexpChecker::op_cat</text>
</a>
</g>
</g>
<!-- Node3&#45;&gt;Node7 -->
<g id="edge7" class="edge"><title>Node3&#45;&gt;Node7</title>
<path fill="none" stroke="midnightblue" d="M407.284,-41.3762C417.35,-41.2246 427.762,-41.2096 437.896,-41.3313"/>
<polygon fill="midnightblue" stroke="midnightblue" points="437.858,-44.831 447.915,-41.4985 437.975,-37.832 437.858,-44.831"/>
</g>
<!-- Node8 -->
<g id="node8" class="node"><title>Node8</title>
<g id="a_node8"><a xlink:href="class_regexp_checker.html#a5a34d99e02dba23757f33ce8107a961d" target="_top" xlink:title="RegexpChecker::op_iter">
<polygon fill="white" stroke="black" points="448,-0.5 448,-19.5 569,-19.5 569,-0.5 448,-0.5"/>
<text text-anchor="middle" x="508.5" y="-7.5" font-family="Helvetica,sans-Serif" font-size="10.00">RegexpChecker::op_iter</text>
</a>
</g>
</g>
<!-- Node3&#45;&gt;Node8 -->
<g id="edge10" class="edge"><title>Node3&#45;&gt;Node8</title>
<path fill="none" stroke="midnightblue" d="M362.426,-38.4076C381.591,-32.3956 410.77,-25.0809 437.947,-19.2059"/>
<polygon fill="midnightblue" stroke="midnightblue" points="438.787,-22.6056 447.846,-17.1117 437.338,-15.7572 438.787,-22.6056"/>
</g>
<!-- Node5&#45;&gt;Node3 -->
<g id="edge5" class="edge"><title>Node5&#45;&gt;Node3</title>
<path fill="none" stroke="midnightblue" d="M442.705,-77.8123C418.454,-72.6768 392.003,-66.2404 372.156,-60.5125"/>
<polygon fill="midnightblue" stroke="midnightblue" points="373.01,-57.1146 362.426,-57.5924 370.998,-63.8192 373.01,-57.1146"/>
</g>
<!-- Node6 -->
<g id="node6" class="node"><title>Node6</title>
<g id="a_node6"><a xlink:href="class_regexp_checker.html#adf00606a82e27c614122d001f21f9f96" target="_top" xlink:title="Пропускает текущую операцию ">
<polygon fill="white" stroke="black" points="610,-38.5 610,-57.5 735,-57.5 735,-38.5 610,-38.5"/>
<text text-anchor="middle" x="672.5" y="-45.5" font-family="Helvetica,sans-Serif" font-size="10.00">RegexpChecker::skip_op</text>
</a>
</g>
</g>
<!-- Node5&#45;&gt;Node6 -->
<g id="edge6" class="edge"><title>Node5&#45;&gt;Node6</title>
<path fill="none" stroke="midnightblue" d="M550.379,-76.411C571.853,-71.3739 598.36,-65.1562 621.097,-59.8229"/>
<polygon fill="midnightblue" stroke="midnightblue" points="621.978,-63.2113 630.915,-57.5201 620.379,-56.3963 621.978,-63.2113"/>
</g>
<!-- Node7&#45;&gt;Node3 -->
<g id="edge8" class="edge"><title>Node7&#45;&gt;Node3</title>
<path fill="none" stroke="midnightblue" d="M447.915,-54.5015C438.035,-54.7143 427.669,-54.7904 417.442,-54.7299"/>
<polygon fill="midnightblue" stroke="midnightblue" points="417.32,-51.2285 407.284,-54.6238 417.246,-58.2281 417.32,-51.2285"/>
</g>
<!-- Node7&#45;&gt;Node6 -->
<g id="edge9" class="edge"><title>Node7&#45;&gt;Node6</title>
<path fill="none" stroke="midnightblue" d="M569.363,-48C579.3,-48 589.693,-48 599.886,-48"/>
<polygon fill="midnightblue" stroke="midnightblue" points="599.987,-51.5001 609.987,-48 599.987,-44.5001 599.987,-51.5001"/>
</g>
<!-- Node8&#45;&gt;Node3 -->
<g id="edge12" class="edge"><title>Node8&#45;&gt;Node3</title>
<path fill="none" stroke="midnightblue" d="M486.139,-19.572C468.541,-25.0963 442.468,-31.7242 417.256,-37.325"/>
<polygon fill="midnightblue" stroke="midnightblue" points="416.31,-33.9488 407.284,-39.496 417.799,-40.7886 416.31,-33.9488"/>
</g>
<!-- Node8&#45;&gt;Node6 -->
<g id="edge11" class="edge"><title>Node8&#45;&gt;Node6</title>
<path fill="none" stroke="midnightblue" d="M550.379,-19.589C571.853,-24.6261 598.36,-30.8438 621.097,-36.1771"/>
<polygon fill="midnightblue" stroke="midnightblue" points="620.379,-39.6037 630.915,-38.4799 621.978,-32.7887 620.379,-39.6037"/>
</g>
</g>
</svg>
