<?xml version="1.0" encoding="UTF-8" standalone="no"?>
<!DOCTYPE svg PUBLIC "-//W3C//DTD SVG 1.1//EN"
 "http://www.w3.org/Graphics/SVG/1.1/DTD/svg11.dtd">
<!-- Generated by graphviz version 2.38.0 (20140413.2041)
 -->
<!-- Title: RegexpChecker::check_op Pages: 1 -->
<svg width="470pt" height="142pt"
 viewBox="0.00 0.00 470.00 142.00" xmlns="http://www.w3.org/2000/svg" xmlns:xlink="http://www.w3.org/1999/xlink">
<g id="graph0" class="graph" transform="scale(1 1) rotate(0) translate(4 138)">
<title>RegexpChecker::check_op</title>
<polygon fill="white" stroke="none" points="-4,4 -4,-138 466,-138 466,4 -4,4"/>
<!-- Node1 -->
<g id="node1" class="node"><title>Node1</title>
<polygon fill="#bfbfbf" stroke="black" points="0,-38.5 0,-57.5 134,-57.5 134,-38.5 0,-38.5"/>
<text text-anchor="middle" x="67" y="-45.5" font-family="Helvetica,sans-Serif" font-size="10.00">RegexpChecker::check_op</text>
</g>
<!-- Node2 -->
<g id="node2" class="node"><title>Node2</title>
<g id="a_node2"><a xlink:href="class_regexp_checker.html#ad48539a0443212d78e32ff0a23918478" target="_top" xlink:title="RegexpChecker::op_str">
<polygon fill="white" stroke="black" points="176,-114.5 176,-133.5 295,-133.5 295,-114.5 176,-114.5"/>
<text text-anchor="middle" x="235.5" y="-121.5" font-family="Helvetica,sans-Serif" font-size="10.00">RegexpChecker::op_str</text>
</a>
</g>
</g>
<!-- Node1&#45;&gt;Node2 -->
<g id="edge1" class="edge"><title>Node1&#45;&gt;Node2</title>
<path fill="none" stroke="midnightblue" d="M82.6762,-57.587C102.034,-69.9028 137.462,-91.3186 170,-105 175.446,-107.29 181.26,-109.417 187.083,-111.356"/>
<polygon fill="midnightblue" stroke="midnightblue" points="186.238,-114.76 196.828,-114.438 188.349,-108.086 186.238,-114.76"/>
</g>
<!-- Node3 -->
<g id="node3" class="node"><title>Node3</title>
<g id="a_node3"><a xlink:href="class_regexp_checker.html#aa775725022ae645c6d8f12633aa3a3d4" target="_top" xlink:title="RegexpChecker::op_enum">
<polygon fill="white" stroke="black" points="170,-76.5 170,-95.5 301,-95.5 301,-76.5 170,-76.5"/>
<text text-anchor="middle" x="235.5" y="-83.5" font-family="Helvetica,sans-Serif" font-size="10.00">RegexpChecker::op_enum</text>
</a>
</g>
</g>
<!-- Node1&#45;&gt;Node3 -->
<g id="edge2" class="edge"><title>Node1&#45;&gt;Node3</title>
<path fill="none" stroke="midnightblue" d="M134.284,-56.504C158.114,-61.5837 183.881,-67.8713 203.319,-73.4805"/>
<polygon fill="midnightblue" stroke="midnightblue" points="202.555,-76.9052 213.139,-76.428 204.567,-70.2007 202.555,-76.9052"/>
</g>
<!-- Node5 -->
<g id="node5" class="node"><title>Node5</title>
<g id="a_node5"><a xlink:href="class_regexp_checker.html#a3f379e2420eacf52f91afce6e0ade9e4" target="_top" xlink:title="RegexpChecker::op_cat">
<polygon fill="white" stroke="black" points="175,-38.5 175,-57.5 296,-57.5 296,-38.5 175,-38.5"/>
<text text-anchor="middle" x="235.5" y="-45.5" font-family="Helvetica,sans-Serif" font-size="10.00">RegexpChecker::op_cat</text>
</a>
</g>
</g>
<!-- Node1&#45;&gt;Node5 -->
<g id="edge5" class="edge"><title>Node1&#45;&gt;Node5</title>
<path fill="none" stroke="midnightblue" d="M134.284,-41.3762C144.35,-41.2246 154.762,-41.2096 164.896,-41.3313"/>
<polygon fill="midnightblue" stroke="midnightblue" points="164.858,-44.831 174.915,-41.4985 164.975,-37.832 164.858,-44.831"/>
</g>
<!-- Node6 -->
<g id="node6" class="node"><title>Node6</title>
<g id="a_node6"><a xlink:href="class_regexp_checker.html#a5a34d99e02dba23757f33ce8107a961d" target="_top" xlink:title="RegexpChecker::op_iter">
<polygon fill="white" stroke="black" points="175,-0.5 175,-19.5 296,-19.5 296,-0.5 175,-0.5"/>
<text text-anchor="middle" x="235.5" y="-7.5" font-family="Helvetica,sans-Serif" font-size="10.00">RegexpChecker::op_iter</text>
</a>
</g>
</g>
<!-- Node1&#45;&gt;Node6 -->
<g id="edge8" class="edge"><title>Node1&#45;&gt;Node6</title>
<path fill="none" stroke="midnightblue" d="M89.4261,-38.4076C108.591,-32.3956 137.77,-25.0809 164.947,-19.2059"/>
<polygon fill="midnightblue" stroke="midnightblue" points="165.787,-22.6056 174.846,-17.1117 164.338,-15.7572 165.787,-22.6056"/>
</g>
<!-- Node3&#45;&gt;Node1 -->
<g id="edge3" class="edge"><title>Node3&#45;&gt;Node1</title>
<path fill="none" stroke="midnightblue" d="M169.705,-77.8123C145.454,-72.6768 119.003,-66.2404 99.1562,-60.5125"/>
<polygon fill="midnightblue" stroke="midnightblue" points="100.01,-57.1146 89.4261,-57.5924 97.998,-63.8192 100.01,-57.1146"/>
</g>
<!-- Node4 -->
<g id="node4" class="node"><title>Node4</title>
<g id="a_node4"><a xlink:href="class_regexp_checker.html#adf00606a82e27c614122d001f21f9f96" target="_top" xlink:title="Пропускает текущую операцию ">
<polygon fill="white" stroke="black" points="337,-38.5 337,-57.5 462,-57.5 462,-38.5 337,-38.5"/>
<text text-anchor="middle" x="399.5" y="-45.5" font-family="Helvetica,sans-Serif" font-size="10.00">RegexpChecker::skip_op</text>
</a>
</g>
</g>
<!-- Node3&#45;&gt;Node4 -->
<g id="edge4" class="edge"><title>Node3&#45;&gt;Node4</title>
<path fill="none" stroke="midnightblue" d="M277.379,-76.411C298.853,-71.3739 325.36,-65.1562 348.097,-59.8229"/>
<polygon fill="midnightblue" stroke="midnightblue" points="348.978,-63.2113 357.915,-57.5201 347.379,-56.3963 348.978,-63.2113"/>
</g>
<!-- Node5&#45;&gt;Node1 -->
<g id="edge6" class="edge"><title>Node5&#45;&gt;Node1</title>
<path fill="none" stroke="midnightblue" d="M174.915,-54.5015C165.035,-54.7143 154.669,-54.7904 144.442,-54.7299"/>
<polygon fill="midnightblue" stroke="midnightblue" points="144.32,-51.2285 134.284,-54.6238 144.246,-58.2281 144.32,-51.2285"/>
</g>
<!-- Node5&#45;&gt;Node4 -->
<g id="edge7" class="edge"><title>Node5&#45;&gt;Node4</title>
<path fill="none" stroke="midnightblue" d="M296.363,-48C306.3,-48 316.693,-48 326.886,-48"/>
<polygon fill="midnightblue" stroke="midnightblue" points="326.987,-51.5001 336.987,-48 326.987,-44.5001 326.987,-51.5001"/>
</g>
<!-- Node6&#45;&gt;Node1 -->
<g id="edge10" class="edge"><title>Node6&#45;&gt;Node1</title>
<path fill="none" stroke="midnightblue" d="M213.139,-19.572C195.541,-25.0963 169.468,-31.7242 144.256,-37.325"/>
<polygon fill="midnightblue" stroke="midnightblue" points="143.31,-33.9488 134.284,-39.496 144.799,-40.7886 143.31,-33.9488"/>
</g>
<!-- Node6&#45;&gt;Node4 -->
<g id="edge9" class="edge"><title>Node6&#45;&gt;Node4</title>
<path fill="none" stroke="midnightblue" d="M277.379,-19.589C298.853,-24.6261 325.36,-30.8438 348.097,-36.1771"/>
<polygon fill="midnightblue" stroke="midnightblue" points="347.379,-39.6037 357.915,-38.4799 348.978,-32.7887 347.379,-39.6037"/>
</g>
</g>
</svg>
