<?xml version="1.0" encoding="UTF-8" standalone="no"?>
<!DOCTYPE svg PUBLIC "-//W3C//DTD SVG 1.1//EN"
 "http://www.w3.org/Graphics/SVG/1.1/DTD/svg11.dtd">
<!-- Generated by graphviz version 2.38.0 (20140413.2041)
 -->
<!-- Title: SyntaxAnalyzer::analyze Pages: 1 -->
<svg width="439pt" height="104pt"
 viewBox="0.00 0.00 439.00 104.00" xmlns="http://www.w3.org/2000/svg" xmlns:xlink="http://www.w3.org/1999/xlink">
<g id="graph0" class="graph" transform="scale(1 1) rotate(0) translate(4 100)">
<title>SyntaxAnalyzer::analyze</title>
<polygon fill="white" stroke="none" points="-4,4 -4,-100 435,-100 435,4 -4,4"/>
<!-- Node1 -->
<g id="node1" class="node"><title>Node1</title>
<polygon fill="#bfbfbf" stroke="black" points="0,-38.5 0,-57.5 125,-57.5 125,-38.5 0,-38.5"/>
<text text-anchor="middle" x="62.5" y="-45.5" font-family="Helvetica,sans-Serif" font-size="10.00">SyntaxAnalyzer::analyze</text>
</g>
<!-- Node2 -->
<g id="node2" class="node"><title>Node2</title>
<g id="a_node2"><a xlink:href="class_syntax_analyzer.html#a76c8c49d5154b9b48b11d241577420e4" target="_top" xlink:title="Инициализирует анализатор ">
<polygon fill="white" stroke="black" points="161,-76.5 161,-95.5 265,-95.5 265,-76.5 161,-76.5"/>
<text text-anchor="middle" x="213" y="-83.5" font-family="Helvetica,sans-Serif" font-size="10.00">SyntaxAnalyzer::init</text>
</a>
</g>
</g>
<!-- Node1&#45;&gt;Node2 -->
<g id="edge1" class="edge"><title>Node1&#45;&gt;Node2</title>
<path fill="none" stroke="midnightblue" d="M100.973,-57.589C120.392,-62.5583 144.302,-68.6767 164.954,-73.9613"/>
<polygon fill="midnightblue" stroke="midnightblue" points="164.241,-77.3916 174.797,-76.4799 165.976,-70.6101 164.241,-77.3916"/>
</g>
<!-- Node3 -->
<g id="node3" class="node"><title>Node3</title>
<g id="a_node3"><a xlink:href="class_syntax_analyzer.html#a1b42fab3f30284bf29a7eff2f3e8382f" target="_top" xlink:title="SyntaxAnalyzer::E">
<polygon fill="white" stroke="black" points="164,-0.5 164,-19.5 262,-19.5 262,-0.5 164,-0.5"/>
<text text-anchor="middle" x="213" y="-7.5" font-family="Helvetica,sans-Serif" font-size="10.00">SyntaxAnalyzer::E</text>
</a>
</g>
</g>
<!-- Node1&#45;&gt;Node3 -->
<g id="edge2" class="edge"><title>Node1&#45;&gt;Node3</title>
<path fill="none" stroke="midnightblue" d="M100.973,-38.411C120.392,-33.4417 144.302,-27.3233 164.954,-22.0387"/>
<polygon fill="midnightblue" stroke="midnightblue" points="165.976,-25.3899 174.797,-19.5201 164.241,-18.6084 165.976,-25.3899"/>
</g>
<!-- Node4 -->
<g id="node4" class="node"><title>Node4</title>
<g id="a_node4"><a xlink:href="class_syntax_analyzer.html#aea363db29fd359d98711018d377f3301" target="_top" xlink:title="SyntaxAnalyzer::flush_buf">
<polygon fill="white" stroke="black" points="301,-38.5 301,-57.5 431,-57.5 431,-38.5 301,-38.5"/>
<text text-anchor="middle" x="366" y="-45.5" font-family="Helvetica,sans-Serif" font-size="10.00">SyntaxAnalyzer::flush_buf</text>
</a>
</g>
</g>
<!-- Node1&#45;&gt;Node4 -->
<g id="edge5" class="edge"><title>Node1&#45;&gt;Node4</title>
<path fill="none" stroke="midnightblue" d="M125.241,-48C173.11,-48 239.635,-48 290.469,-48"/>
<polygon fill="midnightblue" stroke="midnightblue" points="290.741,-51.5001 300.741,-48 290.741,-44.5001 290.741,-51.5001"/>
</g>
<!-- Node3&#45;&gt;Node4 -->
<g id="edge3" class="edge"><title>Node3&#45;&gt;Node4</title>
<path fill="none" stroke="midnightblue" d="M252.104,-19.589C271.94,-24.5809 296.384,-30.7324 317.448,-36.0334"/>
<polygon fill="midnightblue" stroke="midnightblue" points="316.618,-39.4336 327.17,-38.4799 318.327,-32.6452 316.618,-39.4336"/>
</g>
<!-- Node5 -->
<g id="node5" class="node"><title>Node5</title>
<g id="a_node5"><a xlink:href="class_syntax_analyzer.html#a7a94734bb42224681a23045c45cd9ca3" target="_top" xlink:title="SyntaxAnalyzer::O">
<polygon fill="white" stroke="black" points="316.5,-0.5 316.5,-19.5 415.5,-19.5 415.5,-0.5 316.5,-0.5"/>
<text text-anchor="middle" x="366" y="-7.5" font-family="Helvetica,sans-Serif" font-size="10.00">SyntaxAnalyzer::O</text>
</a>
</g>
</g>
<!-- Node3&#45;&gt;Node5 -->
<g id="edge4" class="edge"><title>Node3&#45;&gt;Node5</title>
<path fill="none" stroke="midnightblue" d="M262.193,-10C276.153,-10 291.552,-10 306.089,-10"/>
<polygon fill="midnightblue" stroke="midnightblue" points="306.488,-13.5001 316.488,-10 306.488,-6.5001 306.488,-13.5001"/>
</g>
</g>
</svg>
