<?xml version="1.0" encoding="UTF-8" standalone="no"?>
<!DOCTYPE svg PUBLIC "-//W3C//DTD SVG 1.1//EN"
 "http://www.w3.org/Graphics/SVG/1.1/DTD/svg11.dtd">
<!-- Generated by graphviz version 2.38.0 (20140413.2041)
 -->
<!-- Title: SyntaxAnalyzer::flush_buf Pages: 1 -->
<svg width="558pt" height="47pt"
 viewBox="0.00 0.00 558.00 47.00" xmlns="http://www.w3.org/2000/svg" xmlns:xlink="http://www.w3.org/1999/xlink">
<g id="graph0" class="graph" transform="scale(1 1) rotate(0) translate(4 43)">
<title>SyntaxAnalyzer::flush_buf</title>
<polygon fill="white" stroke="none" points="-4,4 -4,-43 554,-43 554,4 -4,4"/>
<!-- Node1 -->
<g id="node1" class="node"><title>Node1</title>
<polygon fill="#bfbfbf" stroke="black" points="0,-0.5 0,-19.5 130,-19.5 130,-0.5 0,-0.5"/>
<text text-anchor="middle" x="65" y="-7.5" font-family="Helvetica,sans-Serif" font-size="10.00">SyntaxAnalyzer::flush_buf</text>
</g>
<!-- Node2 -->
<g id="node2" class="node"><title>Node2</title>
<g id="a_node2"><a xlink:href="class_syntax_analyzer.html#a1b42fab3f30284bf29a7eff2f3e8382f" target="_top" xlink:title="SyntaxAnalyzer::E">
<polygon fill="white" stroke="black" points="166,-19.5 166,-38.5 264,-38.5 264,-19.5 166,-19.5"/>
<text text-anchor="middle" x="215" y="-26.5" font-family="Helvetica,sans-Serif" font-size="10.00">SyntaxAnalyzer::E</text>
</a>
</g>
</g>
<!-- Node1&#45;&gt;Node2 -->
<g id="edge1" class="edge"><title>Node1&#45;&gt;Node2</title>
<path fill="none" stroke="midnightblue" d="M139.977,-19.497C148.789,-20.6283 157.602,-21.7597 165.915,-22.8269"/>
<polygon fill="midnightblue" stroke="midnightblue" points="140.418,-16.0251 130.054,-18.2232 139.527,-22.9681 140.418,-16.0251"/>
</g>
<!-- Node3 -->
<g id="node3" class="node"><title>Node3</title>
<g id="a_node3"><a xlink:href="class_syntax_analyzer.html#a04fbf355b2afe30ef814048ecb029cf2" target="_top" xlink:title="SyntaxAnalyzer::analyze">
<polygon fill="white" stroke="black" points="300,-0.5 300,-19.5 425,-19.5 425,-0.5 300,-0.5"/>
<text text-anchor="middle" x="362.5" y="-7.5" font-family="Helvetica,sans-Serif" font-size="10.00">SyntaxAnalyzer::analyze</text>
</a>
</g>
</g>
<!-- Node1&#45;&gt;Node3 -->
<g id="edge4" class="edge"><title>Node1&#45;&gt;Node3</title>
<path fill="none" stroke="midnightblue" d="M140.389,-10C189.608,-10 253.382,-10 299.783,-10"/>
<polygon fill="midnightblue" stroke="midnightblue" points="140.119,-6.5001 130.119,-10 140.119,-13.5001 140.119,-6.5001"/>
</g>
<!-- Node2&#45;&gt;Node3 -->
<g id="edge2" class="edge"><title>Node2&#45;&gt;Node3</title>
<path fill="none" stroke="midnightblue" d="M274.15,-21.4065C282.572,-20.3068 291.265,-19.1716 299.754,-18.0631"/>
<polygon fill="midnightblue" stroke="midnightblue" points="273.508,-17.9606 264.045,-22.726 274.414,-24.9016 273.508,-17.9606"/>
</g>
<!-- Node4 -->
<g id="node4" class="node"><title>Node4</title>
<g id="a_node4"><a xlink:href="class_regexp.html#abde3553b9033fd74f944dba8cdb6b9ea" target="_top" xlink:title="Regexp::Regexp">
<polygon fill="white" stroke="black" points="461,-0.5 461,-19.5 550,-19.5 550,-0.5 461,-0.5"/>
<text text-anchor="middle" x="505.5" y="-7.5" font-family="Helvetica,sans-Serif" font-size="10.00">Regexp::Regexp</text>
</a>
</g>
</g>
<!-- Node3&#45;&gt;Node4 -->
<g id="edge3" class="edge"><title>Node3&#45;&gt;Node4</title>
<path fill="none" stroke="midnightblue" d="M435.508,-10C444.18,-10 452.822,-10 460.908,-10"/>
<polygon fill="midnightblue" stroke="midnightblue" points="435.345,-6.5001 425.345,-10 435.345,-13.5001 435.345,-6.5001"/>
</g>
</g>
</svg>
