<?xml version="1.0" encoding="UTF-8" standalone="no"?>
<!DOCTYPE svg PUBLIC "-//W3C//DTD SVG 1.1//EN"
 "http://www.w3.org/Graphics/SVG/1.1/DTD/svg11.dtd">
<!-- Generated by graphviz version 2.38.0 (20140413.2041)
 -->
<!-- Title: RegexpChecker::check_op Pages: 1 -->
<svg width="561pt" height="161pt"
 viewBox="0.00 0.00 561.00 161.00" xmlns="http://www.w3.org/2000/svg" xmlns:xlink="http://www.w3.org/1999/xlink">
<g id="graph0" class="graph" transform="scale(1 1) rotate(0) translate(4 157)">
<title>RegexpChecker::check_op</title>
<polygon fill="white" stroke="none" points="-4,4 -4,-157 557,-157 557,4 -4,4"/>
<!-- Node1 -->
<g id="node1" class="node"><title>Node1</title>
<polygon fill="#bfbfbf" stroke="black" points="0,-38.5 0,-57.5 134,-57.5 134,-38.5 0,-38.5"/>
<text text-anchor="middle" x="67" y="-45.5" font-family="Helvetica,sans-Serif" font-size="10.00">RegexpChecker::check_op</text>
</g>
<!-- Node2 -->
<g id="node2" class="node"><title>Node2</title>
<g id="a_node2"><a xlink:href="class_regexp_checker.html#a58d9c7c69c53ef18fa6ddb6a2c4bf24f" target="_top" xlink:title="RegexpChecker::check">
<polygon fill="white" stroke="black" points="176.5,-114.5 176.5,-133.5 294.5,-133.5 294.5,-114.5 176.5,-114.5"/>
<text text-anchor="middle" x="235.5" y="-121.5" font-family="Helvetica,sans-Serif" font-size="10.00">RegexpChecker::check</text>
</a>
</g>
</g>
<!-- Node1&#45;&gt;Node2 -->
<g id="edge1" class="edge"><title>Node1&#45;&gt;Node2</title>
<path fill="none" stroke="midnightblue" d="M91.195,-62.9362C111.394,-75.4549 141.784,-93.1357 170,-105 178.501,-108.575 187.898,-111.752 196.828,-114.438"/>
<polygon fill="midnightblue" stroke="midnightblue" points="93.0063,-59.9407 82.6762,-57.587 89.2838,-65.8689 93.0063,-59.9407"/>
</g>
<!-- Node7 -->
<g id="node7" class="node"><title>Node7</title>
<g id="a_node7"><a xlink:href="class_regexp_checker.html#aa775725022ae645c6d8f12633aa3a3d4" target="_top" xlink:title="RegexpChecker::op_enum">
<polygon fill="white" stroke="black" points="170,-76.5 170,-95.5 301,-95.5 301,-76.5 170,-76.5"/>
<text text-anchor="middle" x="235.5" y="-83.5" font-family="Helvetica,sans-Serif" font-size="10.00">RegexpChecker::op_enum</text>
</a>
</g>
</g>
<!-- Node1&#45;&gt;Node7 -->
<g id="edge8" class="edge"><title>Node1&#45;&gt;Node7</title>
<path fill="none" stroke="midnightblue" d="M144.256,-58.675C169.468,-64.2758 195.541,-70.9037 213.139,-76.428"/>
<polygon fill="midnightblue" stroke="midnightblue" points="144.799,-55.2114 134.284,-56.504 143.31,-62.0512 144.799,-55.2114"/>
</g>
<!-- Node8 -->
<g id="node8" class="node"><title>Node8</title>
<g id="a_node8"><a xlink:href="class_regexp_checker.html#a3f379e2420eacf52f91afce6e0ade9e4" target="_top" xlink:title="RegexpChecker::op_cat">
<polygon fill="white" stroke="black" points="175,-38.5 175,-57.5 296,-57.5 296,-38.5 175,-38.5"/>
<text text-anchor="middle" x="235.5" y="-45.5" font-family="Helvetica,sans-Serif" font-size="10.00">RegexpChecker::op_cat</text>
</a>
</g>
</g>
<!-- Node1&#45;&gt;Node8 -->
<g id="edge10" class="edge"><title>Node1&#45;&gt;Node8</title>
<path fill="none" stroke="midnightblue" d="M144.442,-41.2701C154.669,-41.2096 165.035,-41.2857 174.915,-41.4985"/>
<polygon fill="midnightblue" stroke="midnightblue" points="144.246,-37.7719 134.284,-41.3762 144.32,-44.7715 144.246,-37.7719"/>
</g>
<!-- Node9 -->
<g id="node9" class="node"><title>Node9</title>
<g id="a_node9"><a xlink:href="class_regexp_checker.html#a5a34d99e02dba23757f33ce8107a961d" target="_top" xlink:title="RegexpChecker::op_iter">
<polygon fill="white" stroke="black" points="175,-0.5 175,-19.5 296,-19.5 296,-0.5 175,-0.5"/>
<text text-anchor="middle" x="235.5" y="-7.5" font-family="Helvetica,sans-Serif" font-size="10.00">RegexpChecker::op_iter</text>
</a>
</g>
</g>
<!-- Node1&#45;&gt;Node9 -->
<g id="edge12" class="edge"><title>Node1&#45;&gt;Node9</title>
<path fill="none" stroke="midnightblue" d="M99.2058,-35.4732C120.461,-29.3412 149.272,-22.3994 174.846,-17.1117"/>
<polygon fill="midnightblue" stroke="midnightblue" points="97.9983,-32.1813 89.4261,-38.4076 100.01,-38.886 97.9983,-32.1813"/>
</g>
<!-- Node3 -->
<g id="node3" class="node"><title>Node3</title>
<g id="a_node3"><a xlink:href="class_regexp.html#a7869806d5707d47742db7ad5129b6585" target="_top" xlink:title="Regexp::match">
<polygon fill="white" stroke="black" points="338,-133.5 338,-152.5 421,-152.5 421,-133.5 338,-133.5"/>
<text text-anchor="middle" x="379.5" y="-140.5" font-family="Helvetica,sans-Serif" font-size="10.00">Regexp::match</text>
</a>
</g>
</g>
<!-- Node2&#45;&gt;Node3 -->
<g id="edge2" class="edge"><title>Node2&#45;&gt;Node3</title>
<path fill="none" stroke="midnightblue" d="M304.879,-133.149C316.061,-134.645 327.33,-136.153 337.574,-137.524"/>
<polygon fill="midnightblue" stroke="midnightblue" points="305.042,-129.64 294.667,-131.783 304.114,-136.578 305.042,-129.64"/>
</g>
<!-- Node6 -->
<g id="node6" class="node"><title>Node6</title>
<g id="a_node6"><a xlink:href="class_regexp.html#af7c296f94f7577ce0fa662c78268659e" target="_top" xlink:title="Regexp::search">
<polygon fill="white" stroke="black" points="337,-95.5 337,-114.5 422,-114.5 422,-95.5 337,-95.5"/>
<text text-anchor="middle" x="379.5" y="-102.5" font-family="Helvetica,sans-Serif" font-size="10.00">Regexp::search</text>
</a>
</g>
</g>
<!-- Node2&#45;&gt;Node6 -->
<g id="edge5" class="edge"><title>Node2&#45;&gt;Node6</title>
<path fill="none" stroke="midnightblue" d="M304.661,-114.88C315.603,-113.416 326.636,-111.94 336.717,-110.591"/>
<polygon fill="midnightblue" stroke="midnightblue" points="304.114,-111.422 294.667,-116.217 305.042,-118.36 304.114,-111.422"/>
</g>
<!-- Node4 -->
<g id="node4" class="node"><title>Node4</title>
<g id="a_node4"><a xlink:href="main_8cpp.html#a3c04138a5bfe5d72780bb7e82a18e627" target="_top" xlink:title="main">
<polygon fill="white" stroke="black" points="486.5,-133.5 486.5,-152.5 524.5,-152.5 524.5,-133.5 486.5,-133.5"/>
<text text-anchor="middle" x="505.5" y="-140.5" font-family="Helvetica,sans-Serif" font-size="10.00">main</text>
</a>
</g>
</g>
<!-- Node3&#45;&gt;Node4 -->
<g id="edge3" class="edge"><title>Node3&#45;&gt;Node4</title>
<path fill="none" stroke="midnightblue" d="M431.144,-143C450.702,-143 471.821,-143 486.353,-143"/>
<polygon fill="midnightblue" stroke="midnightblue" points="431.102,-139.5 421.102,-143 431.102,-146.5 431.102,-139.5"/>
</g>
<!-- Node5 -->
<g id="node5" class="node"><title>Node5</title>
<g id="a_node5"><a xlink:href="class_regexp.html#ada3dfc1370864a39089592fbe27ef19d" target="_top" xlink:title="Regexp::~Regexp">
<polygon fill="white" stroke="black" points="458,-95.5 458,-114.5 553,-114.5 553,-95.5 458,-95.5"/>
<text text-anchor="middle" x="505.5" y="-102.5" font-family="Helvetica,sans-Serif" font-size="10.00">Regexp::~Regexp</text>
</a>
</g>
</g>
<!-- Node3&#45;&gt;Node5 -->
<g id="edge4" class="edge"><title>Node3&#45;&gt;Node5</title>
<path fill="none" stroke="midnightblue" d="M421.405,-130.465C438.273,-125.295 457.508,-119.401 473.22,-114.586"/>
<polygon fill="midnightblue" stroke="midnightblue" points="420.326,-127.135 411.79,-133.411 422.377,-133.827 420.326,-127.135"/>
</g>
<!-- Node6&#45;&gt;Node4 -->
<g id="edge6" class="edge"><title>Node6&#45;&gt;Node4</title>
<path fill="none" stroke="midnightblue" d="M421.538,-117.576C443.462,-124.295 469.349,-132.228 486.303,-137.424"/>
<polygon fill="midnightblue" stroke="midnightblue" points="422.377,-114.173 411.79,-114.589 420.326,-120.865 422.377,-114.173"/>
</g>
<!-- Node6&#45;&gt;Node5 -->
<g id="edge7" class="edge"><title>Node6&#45;&gt;Node5</title>
<path fill="none" stroke="midnightblue" d="M432.235,-105C440.656,-105 449.337,-105 457.633,-105"/>
<polygon fill="midnightblue" stroke="midnightblue" points="432.135,-101.5 422.135,-105 432.135,-108.5 432.135,-101.5"/>
</g>
<!-- Node7&#45;&gt;Node1 -->
<g id="edge9" class="edge"><title>Node7&#45;&gt;Node1</title>
<path fill="none" stroke="midnightblue" d="M159.931,-75.6985C134.231,-70.0275 107.417,-63.236 89.4261,-57.5924"/>
<polygon fill="midnightblue" stroke="midnightblue" points="159.191,-79.1193 169.705,-77.8123 160.671,-72.2775 159.191,-79.1193"/>
</g>
<!-- Node8&#45;&gt;Node1 -->
<g id="edge11" class="edge"><title>Node8&#45;&gt;Node1</title>
<path fill="none" stroke="midnightblue" d="M164.896,-54.6687C154.762,-54.7904 144.35,-54.7754 134.284,-54.6238"/>
<polygon fill="midnightblue" stroke="midnightblue" points="164.975,-58.168 174.915,-54.5015 164.858,-51.169 164.975,-58.168"/>
</g>
<!-- Node9&#45;&gt;Node1 -->
<g id="edge13" class="edge"><title>Node9&#45;&gt;Node1</title>
<path fill="none" stroke="midnightblue" d="M203.319,-22.5195C183.881,-28.1287 158.114,-34.4163 134.284,-39.496"/>
<polygon fill="midnightblue" stroke="midnightblue" points="204.567,-25.7993 213.139,-19.572 202.555,-19.0948 204.567,-25.7993"/>
</g>
</g>
</svg>
