<?xml version="1.0" encoding="UTF-8" standalone="no"?>
<!DOCTYPE svg PUBLIC "-//W3C//DTD SVG 1.1//EN"
 "http://www.w3.org/Graphics/SVG/1.1/DTD/svg11.dtd">
<!-- Generated by graphviz version 2.38.0 (20140413.2041)
 -->
<!-- Title: RegexpChecker::op_str Pages: 1 -->
<svg width="716pt" height="161pt"
 viewBox="0.00 0.00 716.00 161.00" xmlns="http://www.w3.org/2000/svg" xmlns:xlink="http://www.w3.org/1999/xlink">
<g id="graph0" class="graph" transform="scale(1 1) rotate(0) translate(4 157)">
<title>RegexpChecker::op_str</title>
<polygon fill="white" stroke="none" points="-4,4 -4,-157 712,-157 712,4 -4,4"/>
<!-- Node1 -->
<g id="node1" class="node"><title>Node1</title>
<polygon fill="#bfbfbf" stroke="black" points="0,-38.5 0,-57.5 119,-57.5 119,-38.5 0,-38.5"/>
<text text-anchor="middle" x="59.5" y="-45.5" font-family="Helvetica,sans-Serif" font-size="10.00">RegexpChecker::op_str</text>
</g>
<!-- Node2 -->
<g id="node2" class="node"><title>Node2</title>
<g id="a_node2"><a xlink:href="class_regexp_checker.html#a12a12dfe322def2c802afd2ebea0b75f" target="_top" xlink:title="RegexpChecker::check_op">
<polygon fill="white" stroke="black" points="155,-38.5 155,-57.5 289,-57.5 289,-38.5 155,-38.5"/>
<text text-anchor="middle" x="222" y="-45.5" font-family="Helvetica,sans-Serif" font-size="10.00">RegexpChecker::check_op</text>
</a>
</g>
</g>
<!-- Node1&#45;&gt;Node2 -->
<g id="edge1" class="edge"><title>Node1&#45;&gt;Node2</title>
<path fill="none" stroke="midnightblue" d="M129.495,-48C137.9,-48 146.472,-48 154.834,-48"/>
<polygon fill="midnightblue" stroke="midnightblue" points="129.353,-44.5001 119.353,-48 129.353,-51.5001 129.353,-44.5001"/>
</g>
<!-- Node3 -->
<g id="node3" class="node"><title>Node3</title>
<g id="a_node3"><a xlink:href="class_regexp_checker.html#a58d9c7c69c53ef18fa6ddb6a2c4bf24f" target="_top" xlink:title="RegexpChecker::check">
<polygon fill="white" stroke="black" points="331.5,-114.5 331.5,-133.5 449.5,-133.5 449.5,-114.5 331.5,-114.5"/>
<text text-anchor="middle" x="390.5" y="-121.5" font-family="Helvetica,sans-Serif" font-size="10.00">RegexpChecker::check</text>
</a>
</g>
</g>
<!-- Node2&#45;&gt;Node3 -->
<g id="edge2" class="edge"><title>Node2&#45;&gt;Node3</title>
<path fill="none" stroke="midnightblue" d="M246.195,-62.9362C266.394,-75.4549 296.784,-93.1357 325,-105 333.501,-108.575 342.898,-111.752 351.828,-114.438"/>
<polygon fill="midnightblue" stroke="midnightblue" points="248.006,-59.9407 237.676,-57.587 244.284,-65.8689 248.006,-59.9407"/>
</g>
<!-- Node8 -->
<g id="node8" class="node"><title>Node8</title>
<g id="a_node8"><a xlink:href="class_regexp_checker.html#aa775725022ae645c6d8f12633aa3a3d4" target="_top" xlink:title="RegexpChecker::op_enum">
<polygon fill="white" stroke="black" points="325,-76.5 325,-95.5 456,-95.5 456,-76.5 325,-76.5"/>
<text text-anchor="middle" x="390.5" y="-83.5" font-family="Helvetica,sans-Serif" font-size="10.00">RegexpChecker::op_enum</text>
</a>
</g>
</g>
<!-- Node2&#45;&gt;Node8 -->
<g id="edge9" class="edge"><title>Node2&#45;&gt;Node8</title>
<path fill="none" stroke="midnightblue" d="M299.256,-58.675C324.468,-64.2758 350.541,-70.9037 368.139,-76.428"/>
<polygon fill="midnightblue" stroke="midnightblue" points="299.799,-55.2114 289.284,-56.504 298.31,-62.0512 299.799,-55.2114"/>
</g>
<!-- Node9 -->
<g id="node9" class="node"><title>Node9</title>
<g id="a_node9"><a xlink:href="class_regexp_checker.html#a3f379e2420eacf52f91afce6e0ade9e4" target="_top" xlink:title="RegexpChecker::op_cat">
<polygon fill="white" stroke="black" points="330,-38.5 330,-57.5 451,-57.5 451,-38.5 330,-38.5"/>
<text text-anchor="middle" x="390.5" y="-45.5" font-family="Helvetica,sans-Serif" font-size="10.00">RegexpChecker::op_cat</text>
</a>
</g>
</g>
<!-- Node2&#45;&gt;Node9 -->
<g id="edge11" class="edge"><title>Node2&#45;&gt;Node9</title>
<path fill="none" stroke="midnightblue" d="M299.442,-41.2701C309.669,-41.2096 320.035,-41.2857 329.915,-41.4985"/>
<polygon fill="midnightblue" stroke="midnightblue" points="299.246,-37.7719 289.284,-41.3762 299.32,-44.7715 299.246,-37.7719"/>
</g>
<!-- Node10 -->
<g id="node10" class="node"><title>Node10</title>
<g id="a_node10"><a xlink:href="class_regexp_checker.html#a5a34d99e02dba23757f33ce8107a961d" target="_top" xlink:title="RegexpChecker::op_iter">
<polygon fill="white" stroke="black" points="330,-0.5 330,-19.5 451,-19.5 451,-0.5 330,-0.5"/>
<text text-anchor="middle" x="390.5" y="-7.5" font-family="Helvetica,sans-Serif" font-size="10.00">RegexpChecker::op_iter</text>
</a>
</g>
</g>
<!-- Node2&#45;&gt;Node10 -->
<g id="edge13" class="edge"><title>Node2&#45;&gt;Node10</title>
<path fill="none" stroke="midnightblue" d="M254.206,-35.4732C275.461,-29.3412 304.272,-22.3994 329.846,-17.1117"/>
<polygon fill="midnightblue" stroke="midnightblue" points="252.998,-32.1813 244.426,-38.4076 255.01,-38.886 252.998,-32.1813"/>
</g>
<!-- Node4 -->
<g id="node4" class="node"><title>Node4</title>
<g id="a_node4"><a xlink:href="class_regexp.html#a7869806d5707d47742db7ad5129b6585" target="_top" xlink:title="Regexp::match">
<polygon fill="white" stroke="black" points="493,-133.5 493,-152.5 576,-152.5 576,-133.5 493,-133.5"/>
<text text-anchor="middle" x="534.5" y="-140.5" font-family="Helvetica,sans-Serif" font-size="10.00">Regexp::match</text>
</a>
</g>
</g>
<!-- Node3&#45;&gt;Node4 -->
<g id="edge3" class="edge"><title>Node3&#45;&gt;Node4</title>
<path fill="none" stroke="midnightblue" d="M459.879,-133.149C471.061,-134.645 482.33,-136.153 492.574,-137.524"/>
<polygon fill="midnightblue" stroke="midnightblue" points="460.042,-129.64 449.667,-131.783 459.114,-136.578 460.042,-129.64"/>
</g>
<!-- Node7 -->
<g id="node7" class="node"><title>Node7</title>
<g id="a_node7"><a xlink:href="class_regexp.html#af7c296f94f7577ce0fa662c78268659e" target="_top" xlink:title="Regexp::search">
<polygon fill="white" stroke="black" points="492,-95.5 492,-114.5 577,-114.5 577,-95.5 492,-95.5"/>
<text text-anchor="middle" x="534.5" y="-102.5" font-family="Helvetica,sans-Serif" font-size="10.00">Regexp::search</text>
</a>
</g>
</g>
<!-- Node3&#45;&gt;Node7 -->
<g id="edge6" class="edge"><title>Node3&#45;&gt;Node7</title>
<path fill="none" stroke="midnightblue" d="M459.661,-114.88C470.603,-113.416 481.636,-111.94 491.717,-110.591"/>
<polygon fill="midnightblue" stroke="midnightblue" points="459.114,-111.422 449.667,-116.217 460.042,-118.36 459.114,-111.422"/>
</g>
<!-- Node5 -->
<g id="node5" class="node"><title>Node5</title>
<g id="a_node5"><a xlink:href="main_8cpp.html#a3c04138a5bfe5d72780bb7e82a18e627" target="_top" xlink:title="main">
<polygon fill="white" stroke="black" points="641.5,-133.5 641.5,-152.5 679.5,-152.5 679.5,-133.5 641.5,-133.5"/>
<text text-anchor="middle" x="660.5" y="-140.5" font-family="Helvetica,sans-Serif" font-size="10.00">main</text>
</a>
</g>
</g>
<!-- Node4&#45;&gt;Node5 -->
<g id="edge4" class="edge"><title>Node4&#45;&gt;Node5</title>
<path fill="none" stroke="midnightblue" d="M586.144,-143C605.702,-143 626.821,-143 641.353,-143"/>
<polygon fill="midnightblue" stroke="midnightblue" points="586.102,-139.5 576.102,-143 586.102,-146.5 586.102,-139.5"/>
</g>
<!-- Node6 -->
<g id="node6" class="node"><title>Node6</title>
<g id="a_node6"><a xlink:href="class_regexp.html#ada3dfc1370864a39089592fbe27ef19d" target="_top" xlink:title="Regexp::~Regexp">
<polygon fill="white" stroke="black" points="613,-95.5 613,-114.5 708,-114.5 708,-95.5 613,-95.5"/>
<text text-anchor="middle" x="660.5" y="-102.5" font-family="Helvetica,sans-Serif" font-size="10.00">Regexp::~Regexp</text>
</a>
</g>
</g>
<!-- Node4&#45;&gt;Node6 -->
<g id="edge5" class="edge"><title>Node4&#45;&gt;Node6</title>
<path fill="none" stroke="midnightblue" d="M576.405,-130.465C593.273,-125.295 612.508,-119.401 628.22,-114.586"/>
<polygon fill="midnightblue" stroke="midnightblue" points="575.326,-127.135 566.79,-133.411 577.377,-133.827 575.326,-127.135"/>
</g>
<!-- Node7&#45;&gt;Node5 -->
<g id="edge7" class="edge"><title>Node7&#45;&gt;Node5</title>
<path fill="none" stroke="midnightblue" d="M576.538,-117.576C598.462,-124.295 624.349,-132.228 641.303,-137.424"/>
<polygon fill="midnightblue" stroke="midnightblue" points="577.377,-114.173 566.79,-114.589 575.326,-120.865 577.377,-114.173"/>
</g>
<!-- Node7&#45;&gt;Node6 -->
<g id="edge8" class="edge"><title>Node7&#45;&gt;Node6</title>
<path fill="none" stroke="midnightblue" d="M587.235,-105C595.656,-105 604.337,-105 612.633,-105"/>
<polygon fill="midnightblue" stroke="midnightblue" points="587.135,-101.5 577.135,-105 587.135,-108.5 587.135,-101.5"/>
</g>
<!-- Node8&#45;&gt;Node2 -->
<g id="edge10" class="edge"><title>Node8&#45;&gt;Node2</title>
<path fill="none" stroke="midnightblue" d="M314.931,-75.6985C289.231,-70.0275 262.417,-63.236 244.426,-57.5924"/>
<polygon fill="midnightblue" stroke="midnightblue" points="314.191,-79.1193 324.705,-77.8123 315.671,-72.2775 314.191,-79.1193"/>
</g>
<!-- Node9&#45;&gt;Node2 -->
<g id="edge12" class="edge"><title>Node9&#45;&gt;Node2</title>
<path fill="none" stroke="midnightblue" d="M319.896,-54.6687C309.762,-54.7904 299.35,-54.7754 289.284,-54.6238"/>
<polygon fill="midnightblue" stroke="midnightblue" points="319.975,-58.168 329.915,-54.5015 319.858,-51.169 319.975,-58.168"/>
</g>
<!-- Node10&#45;&gt;Node2 -->
<g id="edge14" class="edge"><title>Node10&#45;&gt;Node2</title>
<path fill="none" stroke="midnightblue" d="M358.319,-22.5195C338.881,-28.1287 313.114,-34.4163 289.284,-39.496"/>
<polygon fill="midnightblue" stroke="midnightblue" points="359.567,-25.7993 368.139,-19.572 357.555,-19.0948 359.567,-25.7993"/>
</g>
</g>
</svg>
