<?xml version="1.0" encoding="UTF-8" standalone="no"?>
<!DOCTYPE svg PUBLIC "-//W3C//DTD SVG 1.1//EN"
 "http://www.w3.org/Graphics/SVG/1.1/DTD/svg11.dtd">
<!-- Generated by graphviz version 2.38.0 (20140413.2041)
 -->
<!-- Title: LexicalAnalyzer::analyze Pages: 1 -->
<svg width="299pt" height="66pt"
 viewBox="0.00 0.00 299.00 66.00" xmlns="http://www.w3.org/2000/svg" xmlns:xlink="http://www.w3.org/1999/xlink">
<g id="graph0" class="graph" transform="scale(1 1) rotate(0) translate(4 62)">
<title>LexicalAnalyzer::analyze</title>
<polygon fill="white" stroke="none" points="-4,4 -4,-62 295,-62 295,4 -4,4"/>
<!-- Node1 -->
<g id="node1" class="node"><title>Node1</title>
<polygon fill="#bfbfbf" stroke="black" points="0,-19.5 0,-38.5 125,-38.5 125,-19.5 0,-19.5"/>
<text text-anchor="middle" x="62.5" y="-26.5" font-family="Helvetica,sans-Serif" font-size="10.00">LexicalAnalyzer::analyze</text>
</g>
<!-- Node2 -->
<g id="node2" class="node"><title>Node2</title>
<g id="a_node2"><a xlink:href="class_lexical_analyzer.html#a24d338442e8205f00690565bd2157ebc" target="_top" xlink:title="LexicalAnalyzer::isspecial">
<polygon fill="white" stroke="black" points="161,-38.5 161,-57.5 291,-57.5 291,-38.5 161,-38.5"/>
<text text-anchor="middle" x="226" y="-45.5" font-family="Helvetica,sans-Serif" font-size="10.00">LexicalAnalyzer::isspecial</text>
</a>
</g>
</g>
<!-- Node1&#45;&gt;Node2 -->
<g id="edge1" class="edge"><title>Node1&#45;&gt;Node2</title>
<path fill="none" stroke="midnightblue" d="M125.017,-36.2373C133.474,-37.2322 142.23,-38.2624 150.884,-39.2805"/>
<polygon fill="midnightblue" stroke="midnightblue" points="150.631,-42.7748 160.972,-40.4672 151.449,-35.8227 150.631,-42.7748"/>
</g>
<!-- Node3 -->
<g id="node3" class="node"><title>Node3</title>
<g id="a_node3"><a xlink:href="class_lexical_analyzer.html#a9e124ea0dcdfccc94f17ecc99aac6206" target="_top" xlink:title="LexicalAnalyzer::is_num">
<polygon fill="white" stroke="black" points="164.5,-0.5 164.5,-19.5 287.5,-19.5 287.5,-0.5 164.5,-0.5"/>
<text text-anchor="middle" x="226" y="-7.5" font-family="Helvetica,sans-Serif" font-size="10.00">LexicalAnalyzer::is_num</text>
</a>
</g>
</g>
<!-- Node1&#45;&gt;Node3 -->
<g id="edge2" class="edge"><title>Node1&#45;&gt;Node3</title>
<path fill="none" stroke="midnightblue" d="M125.017,-21.7627C134.61,-20.6341 144.588,-19.4603 154.364,-18.3101"/>
<polygon fill="midnightblue" stroke="midnightblue" points="154.933,-21.7675 164.455,-17.1229 154.115,-14.8154 154.933,-21.7675"/>
</g>
</g>
</svg>
