<?xml version="1.0" encoding="UTF-8" standalone="no"?>
<!DOCTYPE svg PUBLIC "-//W3C//DTD SVG 1.1//EN"
 "http://www.w3.org/Graphics/SVG/1.1/DTD/svg11.dtd">
<!-- Generated by graphviz version 2.38.0 (20140413.2041)
 -->
<!-- Title: Regexp::~Regexp Pages: 1 -->
<svg width="876pt" height="142pt"
 viewBox="0.00 0.00 876.00 142.00" xmlns="http://www.w3.org/2000/svg" xmlns:xlink="http://www.w3.org/1999/xlink">
<g id="graph0" class="graph" transform="scale(1 1) rotate(0) translate(4 138)">
<title>Regexp::~Regexp</title>
<polygon fill="white" stroke="none" points="-4,4 -4,-138 872,-138 872,4 -4,4"/>
<!-- Node1 -->
<g id="node1" class="node"><title>Node1</title>
<polygon fill="#bfbfbf" stroke="black" points="0,-38.5 0,-57.5 95,-57.5 95,-38.5 0,-38.5"/>
<text text-anchor="middle" x="47.5" y="-45.5" font-family="Helvetica,sans-Serif" font-size="10.00">Regexp::~Regexp</text>
</g>
<!-- Node2 -->
<g id="node2" class="node"><title>Node2</title>
<g id="a_node2"><a xlink:href="class_regexp.html#a7869806d5707d47742db7ad5129b6585" target="_top" xlink:title="Regexp::match">
<polygon fill="white" stroke="black" points="132,-57.5 132,-76.5 215,-76.5 215,-57.5 132,-57.5"/>
<text text-anchor="middle" x="173.5" y="-64.5" font-family="Helvetica,sans-Serif" font-size="10.00">Regexp::match</text>
</a>
</g>
</g>
<!-- Node1&#45;&gt;Node2 -->
<g id="edge1" class="edge"><title>Node1&#45;&gt;Node2</title>
<path fill="none" stroke="midnightblue" d="M95.0258,-55.129C103.719,-56.461 112.846,-57.8595 121.662,-59.2102"/>
<polygon fill="midnightblue" stroke="midnightblue" points="121.408,-62.7121 131.823,-60.7672 122.468,-55.7929 121.408,-62.7121"/>
</g>
<!-- Node10 -->
<g id="node10" class="node"><title>Node10</title>
<g id="a_node10"><a xlink:href="class_regexp.html#af7c296f94f7577ce0fa662c78268659e" target="_top" xlink:title="Regexp::search">
<polygon fill="white" stroke="black" points="131,-19.5 131,-38.5 216,-38.5 216,-19.5 131,-19.5"/>
<text text-anchor="middle" x="173.5" y="-26.5" font-family="Helvetica,sans-Serif" font-size="10.00">Regexp::search</text>
</a>
</g>
</g>
<!-- Node1&#45;&gt;Node10 -->
<g id="edge14" class="edge"><title>Node1&#45;&gt;Node10</title>
<path fill="none" stroke="midnightblue" d="M95.0258,-40.871C103.331,-39.5984 112.033,-38.2651 120.481,-36.9707"/>
<polygon fill="midnightblue" stroke="midnightblue" points="121.261,-40.3921 130.615,-35.4178 120.2,-33.4729 121.261,-40.3921"/>
</g>
<!-- Node3 -->
<g id="node3" class="node"><title>Node3</title>
<g id="a_node3"><a xlink:href="class_regexp_checker.html#a58d9c7c69c53ef18fa6ddb6a2c4bf24f" target="_top" xlink:title="RegexpChecker::check">
<polygon fill="white" stroke="black" points="252,-38.5 252,-57.5 370,-57.5 370,-38.5 252,-38.5"/>
<text text-anchor="middle" x="311" y="-45.5" font-family="Helvetica,sans-Serif" font-size="10.00">RegexpChecker::check</text>
</a>
</g>
</g>
<!-- Node2&#45;&gt;Node3 -->
<g id="edge2" class="edge"><title>Node2&#45;&gt;Node3</title>
<path fill="none" stroke="midnightblue" d="M215.154,-61.2994C223.627,-60.1113 232.777,-58.8284 241.934,-57.5443"/>
<polygon fill="midnightblue" stroke="midnightblue" points="242.425,-61.0099 251.842,-56.155 241.452,-54.0777 242.425,-61.0099"/>
</g>
<!-- Node4 -->
<g id="node4" class="node"><title>Node4</title>
<g id="a_node4"><a xlink:href="class_regexp_checker.html#a12a12dfe322def2c802afd2ebea0b75f" target="_top" xlink:title="RegexpChecker::check_op">
<polygon fill="white" stroke="black" points="406,-38.5 406,-57.5 540,-57.5 540,-38.5 406,-38.5"/>
<text text-anchor="middle" x="473" y="-45.5" font-family="Helvetica,sans-Serif" font-size="10.00">RegexpChecker::check_op</text>
</a>
</g>
</g>
<!-- Node3&#45;&gt;Node4 -->
<g id="edge3" class="edge"><title>Node3&#45;&gt;Node4</title>
<path fill="none" stroke="midnightblue" d="M370.216,-48C378.565,-48 387.256,-48 395.887,-48"/>
<polygon fill="midnightblue" stroke="midnightblue" points="395.967,-51.5001 405.967,-48 395.967,-44.5001 395.967,-51.5001"/>
</g>
<!-- Node5 -->
<g id="node5" class="node"><title>Node5</title>
<g id="a_node5"><a xlink:href="class_regexp_checker.html#ad48539a0443212d78e32ff0a23918478" target="_top" xlink:title="RegexpChecker::op_str">
<polygon fill="white" stroke="black" points="582,-114.5 582,-133.5 701,-133.5 701,-114.5 582,-114.5"/>
<text text-anchor="middle" x="641.5" y="-121.5" font-family="Helvetica,sans-Serif" font-size="10.00">RegexpChecker::op_str</text>
</a>
</g>
</g>
<!-- Node4&#45;&gt;Node5 -->
<g id="edge4" class="edge"><title>Node4&#45;&gt;Node5</title>
<path fill="none" stroke="midnightblue" d="M488.676,-57.587C508.034,-69.9028 543.462,-91.3186 576,-105 581.446,-107.29 587.26,-109.417 593.083,-111.356"/>
<polygon fill="midnightblue" stroke="midnightblue" points="592.238,-114.76 602.828,-114.438 594.349,-108.086 592.238,-114.76"/>
</g>
<!-- Node6 -->
<g id="node6" class="node"><title>Node6</title>
<g id="a_node6"><a xlink:href="class_regexp_checker.html#aa775725022ae645c6d8f12633aa3a3d4" target="_top" xlink:title="RegexpChecker::op_enum">
<polygon fill="white" stroke="black" points="576,-76.5 576,-95.5 707,-95.5 707,-76.5 576,-76.5"/>
<text text-anchor="middle" x="641.5" y="-83.5" font-family="Helvetica,sans-Serif" font-size="10.00">RegexpChecker::op_enum</text>
</a>
</g>
</g>
<!-- Node4&#45;&gt;Node6 -->
<g id="edge5" class="edge"><title>Node4&#45;&gt;Node6</title>
<path fill="none" stroke="midnightblue" d="M540.284,-56.504C564.114,-61.5837 589.881,-67.8713 609.319,-73.4805"/>
<polygon fill="midnightblue" stroke="midnightblue" points="608.555,-76.9052 619.139,-76.428 610.567,-70.2007 608.555,-76.9052"/>
</g>
<!-- Node8 -->
<g id="node8" class="node"><title>Node8</title>
<g id="a_node8"><a xlink:href="class_regexp_checker.html#a3f379e2420eacf52f91afce6e0ade9e4" target="_top" xlink:title="RegexpChecker::op_cat">
<polygon fill="white" stroke="black" points="581,-38.5 581,-57.5 702,-57.5 702,-38.5 581,-38.5"/>
<text text-anchor="middle" x="641.5" y="-45.5" font-family="Helvetica,sans-Serif" font-size="10.00">RegexpChecker::op_cat</text>
</a>
</g>
</g>
<!-- Node4&#45;&gt;Node8 -->
<g id="edge8" class="edge"><title>Node4&#45;&gt;Node8</title>
<path fill="none" stroke="midnightblue" d="M540.284,-41.3762C550.35,-41.2246 560.762,-41.2096 570.896,-41.3313"/>
<polygon fill="midnightblue" stroke="midnightblue" points="570.858,-44.831 580.915,-41.4985 570.975,-37.832 570.858,-44.831"/>
</g>
<!-- Node9 -->
<g id="node9" class="node"><title>Node9</title>
<g id="a_node9"><a xlink:href="class_regexp_checker.html#a5a34d99e02dba23757f33ce8107a961d" target="_top" xlink:title="RegexpChecker::op_iter">
<polygon fill="white" stroke="black" points="581,-0.5 581,-19.5 702,-19.5 702,-0.5 581,-0.5"/>
<text text-anchor="middle" x="641.5" y="-7.5" font-family="Helvetica,sans-Serif" font-size="10.00">RegexpChecker::op_iter</text>
</a>
</g>
</g>
<!-- Node4&#45;&gt;Node9 -->
<g id="edge11" class="edge"><title>Node4&#45;&gt;Node9</title>
<path fill="none" stroke="midnightblue" d="M495.426,-38.4076C514.591,-32.3956 543.77,-25.0809 570.947,-19.2059"/>
<polygon fill="midnightblue" stroke="midnightblue" points="571.787,-22.6056 580.846,-17.1117 570.338,-15.7572 571.787,-22.6056"/>
</g>
<!-- Node6&#45;&gt;Node4 -->
<g id="edge6" class="edge"><title>Node6&#45;&gt;Node4</title>
<path fill="none" stroke="midnightblue" d="M575.705,-77.8123C551.454,-72.6768 525.003,-66.2404 505.156,-60.5125"/>
<polygon fill="midnightblue" stroke="midnightblue" points="506.01,-57.1146 495.426,-57.5924 503.998,-63.8192 506.01,-57.1146"/>
</g>
<!-- Node7 -->
<g id="node7" class="node"><title>Node7</title>
<g id="a_node7"><a xlink:href="class_regexp_checker.html#adf00606a82e27c614122d001f21f9f96" target="_top" xlink:title="Пропускает текущую операцию ">
<polygon fill="white" stroke="black" points="743,-38.5 743,-57.5 868,-57.5 868,-38.5 743,-38.5"/>
<text text-anchor="middle" x="805.5" y="-45.5" font-family="Helvetica,sans-Serif" font-size="10.00">RegexpChecker::skip_op</text>
</a>
</g>
</g>
<!-- Node6&#45;&gt;Node7 -->
<g id="edge7" class="edge"><title>Node6&#45;&gt;Node7</title>
<path fill="none" stroke="midnightblue" d="M683.379,-76.411C704.853,-71.3739 731.36,-65.1562 754.097,-59.8229"/>
<polygon fill="midnightblue" stroke="midnightblue" points="754.978,-63.2113 763.915,-57.5201 753.379,-56.3963 754.978,-63.2113"/>
</g>
<!-- Node8&#45;&gt;Node4 -->
<g id="edge9" class="edge"><title>Node8&#45;&gt;Node4</title>
<path fill="none" stroke="midnightblue" d="M580.915,-54.5015C571.035,-54.7143 560.669,-54.7904 550.442,-54.7299"/>
<polygon fill="midnightblue" stroke="midnightblue" points="550.32,-51.2285 540.284,-54.6238 550.246,-58.2281 550.32,-51.2285"/>
</g>
<!-- Node8&#45;&gt;Node7 -->
<g id="edge10" class="edge"><title>Node8&#45;&gt;Node7</title>
<path fill="none" stroke="midnightblue" d="M702.363,-48C712.3,-48 722.693,-48 732.886,-48"/>
<polygon fill="midnightblue" stroke="midnightblue" points="732.987,-51.5001 742.987,-48 732.987,-44.5001 732.987,-51.5001"/>
</g>
<!-- Node9&#45;&gt;Node4 -->
<g id="edge13" class="edge"><title>Node9&#45;&gt;Node4</title>
<path fill="none" stroke="midnightblue" d="M619.139,-19.572C601.541,-25.0963 575.468,-31.7242 550.256,-37.325"/>
<polygon fill="midnightblue" stroke="midnightblue" points="549.31,-33.9488 540.284,-39.496 550.799,-40.7886 549.31,-33.9488"/>
</g>
<!-- Node9&#45;&gt;Node7 -->
<g id="edge12" class="edge"><title>Node9&#45;&gt;Node7</title>
<path fill="none" stroke="midnightblue" d="M683.379,-19.589C704.853,-24.6261 731.36,-30.8438 754.097,-36.1771"/>
<polygon fill="midnightblue" stroke="midnightblue" points="753.379,-39.6037 763.915,-38.4799 754.978,-32.7887 753.379,-39.6037"/>
</g>
<!-- Node10&#45;&gt;Node3 -->
<g id="edge15" class="edge"><title>Node10&#45;&gt;Node3</title>
<path fill="none" stroke="midnightblue" d="M216.26,-34.8557C224.308,-35.9842 232.933,-37.1936 241.573,-38.405"/>
<polygon fill="midnightblue" stroke="midnightblue" points="241.299,-41.9008 251.688,-39.8234 242.271,-34.9686 241.299,-41.9008"/>
</g>
</g>
</svg>
