<?xml version="1.0" encoding="UTF-8" standalone="no"?>
<!DOCTYPE svg PUBLIC "-//W3C//DTD SVG 1.1//EN"
 "http://www.w3.org/Graphics/SVG/1.1/DTD/svg11.dtd">
<!-- Generated by graphviz version 2.38.0 (20140413.2041)
 -->
<!-- Title: RegexpChecker::skip_op Pages: 1 -->
<svg width="879pt" height="104pt"
 viewBox="0.00 0.00 879.00 104.00" xmlns="http://www.w3.org/2000/svg" xmlns:xlink="http://www.w3.org/1999/xlink">
<g id="graph0" class="graph" transform="scale(1 1) rotate(0) translate(4 100)">
<title>RegexpChecker::skip_op</title>
<polygon fill="white" stroke="none" points="-4,4 -4,-100 875,-100 875,4 -4,4"/>
<!-- Node1 -->
<g id="node1" class="node"><title>Node1</title>
<polygon fill="#bfbfbf" stroke="black" points="0,-38.5 0,-57.5 125,-57.5 125,-38.5 0,-38.5"/>
<text text-anchor="middle" x="62.5" y="-45.5" font-family="Helvetica,sans-Serif" font-size="10.00">RegexpChecker::skip_op</text>
</g>
<!-- Node2 -->
<g id="node2" class="node"><title>Node2</title>
<g id="a_node2"><a xlink:href="class_regexp_checker.html#aa775725022ae645c6d8f12633aa3a3d4" target="_top" xlink:title="RegexpChecker::op_enum">
<polygon fill="white" stroke="black" points="161,-38.5 161,-57.5 292,-57.5 292,-38.5 161,-38.5"/>
<text text-anchor="middle" x="226.5" y="-45.5" font-family="Helvetica,sans-Serif" font-size="10.00">RegexpChecker::op_enum</text>
</a>
</g>
</g>
<!-- Node1&#45;&gt;Node2 -->
<g id="edge1" class="edge"><title>Node1&#45;&gt;Node2</title>
<path fill="none" stroke="midnightblue" d="M135.404,-48C143.838,-48 152.405,-48 160.733,-48"/>
<polygon fill="midnightblue" stroke="midnightblue" points="135.207,-44.5001 125.207,-48 135.207,-51.5001 135.207,-44.5001"/>
</g>
<!-- Node9 -->
<g id="node9" class="node"><title>Node9</title>
<g id="a_node9"><a xlink:href="class_regexp_checker.html#a3f379e2420eacf52f91afce6e0ade9e4" target="_top" xlink:title="RegexpChecker::op_cat">
<polygon fill="white" stroke="black" points="498,-76.5 498,-95.5 619,-95.5 619,-76.5 498,-76.5"/>
<text text-anchor="middle" x="558.5" y="-83.5" font-family="Helvetica,sans-Serif" font-size="10.00">RegexpChecker::op_cat</text>
</a>
</g>
</g>
<!-- Node1&#45;&gt;Node9 -->
<g id="edge15" class="edge"><title>Node1&#45;&gt;Node9</title>
<path fill="none" stroke="midnightblue" d="M115.429,-59.5629C130.096,-62.4348 146.115,-65.2026 161,-67 279.878,-81.3548 420.035,-84.9764 497.826,-85.8218"/>
<polygon fill="midnightblue" stroke="midnightblue" points="116.016,-56.1109 105.522,-57.5688 114.634,-62.9733 116.016,-56.1109"/>
</g>
<!-- Node10 -->
<g id="node10" class="node"><title>Node10</title>
<g id="a_node10"><a xlink:href="class_regexp_checker.html#a5a34d99e02dba23757f33ce8107a961d" target="_top" xlink:title="RegexpChecker::op_iter">
<polygon fill="white" stroke="black" points="498,-0.5 498,-19.5 619,-19.5 619,-0.5 498,-0.5"/>
<text text-anchor="middle" x="558.5" y="-7.5" font-family="Helvetica,sans-Serif" font-size="10.00">RegexpChecker::op_iter</text>
</a>
</g>
</g>
<!-- Node1&#45;&gt;Node10 -->
<g id="edge16" class="edge"><title>Node1&#45;&gt;Node10</title>
<path fill="none" stroke="midnightblue" d="M115.429,-36.4371C130.096,-33.5652 146.115,-30.7974 161,-29 279.878,-14.6452 420.035,-11.0236 497.826,-10.1782"/>
<polygon fill="midnightblue" stroke="midnightblue" points="114.634,-33.0267 105.522,-38.4312 116.016,-39.8891 114.634,-33.0267"/>
</g>
<!-- Node3 -->
<g id="node3" class="node"><title>Node3</title>
<g id="a_node3"><a xlink:href="class_regexp_checker.html#a12a12dfe322def2c802afd2ebea0b75f" target="_top" xlink:title="RegexpChecker::check_op">
<polygon fill="white" stroke="black" points="328,-38.5 328,-57.5 462,-57.5 462,-38.5 328,-38.5"/>
<text text-anchor="middle" x="395" y="-45.5" font-family="Helvetica,sans-Serif" font-size="10.00">RegexpChecker::check_op</text>
</a>
</g>
</g>
<!-- Node2&#45;&gt;Node3 -->
<g id="edge2" class="edge"><title>Node2&#45;&gt;Node3</title>
<path fill="none" stroke="midnightblue" d="M302.589,-41.2789C311.049,-41.2188 319.623,-41.2524 327.956,-41.3798"/>
<polygon fill="midnightblue" stroke="midnightblue" points="302.308,-37.7819 292.35,-41.3987 302.39,-44.7814 302.308,-37.7819"/>
</g>
<!-- Node3&#45;&gt;Node2 -->
<g id="edge10" class="edge"><title>Node3&#45;&gt;Node2</title>
<path fill="none" stroke="midnightblue" d="M317.696,-54.7291C309.226,-54.7802 300.659,-54.7376 292.35,-54.6013"/>
<polygon fill="midnightblue" stroke="midnightblue" points="317.993,-58.2262 327.956,-54.6202 317.919,-51.2266 317.993,-58.2262"/>
</g>
<!-- Node4 -->
<g id="node4" class="node"><title>Node4</title>
<g id="a_node4"><a xlink:href="class_regexp_checker.html#a58d9c7c69c53ef18fa6ddb6a2c4bf24f" target="_top" xlink:title="RegexpChecker::check">
<polygon fill="white" stroke="black" points="499.5,-38.5 499.5,-57.5 617.5,-57.5 617.5,-38.5 499.5,-38.5"/>
<text text-anchor="middle" x="558.5" y="-45.5" font-family="Helvetica,sans-Serif" font-size="10.00">RegexpChecker::check</text>
</a>
</g>
</g>
<!-- Node3&#45;&gt;Node4 -->
<g id="edge3" class="edge"><title>Node3&#45;&gt;Node4</title>
<path fill="none" stroke="midnightblue" d="M472.382,-48C481.492,-48 490.675,-48 499.468,-48"/>
<polygon fill="midnightblue" stroke="midnightblue" points="472.154,-44.5001 462.154,-48 472.154,-51.5001 472.154,-44.5001"/>
</g>
<!-- Node3&#45;&gt;Node9 -->
<g id="edge11" class="edge"><title>Node3&#45;&gt;Node9</title>
<path fill="none" stroke="midnightblue" d="M471.977,-59.1374C495.872,-64.6545 520.326,-71.0938 536.931,-76.4767"/>
<polygon fill="midnightblue" stroke="midnightblue" points="472.68,-55.7081 462.154,-56.9147 471.135,-62.5355 472.68,-55.7081"/>
</g>
<!-- Node3&#45;&gt;Node10 -->
<g id="edge13" class="edge"><title>Node3&#45;&gt;Node10</title>
<path fill="none" stroke="midnightblue" d="M426.338,-35.4527C446.457,-29.4714 473.536,-22.7226 497.865,-17.4912"/>
<polygon fill="midnightblue" stroke="midnightblue" points="425.302,-32.1093 416.783,-38.4076 427.37,-38.7968 425.302,-32.1093"/>
</g>
<!-- Node5 -->
<g id="node5" class="node"><title>Node5</title>
<g id="a_node5"><a xlink:href="class_regexp.html#a7869806d5707d47742db7ad5129b6585" target="_top" xlink:title="Regexp::match">
<polygon fill="white" stroke="black" points="656,-57.5 656,-76.5 739,-76.5 739,-57.5 656,-57.5"/>
<text text-anchor="middle" x="697.5" y="-64.5" font-family="Helvetica,sans-Serif" font-size="10.00">Regexp::match</text>
</a>
</g>
</g>
<!-- Node4&#45;&gt;Node5 -->
<g id="edge4" class="edge"><title>Node4&#45;&gt;Node5</title>
<path fill="none" stroke="midnightblue" d="M627.595,-57.4439C637.221,-58.7788 646.857,-60.1152 655.743,-61.3476"/>
<polygon fill="midnightblue" stroke="midnightblue" points="627.986,-53.9647 617.6,-56.0577 627.025,-60.8983 627.986,-53.9647"/>
</g>
<!-- Node8 -->
<g id="node8" class="node"><title>Node8</title>
<g id="a_node8"><a xlink:href="class_regexp.html#af7c296f94f7577ce0fa662c78268659e" target="_top" xlink:title="Regexp::search">
<polygon fill="white" stroke="black" points="655,-19.5 655,-38.5 740,-38.5 740,-19.5 655,-19.5"/>
<text text-anchor="middle" x="697.5" y="-26.5" font-family="Helvetica,sans-Serif" font-size="10.00">Regexp::search</text>
</a>
</g>
</g>
<!-- Node4&#45;&gt;Node8 -->
<g id="edge7" class="edge"><title>Node4&#45;&gt;Node8</title>
<path fill="none" stroke="midnightblue" d="M627.664,-38.5465C636.972,-37.2557 646.288,-35.9637 654.925,-34.7659"/>
<polygon fill="midnightblue" stroke="midnightblue" points="627.025,-35.1017 617.6,-39.9423 627.986,-42.0353 627.025,-35.1017"/>
</g>
<!-- Node6 -->
<g id="node6" class="node"><title>Node6</title>
<g id="a_node6"><a xlink:href="main_8cpp.html#a3c04138a5bfe5d72780bb7e82a18e627" target="_top" xlink:title="main">
<polygon fill="white" stroke="black" points="804.5,-57.5 804.5,-76.5 842.5,-76.5 842.5,-57.5 804.5,-57.5"/>
<text text-anchor="middle" x="823.5" y="-64.5" font-family="Helvetica,sans-Serif" font-size="10.00">main</text>
</a>
</g>
</g>
<!-- Node5&#45;&gt;Node6 -->
<g id="edge5" class="edge"><title>Node5&#45;&gt;Node6</title>
<path fill="none" stroke="midnightblue" d="M749.144,-67C768.702,-67 789.821,-67 804.353,-67"/>
<polygon fill="midnightblue" stroke="midnightblue" points="749.102,-63.5001 739.102,-67 749.102,-70.5001 749.102,-63.5001"/>
</g>
<!-- Node7 -->
<g id="node7" class="node"><title>Node7</title>
<g id="a_node7"><a xlink:href="class_regexp.html#ada3dfc1370864a39089592fbe27ef19d" target="_top" xlink:title="Regexp::~Regexp">
<polygon fill="white" stroke="black" points="776,-19.5 776,-38.5 871,-38.5 871,-19.5 776,-19.5"/>
<text text-anchor="middle" x="823.5" y="-26.5" font-family="Helvetica,sans-Serif" font-size="10.00">Regexp::~Regexp</text>
</a>
</g>
</g>
<!-- Node5&#45;&gt;Node7 -->
<g id="edge6" class="edge"><title>Node5&#45;&gt;Node7</title>
<path fill="none" stroke="midnightblue" d="M739.405,-54.4647C756.273,-49.2952 775.508,-43.4009 791.22,-38.5859"/>
<polygon fill="midnightblue" stroke="midnightblue" points="738.326,-51.1345 729.79,-57.411 740.377,-57.8273 738.326,-51.1345"/>
</g>
<!-- Node8&#45;&gt;Node6 -->
<g id="edge8" class="edge"><title>Node8&#45;&gt;Node6</title>
<path fill="none" stroke="midnightblue" d="M739.538,-41.5763C761.462,-48.2948 787.349,-56.228 804.303,-61.4236"/>
<polygon fill="midnightblue" stroke="midnightblue" points="740.377,-38.1727 729.79,-38.589 738.326,-44.8655 740.377,-38.1727"/>
</g>
<!-- Node8&#45;&gt;Node7 -->
<g id="edge9" class="edge"><title>Node8&#45;&gt;Node7</title>
<path fill="none" stroke="midnightblue" d="M750.235,-29C758.656,-29 767.337,-29 775.633,-29"/>
<polygon fill="midnightblue" stroke="midnightblue" points="750.135,-25.5001 740.135,-29 750.135,-32.5001 750.135,-25.5001"/>
</g>
<!-- Node9&#45;&gt;Node3 -->
<g id="edge12" class="edge"><title>Node9&#45;&gt;Node3</title>
<path fill="none" stroke="midnightblue" d="M488.078,-76.3561C462.282,-70.5585 434.913,-63.4559 416.783,-57.5924"/>
<polygon fill="midnightblue" stroke="midnightblue" points="487.347,-79.7788 497.865,-78.5088 488.851,-72.9422 487.347,-79.7788"/>
</g>
<!-- Node10&#45;&gt;Node3 -->
<g id="edge14" class="edge"><title>Node10&#45;&gt;Node3</title>
<path fill="none" stroke="midnightblue" d="M527.378,-22.4832C509.013,-27.9514 484.792,-34.0689 462.154,-39.0853"/>
<polygon fill="midnightblue" stroke="midnightblue" points="528.415,-25.8262 536.931,-19.5233 526.343,-19.1398 528.415,-25.8262"/>
</g>
</g>
</svg>
