<?xml version="1.0" encoding="UTF-8" standalone="no"?>
<!DOCTYPE svg PUBLIC "-//W3C//DTD SVG 1.1//EN"
 "http://www.w3.org/Graphics/SVG/1.1/DTD/svg11.dtd">
<!-- Generated by graphviz version 2.38.0 (20140413.2041)
 -->
<!-- Title: Regexp::Regexp Pages: 1 -->
<svg width="590pt" height="180pt"
 viewBox="0.00 0.00 590.00 180.00" xmlns="http://www.w3.org/2000/svg" xmlns:xlink="http://www.w3.org/1999/xlink">
<g id="graph0" class="graph" transform="scale(1 1) rotate(0) translate(4 176)">
<title>Regexp::Regexp</title>
<polygon fill="white" stroke="none" points="-4,4 -4,-176 586,-176 586,4 -4,4"/>
<!-- Node1 -->
<g id="node1" class="node"><title>Node1</title>
<polygon fill="#bfbfbf" stroke="black" points="0,-95.5 0,-114.5 89,-114.5 89,-95.5 0,-95.5"/>
<text text-anchor="middle" x="44.5" y="-102.5" font-family="Helvetica,sans-Serif" font-size="10.00">Regexp::Regexp</text>
</g>
<!-- Node2 -->
<g id="node2" class="node"><title>Node2</title>
<g id="a_node2"><a xlink:href="class_lexical_analyzer.html#afd35f07227fd40638e9d145ee6413640" target="_top" xlink:title="LexicalAnalyzer::analyze">
<polygon fill="white" stroke="black" points="125,-114.5 125,-133.5 250,-133.5 250,-114.5 125,-114.5"/>
<text text-anchor="middle" x="187.5" y="-121.5" font-family="Helvetica,sans-Serif" font-size="10.00">LexicalAnalyzer::analyze</text>
</a>
</g>
</g>
<!-- Node1&#45;&gt;Node2 -->
<g id="edge1" class="edge"><title>Node1&#45;&gt;Node2</title>
<path fill="none" stroke="midnightblue" d="M89.3404,-110.908C97.417,-111.996 106.041,-113.158 114.691,-114.324"/>
<polygon fill="midnightblue" stroke="midnightblue" points="114.449,-117.823 124.827,-115.689 115.384,-110.885 114.449,-117.823"/>
</g>
<!-- Node5 -->
<g id="node5" class="node"><title>Node5</title>
<g id="a_node5"><a xlink:href="class_syntax_analyzer.html#a04fbf355b2afe30ef814048ecb029cf2" target="_top" xlink:title="SyntaxAnalyzer::analyze">
<polygon fill="white" stroke="black" points="125,-57.5 125,-76.5 250,-76.5 250,-57.5 125,-57.5"/>
<text text-anchor="middle" x="187.5" y="-64.5" font-family="Helvetica,sans-Serif" font-size="10.00">SyntaxAnalyzer::analyze</text>
</a>
</g>
</g>
<!-- Node1&#45;&gt;Node5 -->
<g id="edge4" class="edge"><title>Node1&#45;&gt;Node5</title>
<path fill="none" stroke="midnightblue" d="M81.0803,-95.411C99.282,-90.5056 121.638,-84.4804 141.072,-79.2429"/>
<polygon fill="midnightblue" stroke="midnightblue" points="142.186,-82.5676 150.931,-76.5859 140.365,-75.8088 142.186,-82.5676"/>
</g>
<!-- Node3 -->
<g id="node3" class="node"><title>Node3</title>
<g id="a_node3"><a xlink:href="class_lexical_analyzer.html#a24d338442e8205f00690565bd2157ebc" target="_top" xlink:title="LexicalAnalyzer::isspecial">
<polygon fill="white" stroke="black" points="286,-152.5 286,-171.5 416,-171.5 416,-152.5 286,-152.5"/>
<text text-anchor="middle" x="351" y="-159.5" font-family="Helvetica,sans-Serif" font-size="10.00">LexicalAnalyzer::isspecial</text>
</a>
</g>
</g>
<!-- Node2&#45;&gt;Node3 -->
<g id="edge2" class="edge"><title>Node2&#45;&gt;Node3</title>
<path fill="none" stroke="midnightblue" d="M229.253,-133.589C250.661,-138.626 277.086,-144.844 299.753,-150.177"/>
<polygon fill="midnightblue" stroke="midnightblue" points="299.004,-153.596 309.54,-152.48 300.607,-146.783 299.004,-153.596"/>
</g>
<!-- Node4 -->
<g id="node4" class="node"><title>Node4</title>
<g id="a_node4"><a xlink:href="class_lexical_analyzer.html#a9e124ea0dcdfccc94f17ecc99aac6206" target="_top" xlink:title="LexicalAnalyzer::is_num">
<polygon fill="white" stroke="black" points="289.5,-114.5 289.5,-133.5 412.5,-133.5 412.5,-114.5 289.5,-114.5"/>
<text text-anchor="middle" x="351" y="-121.5" font-family="Helvetica,sans-Serif" font-size="10.00">LexicalAnalyzer::is_num</text>
</a>
</g>
</g>
<!-- Node2&#45;&gt;Node4 -->
<g id="edge3" class="edge"><title>Node2&#45;&gt;Node4</title>
<path fill="none" stroke="midnightblue" d="M250.017,-124C259.61,-124 269.588,-124 279.364,-124"/>
<polygon fill="midnightblue" stroke="midnightblue" points="279.455,-127.5 289.455,-124 279.455,-120.5 279.455,-127.5"/>
</g>
<!-- Node6 -->
<g id="node6" class="node"><title>Node6</title>
<g id="a_node6"><a xlink:href="class_syntax_analyzer.html#a76c8c49d5154b9b48b11d241577420e4" target="_top" xlink:title="Инициализирует анализатор ">
<polygon fill="white" stroke="black" points="299,-76.5 299,-95.5 403,-95.5 403,-76.5 299,-76.5"/>
<text text-anchor="middle" x="351" y="-83.5" font-family="Helvetica,sans-Serif" font-size="10.00">SyntaxAnalyzer::init</text>
</a>
</g>
</g>
<!-- Node5&#45;&gt;Node6 -->
<g id="edge5" class="edge"><title>Node5&#45;&gt;Node6</title>
<path fill="none" stroke="midnightblue" d="M250.017,-74.2373C262.748,-75.7351 276.156,-77.3125 288.873,-78.8086"/>
<polygon fill="midnightblue" stroke="midnightblue" points="288.557,-82.2955 298.898,-79.988 289.375,-75.3434 288.557,-82.2955"/>
</g>
<!-- Node7 -->
<g id="node7" class="node"><title>Node7</title>
<g id="a_node7"><a xlink:href="class_syntax_analyzer.html#a1b42fab3f30284bf29a7eff2f3e8382f" target="_top" xlink:title="SyntaxAnalyzer::E">
<polygon fill="white" stroke="black" points="302,-0.5 302,-19.5 400,-19.5 400,-0.5 302,-0.5"/>
<text text-anchor="middle" x="351" y="-7.5" font-family="Helvetica,sans-Serif" font-size="10.00">SyntaxAnalyzer::E</text>
</a>
</g>
</g>
<!-- Node5&#45;&gt;Node7 -->
<g id="edge6" class="edge"><title>Node5&#45;&gt;Node7</title>
<path fill="none" stroke="midnightblue" d="M215.531,-57.4595C242.316,-48.0062 283.531,-33.4598 313.272,-22.963"/>
<polygon fill="midnightblue" stroke="midnightblue" points="314.615,-26.2004 322.88,-19.5716 312.286,-19.5994 314.615,-26.2004"/>
</g>
<!-- Node8 -->
<g id="node8" class="node"><title>Node8</title>
<g id="a_node8"><a xlink:href="class_syntax_analyzer.html#aea363db29fd359d98711018d377f3301" target="_top" xlink:title="SyntaxAnalyzer::flush_buf">
<polygon fill="white" stroke="black" points="452,-38.5 452,-57.5 582,-57.5 582,-38.5 452,-38.5"/>
<text text-anchor="middle" x="517" y="-45.5" font-family="Helvetica,sans-Serif" font-size="10.00">SyntaxAnalyzer::flush_buf</text>
</a>
</g>
</g>
<!-- Node5&#45;&gt;Node8 -->
<g id="edge9" class="edge"><title>Node5&#45;&gt;Node8</title>
<path fill="none" stroke="midnightblue" d="M250.1,-63.4262C304.462,-60.2725 383.831,-55.6678 441.699,-52.3106"/>
<polygon fill="midnightblue" stroke="midnightblue" points="442.099,-55.7934 451.879,-51.72 441.693,-48.8051 442.099,-55.7934"/>
</g>
<!-- Node7&#45;&gt;Node8 -->
<g id="edge7" class="edge"><title>Node7&#45;&gt;Node8</title>
<path fill="none" stroke="midnightblue" d="M393.384,-19.589C415.123,-24.6261 441.957,-30.8438 464.975,-36.1771"/>
<polygon fill="midnightblue" stroke="midnightblue" points="464.381,-39.6323 474.913,-38.4799 465.962,-32.8129 464.381,-39.6323"/>
</g>
<!-- Node9 -->
<g id="node9" class="node"><title>Node9</title>
<g id="a_node9"><a xlink:href="class_syntax_analyzer.html#a7a94734bb42224681a23045c45cd9ca3" target="_top" xlink:title="SyntaxAnalyzer::O">
<polygon fill="white" stroke="black" points="467.5,-0.5 467.5,-19.5 566.5,-19.5 566.5,-0.5 467.5,-0.5"/>
<text text-anchor="middle" x="517" y="-7.5" font-family="Helvetica,sans-Serif" font-size="10.00">SyntaxAnalyzer::O</text>
</a>
</g>
</g>
<!-- Node7&#45;&gt;Node9 -->
<g id="edge8" class="edge"><title>Node7&#45;&gt;Node9</title>
<path fill="none" stroke="midnightblue" d="M400.318,-10C418.176,-10 438.613,-10 457.292,-10"/>
<polygon fill="midnightblue" stroke="midnightblue" points="457.46,-13.5001 467.46,-10 457.46,-6.5001 457.46,-13.5001"/>
</g>
</g>
</svg>
