<?xml version="1.0" encoding="UTF-8" standalone="no"?>
<!DOCTYPE svg PUBLIC "-//W3C//DTD SVG 1.1//EN"
 "http://www.w3.org/Graphics/SVG/1.1/DTD/svg11.dtd">
<!-- Generated by graphviz version 2.38.0 (20140413.2041)
 -->
<!-- Title: SyntaxAnalyzer::O Pages: 1 -->
<svg width="527pt" height="28pt"
 viewBox="0.00 0.00 527.00 28.00" xmlns="http://www.w3.org/2000/svg" xmlns:xlink="http://www.w3.org/1999/xlink">
<g id="graph0" class="graph" transform="scale(1 1) rotate(0) translate(4 24)">
<title>SyntaxAnalyzer::O</title>
<polygon fill="white" stroke="none" points="-4,4 -4,-24 523,-24 523,4 -4,4"/>
<!-- Node1 -->
<g id="node1" class="node"><title>Node1</title>
<polygon fill="#bfbfbf" stroke="black" points="0,-0.5 0,-19.5 99,-19.5 99,-0.5 0,-0.5"/>
<text text-anchor="middle" x="49.5" y="-7.5" font-family="Helvetica,sans-Serif" font-size="10.00">SyntaxAnalyzer::O</text>
</g>
<!-- Node2 -->
<g id="node2" class="node"><title>Node2</title>
<g id="a_node2"><a xlink:href="class_syntax_analyzer.html#a1b42fab3f30284bf29a7eff2f3e8382f" target="_top" xlink:title="SyntaxAnalyzer::E">
<polygon fill="white" stroke="black" points="135,-0.5 135,-19.5 233,-19.5 233,-0.5 135,-0.5"/>
<text text-anchor="middle" x="184" y="-7.5" font-family="Helvetica,sans-Serif" font-size="10.00">SyntaxAnalyzer::E</text>
</a>
</g>
</g>
<!-- Node1&#45;&gt;Node2 -->
<g id="edge1" class="edge"><title>Node1&#45;&gt;Node2</title>
<path fill="none" stroke="midnightblue" d="M109.365,-10C117.89,-10 126.581,-10 134.863,-10"/>
<polygon fill="midnightblue" stroke="midnightblue" points="109.086,-6.5001 99.0857,-10 109.086,-13.5001 109.086,-6.5001"/>
</g>
<!-- Node3 -->
<g id="node3" class="node"><title>Node3</title>
<g id="a_node3"><a xlink:href="class_syntax_analyzer.html#a04fbf355b2afe30ef814048ecb029cf2" target="_top" xlink:title="SyntaxAnalyzer::analyze">
<polygon fill="white" stroke="black" points="269,-0.5 269,-19.5 394,-19.5 394,-0.5 269,-0.5"/>
<text text-anchor="middle" x="331.5" y="-7.5" font-family="Helvetica,sans-Serif" font-size="10.00">SyntaxAnalyzer::analyze</text>
</a>
</g>
</g>
<!-- Node2&#45;&gt;Node3 -->
<g id="edge2" class="edge"><title>Node2&#45;&gt;Node3</title>
<path fill="none" stroke="midnightblue" d="M243.15,-10C251.572,-10 260.265,-10 268.754,-10"/>
<polygon fill="midnightblue" stroke="midnightblue" points="243.045,-6.5001 233.045,-10 243.045,-13.5001 243.045,-6.5001"/>
</g>
<!-- Node4 -->
<g id="node4" class="node"><title>Node4</title>
<g id="a_node4"><a xlink:href="class_regexp.html#abde3553b9033fd74f944dba8cdb6b9ea" target="_top" xlink:title="Regexp::Regexp">
<polygon fill="white" stroke="black" points="430,-0.5 430,-19.5 519,-19.5 519,-0.5 430,-0.5"/>
<text text-anchor="middle" x="474.5" y="-7.5" font-family="Helvetica,sans-Serif" font-size="10.00">Regexp::Regexp</text>
</a>
</g>
</g>
<!-- Node3&#45;&gt;Node4 -->
<g id="edge3" class="edge"><title>Node3&#45;&gt;Node4</title>
<path fill="none" stroke="midnightblue" d="M404.508,-10C413.18,-10 421.822,-10 429.908,-10"/>
<polygon fill="midnightblue" stroke="midnightblue" points="404.345,-6.5001 394.345,-10 404.345,-13.5001 404.345,-6.5001"/>
</g>
</g>
</svg>
