<?xml version="1.0" encoding="UTF-8" standalone="no"?>
<!DOCTYPE svg PUBLIC "-//W3C//DTD SVG 1.1//EN"
 "http://www.w3.org/Graphics/SVG/1.1/DTD/svg11.dtd">
<!-- Generated by graphviz version 2.38.0 (20140413.2041)
 -->
<!-- Title: Regexp::match Pages: 1 -->
<svg width="222pt" height="66pt"
 viewBox="0.00 0.00 222.00 66.00" xmlns="http://www.w3.org/2000/svg" xmlns:xlink="http://www.w3.org/1999/xlink">
<g id="graph0" class="graph" transform="scale(1 1) rotate(0) translate(4 62)">
<title>Regexp::match</title>
<polygon fill="white" stroke="none" points="-4,4 -4,-62 218,-62 218,4 -4,4"/>
<!-- Node1 -->
<g id="node1" class="node"><title>Node1</title>
<polygon fill="#bfbfbf" stroke="black" points="0,-19.5 0,-38.5 83,-38.5 83,-19.5 0,-19.5"/>
<text text-anchor="middle" x="41.5" y="-26.5" font-family="Helvetica,sans-Serif" font-size="10.00">Regexp::match</text>
</g>
<!-- Node2 -->
<g id="node2" class="node"><title>Node2</title>
<g id="a_node2"><a xlink:href="main_8cpp.html#a3c04138a5bfe5d72780bb7e82a18e627" target="_top" xlink:title="main">
<polygon fill="white" stroke="black" points="147.5,-38.5 147.5,-57.5 185.5,-57.5 185.5,-38.5 147.5,-38.5"/>
<text text-anchor="middle" x="166.5" y="-45.5" font-family="Helvetica,sans-Serif" font-size="10.00">main</text>
</a>
</g>
</g>
<!-- Node1&#45;&gt;Node2 -->
<g id="edge1" class="edge"><title>Node1&#45;&gt;Node2</title>
<path fill="none" stroke="midnightblue" d="M93.2586,-36.8408C112.412,-39.7994 133,-42.9796 147.278,-45.1851"/>
<polygon fill="midnightblue" stroke="midnightblue" points="93.5328,-33.3417 83.1157,-35.274 92.4641,-40.2596 93.5328,-33.3417"/>
</g>
<!-- Node3 -->
<g id="node3" class="node"><title>Node3</title>
<g id="a_node3"><a xlink:href="class_regexp.html#ada3dfc1370864a39089592fbe27ef19d" target="_top" xlink:title="Regexp::~Regexp">
<polygon fill="white" stroke="black" points="119,-0.5 119,-19.5 214,-19.5 214,-0.5 119,-0.5"/>
<text text-anchor="middle" x="166.5" y="-7.5" font-family="Helvetica,sans-Serif" font-size="10.00">Regexp::~Regexp</text>
</a>
</g>
</g>
<!-- Node1&#45;&gt;Node3 -->
<g id="edge2" class="edge"><title>Node1&#45;&gt;Node3</title>
<path fill="none" stroke="midnightblue" d="M93.0178,-21.1964C101.604,-19.8701 110.486,-18.4981 118.963,-17.1886"/>
<polygon fill="midnightblue" stroke="midnightblue" points="92.4641,-17.7404 83.1157,-22.726 93.5328,-24.6583 92.4641,-17.7404"/>
</g>
</g>
</svg>
