<?xml version="1.0" encoding="UTF-8" standalone="no"?>
<!DOCTYPE svg PUBLIC "-//W3C//DTD SVG 1.1//EN"
 "http://www.w3.org/Graphics/SVG/1.1/DTD/svg11.dtd">
<!-- Generated by graphviz version 2.38.0 (20140413.2041)
 -->
<!-- Title: RegexpChecker::op_cat Pages: 1 -->
<svg width="718pt" height="123pt"
 viewBox="0.00 0.00 718.00 123.00" xmlns="http://www.w3.org/2000/svg" xmlns:xlink="http://www.w3.org/1999/xlink">
<g id="graph0" class="graph" transform="scale(1 1) rotate(0) translate(4 119)">
<title>RegexpChecker::op_cat</title>
<polygon fill="white" stroke="none" points="-4,4 -4,-119 714,-119 714,4 -4,4"/>
<!-- Node1 -->
<g id="node1" class="node"><title>Node1</title>
<polygon fill="#bfbfbf" stroke="black" points="0,-38.5 0,-57.5 121,-57.5 121,-38.5 0,-38.5"/>
<text text-anchor="middle" x="60.5" y="-45.5" font-family="Helvetica,sans-Serif" font-size="10.00">RegexpChecker::op_cat</text>
</g>
<!-- Node2 -->
<g id="node2" class="node"><title>Node2</title>
<g id="a_node2"><a xlink:href="class_regexp_checker.html#a12a12dfe322def2c802afd2ebea0b75f" target="_top" xlink:title="RegexpChecker::check_op">
<polygon fill="white" stroke="black" points="157,-38.5 157,-57.5 291,-57.5 291,-38.5 157,-38.5"/>
<text text-anchor="middle" x="224" y="-45.5" font-family="Helvetica,sans-Serif" font-size="10.00">RegexpChecker::check_op</text>
</a>
</g>
</g>
<!-- Node1&#45;&gt;Node2 -->
<g id="edge1" class="edge"><title>Node1&#45;&gt;Node2</title>
<path fill="none" stroke="midnightblue" d="M131.36,-41.3049C139.795,-41.2194 148.39,-41.2338 156.77,-41.3479"/>
<polygon fill="midnightblue" stroke="midnightblue" points="131.124,-37.8079 121.178,-41.4586 131.23,-44.8071 131.124,-37.8079"/>
</g>
<!-- Node2&#45;&gt;Node1 -->
<g id="edge11" class="edge"><title>Node2&#45;&gt;Node1</title>
<path fill="none" stroke="midnightblue" d="M146.747,-54.7407C138.162,-54.7763 129.509,-54.7099 121.178,-54.5414"/>
<polygon fill="midnightblue" stroke="midnightblue" points="146.802,-58.2404 156.77,-54.6521 146.74,-51.2407 146.802,-58.2404"/>
</g>
<!-- Node3 -->
<g id="node3" class="node"><title>Node3</title>
<g id="a_node3"><a xlink:href="class_regexp_checker.html#a58d9c7c69c53ef18fa6ddb6a2c4bf24f" target="_top" xlink:title="RegexpChecker::check">
<polygon fill="white" stroke="black" points="333.5,-76.5 333.5,-95.5 451.5,-95.5 451.5,-76.5 333.5,-76.5"/>
<text text-anchor="middle" x="392.5" y="-83.5" font-family="Helvetica,sans-Serif" font-size="10.00">RegexpChecker::check</text>
</a>
</g>
</g>
<!-- Node2&#45;&gt;Node3 -->
<g id="edge2" class="edge"><title>Node2&#45;&gt;Node3</title>
<path fill="none" stroke="midnightblue" d="M276.809,-59.8243C300.283,-65.1816 327.665,-71.4311 349.787,-76.4799"/>
<polygon fill="midnightblue" stroke="midnightblue" points="277.543,-56.4019 267.015,-57.589 275.985,-63.2264 277.543,-56.4019"/>
</g>
<!-- Node8 -->
<g id="node8" class="node"><title>Node8</title>
<g id="a_node8"><a xlink:href="class_regexp_checker.html#aa775725022ae645c6d8f12633aa3a3d4" target="_top" xlink:title="RegexpChecker::op_enum">
<polygon fill="white" stroke="black" points="327,-38.5 327,-57.5 458,-57.5 458,-38.5 327,-38.5"/>
<text text-anchor="middle" x="392.5" y="-45.5" font-family="Helvetica,sans-Serif" font-size="10.00">RegexpChecker::op_enum</text>
</a>
</g>
</g>
<!-- Node2&#45;&gt;Node8 -->
<g id="edge9" class="edge"><title>Node2&#45;&gt;Node8</title>
<path fill="none" stroke="midnightblue" d="M301.522,-41.2696C309.973,-41.2202 318.516,-41.2641 326.802,-41.4012"/>
<polygon fill="midnightblue" stroke="midnightblue" points="301.247,-37.7722 291.284,-41.3762 301.32,-44.7718 301.247,-37.7722"/>
</g>
<!-- Node9 -->
<g id="node9" class="node"><title>Node9</title>
<g id="a_node9"><a xlink:href="class_regexp_checker.html#a5a34d99e02dba23757f33ce8107a961d" target="_top" xlink:title="RegexpChecker::op_iter">
<polygon fill="white" stroke="black" points="332,-0.5 332,-19.5 453,-19.5 453,-0.5 332,-0.5"/>
<text text-anchor="middle" x="392.5" y="-7.5" font-family="Helvetica,sans-Serif" font-size="10.00">RegexpChecker::op_iter</text>
</a>
</g>
</g>
<!-- Node2&#45;&gt;Node9 -->
<g id="edge12" class="edge"><title>Node2&#45;&gt;Node9</title>
<path fill="none" stroke="midnightblue" d="M256.206,-35.4732C277.461,-29.3412 306.272,-22.3994 331.846,-17.1117"/>
<polygon fill="midnightblue" stroke="midnightblue" points="254.998,-32.1813 246.426,-38.4076 257.01,-38.886 254.998,-32.1813"/>
</g>
<!-- Node4 -->
<g id="node4" class="node"><title>Node4</title>
<g id="a_node4"><a xlink:href="class_regexp.html#a7869806d5707d47742db7ad5129b6585" target="_top" xlink:title="Regexp::match">
<polygon fill="white" stroke="black" points="495,-95.5 495,-114.5 578,-114.5 578,-95.5 495,-95.5"/>
<text text-anchor="middle" x="536.5" y="-102.5" font-family="Helvetica,sans-Serif" font-size="10.00">Regexp::match</text>
</a>
</g>
</g>
<!-- Node3&#45;&gt;Node4 -->
<g id="edge3" class="edge"><title>Node3&#45;&gt;Node4</title>
<path fill="none" stroke="midnightblue" d="M461.879,-95.1493C473.061,-96.6455 484.33,-98.1533 494.574,-99.5239"/>
<polygon fill="midnightblue" stroke="midnightblue" points="462.042,-91.6401 451.667,-93.7828 461.114,-98.5782 462.042,-91.6401"/>
</g>
<!-- Node7 -->
<g id="node7" class="node"><title>Node7</title>
<g id="a_node7"><a xlink:href="class_regexp.html#af7c296f94f7577ce0fa662c78268659e" target="_top" xlink:title="Regexp::search">
<polygon fill="white" stroke="black" points="494,-57.5 494,-76.5 579,-76.5 579,-57.5 494,-57.5"/>
<text text-anchor="middle" x="536.5" y="-64.5" font-family="Helvetica,sans-Serif" font-size="10.00">Regexp::search</text>
</a>
</g>
</g>
<!-- Node3&#45;&gt;Node7 -->
<g id="edge6" class="edge"><title>Node3&#45;&gt;Node7</title>
<path fill="none" stroke="midnightblue" d="M461.661,-76.8799C472.603,-75.4157 483.636,-73.9395 493.717,-72.5907"/>
<polygon fill="midnightblue" stroke="midnightblue" points="461.114,-73.4218 451.667,-78.2172 462.042,-80.3599 461.114,-73.4218"/>
</g>
<!-- Node5 -->
<g id="node5" class="node"><title>Node5</title>
<g id="a_node5"><a xlink:href="main_8cpp.html#a3c04138a5bfe5d72780bb7e82a18e627" target="_top" xlink:title="main">
<polygon fill="white" stroke="black" points="643.5,-95.5 643.5,-114.5 681.5,-114.5 681.5,-95.5 643.5,-95.5"/>
<text text-anchor="middle" x="662.5" y="-102.5" font-family="Helvetica,sans-Serif" font-size="10.00">main</text>
</a>
</g>
</g>
<!-- Node4&#45;&gt;Node5 -->
<g id="edge4" class="edge"><title>Node4&#45;&gt;Node5</title>
<path fill="none" stroke="midnightblue" d="M588.144,-105C607.702,-105 628.821,-105 643.353,-105"/>
<polygon fill="midnightblue" stroke="midnightblue" points="588.102,-101.5 578.102,-105 588.102,-108.5 588.102,-101.5"/>
</g>
<!-- Node6 -->
<g id="node6" class="node"><title>Node6</title>
<g id="a_node6"><a xlink:href="class_regexp.html#ada3dfc1370864a39089592fbe27ef19d" target="_top" xlink:title="Regexp::~Regexp">
<polygon fill="white" stroke="black" points="615,-57.5 615,-76.5 710,-76.5 710,-57.5 615,-57.5"/>
<text text-anchor="middle" x="662.5" y="-64.5" font-family="Helvetica,sans-Serif" font-size="10.00">Regexp::~Regexp</text>
</a>
</g>
</g>
<!-- Node4&#45;&gt;Node6 -->
<g id="edge5" class="edge"><title>Node4&#45;&gt;Node6</title>
<path fill="none" stroke="midnightblue" d="M578.405,-92.4647C595.273,-87.2952 614.508,-81.4009 630.22,-76.5859"/>
<polygon fill="midnightblue" stroke="midnightblue" points="577.326,-89.1345 568.79,-95.411 579.377,-95.8273 577.326,-89.1345"/>
</g>
<!-- Node7&#45;&gt;Node5 -->
<g id="edge7" class="edge"><title>Node7&#45;&gt;Node5</title>
<path fill="none" stroke="midnightblue" d="M578.538,-79.5763C600.462,-86.2948 626.349,-94.228 643.303,-99.4236"/>
<polygon fill="midnightblue" stroke="midnightblue" points="579.377,-76.1727 568.79,-76.589 577.326,-82.8655 579.377,-76.1727"/>
</g>
<!-- Node7&#45;&gt;Node6 -->
<g id="edge8" class="edge"><title>Node7&#45;&gt;Node6</title>
<path fill="none" stroke="midnightblue" d="M589.235,-67C597.656,-67 606.337,-67 614.633,-67"/>
<polygon fill="midnightblue" stroke="midnightblue" points="589.135,-63.5001 579.135,-67 589.135,-70.5001 589.135,-63.5001"/>
</g>
<!-- Node8&#45;&gt;Node2 -->
<g id="edge10" class="edge"><title>Node8&#45;&gt;Node2</title>
<path fill="none" stroke="midnightblue" d="M316.591,-54.7198C308.153,-54.7811 299.601,-54.7491 291.284,-54.6238"/>
<polygon fill="midnightblue" stroke="midnightblue" points="316.844,-58.2171 326.802,-54.5988 316.761,-51.2176 316.844,-58.2171"/>
</g>
<!-- Node9&#45;&gt;Node2 -->
<g id="edge13" class="edge"><title>Node9&#45;&gt;Node2</title>
<path fill="none" stroke="midnightblue" d="M360.319,-22.5195C340.881,-28.1287 315.114,-34.4163 291.284,-39.496"/>
<polygon fill="midnightblue" stroke="midnightblue" points="361.567,-25.7993 370.139,-19.572 359.555,-19.0948 361.567,-25.7993"/>
</g>
</g>
</svg>
