<?xml version="1.0" encoding="UTF-8" standalone="no"?>
<!DOCTYPE svg PUBLIC "-//W3C//DTD SVG 1.1//EN"
 "http://www.w3.org/Graphics/SVG/1.1/DTD/svg11.dtd">
<!-- Generated by graphviz version 2.38.0 (20140413.2041)
 -->
<!-- Title: RegexpChecker::op_enum Pages: 1 -->
<svg width="627pt" height="116pt"
 viewBox="0.00 0.00 627.00 116.34" xmlns="http://www.w3.org/2000/svg" xmlns:xlink="http://www.w3.org/1999/xlink">
<g id="graph0" class="graph" transform="scale(1 1) rotate(0) translate(4 112.342)">
<title>RegexpChecker::op_enum</title>
<polygon fill="white" stroke="none" points="-4,4 -4,-112.342 623,-112.342 623,4 -4,4"/>
<!-- Node1 -->
<g id="node1" class="node"><title>Node1</title>
<polygon fill="#bfbfbf" stroke="black" points="0,-31.8417 0,-50.8417 131,-50.8417 131,-31.8417 0,-31.8417"/>
<text text-anchor="middle" x="65.5" y="-38.8417" font-family="Helvetica,sans-Serif" font-size="10.00">RegexpChecker::op_enum</text>
</g>
<!-- Node2 -->
<g id="node2" class="node"><title>Node2</title>
<g id="a_node2"><a xlink:href="class_regexp_checker.html#a12a12dfe322def2c802afd2ebea0b75f" target="_top" xlink:title="RegexpChecker::check_op">
<polygon fill="white" stroke="black" points="167,-31.8417 167,-50.8417 301,-50.8417 301,-31.8417 167,-31.8417"/>
<text text-anchor="middle" x="234" y="-38.8417" font-family="Helvetica,sans-Serif" font-size="10.00">RegexpChecker::check_op</text>
</a>
</g>
</g>
<!-- Node1&#45;&gt;Node2 -->
<g id="edge1" class="edge"><title>Node1&#45;&gt;Node2</title>
<path fill="none" stroke="midnightblue" d="M131.35,-34.7404C139.659,-34.6041 148.226,-34.5615 156.696,-34.6126"/>
<polygon fill="midnightblue" stroke="midnightblue" points="156.919,-38.1151 166.956,-34.7215 156.993,-31.1155 156.919,-38.1151"/>
</g>
<!-- Node5 -->
<g id="node5" class="node"><title>Node5</title>
<g id="a_node5"><a xlink:href="class_regexp_checker.html#adf00606a82e27c614122d001f21f9f96" target="_top" xlink:title="Пропускает текущую операцию ">
<polygon fill="white" stroke="black" points="494,-12.8417 494,-31.8417 619,-31.8417 619,-12.8417 494,-12.8417"/>
<text text-anchor="middle" x="556.5" y="-19.8417" font-family="Helvetica,sans-Serif" font-size="10.00">RegexpChecker::skip_op</text>
</a>
</g>
</g>
<!-- Node1&#45;&gt;Node5 -->
<g id="edge10" class="edge"><title>Node1&#45;&gt;Node5</title>
<path fill="none" stroke="midnightblue" d="M109.079,-31.8143C180.984,-16.9346 331.062,8.91137 458,-3.34171 473.771,-4.86406 490.78,-7.7409 506.107,-10.8039"/>
<polygon fill="midnightblue" stroke="midnightblue" points="505.405,-14.2326 515.906,-12.8313 506.823,-7.37781 505.405,-14.2326"/>
</g>
<!-- Node2&#45;&gt;Node1 -->
<g id="edge3" class="edge"><title>Node2&#45;&gt;Node1</title>
<path fill="none" stroke="midnightblue" d="M166.956,-47.9619C158.623,-48.0893 150.049,-48.1229 141.589,-48.0628"/>
<polygon fill="midnightblue" stroke="midnightblue" points="141.39,-44.5603 131.35,-47.943 141.308,-51.5599 141.39,-44.5603"/>
</g>
<!-- Node3 -->
<g id="node3" class="node"><title>Node3</title>
<g id="a_node3"><a xlink:href="class_regexp_checker.html#ad48539a0443212d78e32ff0a23918478" target="_top" xlink:title="RegexpChecker::op_str">
<polygon fill="white" stroke="black" points="338,-88.8417 338,-107.842 457,-107.842 457,-88.8417 338,-88.8417"/>
<text text-anchor="middle" x="397.5" y="-95.8417" font-family="Helvetica,sans-Serif" font-size="10.00">RegexpChecker::op_str</text>
</a>
</g>
</g>
<!-- Node2&#45;&gt;Node3 -->
<g id="edge2" class="edge"><title>Node2&#45;&gt;Node3</title>
<path fill="none" stroke="midnightblue" d="M259.615,-50.8862C280.201,-58.7781 310.388,-70.1416 337,-79.3417 343.053,-81.4344 349.48,-83.5728 355.787,-85.6244"/>
<polygon fill="midnightblue" stroke="midnightblue" points="354.935,-89.027 365.526,-88.7579 357.079,-82.3633 354.935,-89.027"/>
</g>
<!-- Node4 -->
<g id="node4" class="node"><title>Node4</title>
<g id="a_node4"><a xlink:href="class_regexp_checker.html#a3f379e2420eacf52f91afce6e0ade9e4" target="_top" xlink:title="RegexpChecker::op_cat">
<polygon fill="white" stroke="black" points="337,-50.8417 337,-69.8417 458,-69.8417 458,-50.8417 337,-50.8417"/>
<text text-anchor="middle" x="397.5" y="-57.8417" font-family="Helvetica,sans-Serif" font-size="10.00">RegexpChecker::op_cat</text>
</a>
</g>
</g>
<!-- Node2&#45;&gt;Node4 -->
<g id="edge4" class="edge"><title>Node2&#45;&gt;Node4</title>
<path fill="none" stroke="midnightblue" d="M301.154,-42.4735C318.59,-44.286 336.965,-46.6411 352.88,-49.139"/>
<polygon fill="midnightblue" stroke="midnightblue" points="352.512,-52.6255 362.948,-50.7968 353.65,-45.7185 352.512,-52.6255"/>
</g>
<!-- Node6 -->
<g id="node6" class="node"><title>Node6</title>
<g id="a_node6"><a xlink:href="class_regexp_checker.html#a5a34d99e02dba23757f33ce8107a961d" target="_top" xlink:title="RegexpChecker::op_iter">
<polygon fill="white" stroke="black" points="337,-12.8417 337,-31.8417 458,-31.8417 458,-12.8417 337,-12.8417"/>
<text text-anchor="middle" x="397.5" y="-19.8417" font-family="Helvetica,sans-Serif" font-size="10.00">RegexpChecker::op_iter</text>
</a>
</g>
</g>
<!-- Node2&#45;&gt;Node6 -->
<g id="edge7" class="edge"><title>Node2&#45;&gt;Node6</title>
<path fill="none" stroke="midnightblue" d="M268.463,-31.8122C285.377,-28.8802 306.565,-26.0206 326.808,-23.8474"/>
<polygon fill="midnightblue" stroke="midnightblue" points="327.37,-27.3081 336.962,-22.8076 326.657,-20.3446 327.37,-27.3081"/>
</g>
<!-- Node4&#45;&gt;Node2 -->
<g id="edge5" class="edge"><title>Node4&#45;&gt;Node2</title>
<path fill="none" stroke="midnightblue" d="M336.962,-59.8758C317.548,-57.9872 296.374,-55.337 278.378,-52.5063"/>
<polygon fill="midnightblue" stroke="midnightblue" points="278.899,-49.0451 268.463,-50.8713 277.76,-55.9519 278.899,-49.0451"/>
</g>
<!-- Node4&#45;&gt;Node5 -->
<g id="edge6" class="edge"><title>Node4&#45;&gt;Node5</title>
<path fill="none" stroke="midnightblue" d="M438.118,-50.7527C458.836,-45.7382 484.388,-39.5536 506.356,-34.2364"/>
<polygon fill="midnightblue" stroke="midnightblue" points="507.271,-37.6161 516.167,-31.8618 505.624,-30.8125 507.271,-37.6161"/>
</g>
<!-- Node6&#45;&gt;Node2 -->
<g id="edge9" class="edge"><title>Node6&#45;&gt;Node2</title>
<path fill="none" stroke="midnightblue" d="M362.948,-31.8866C347.855,-34.5005 329.371,-37.056 311.196,-39.1179"/>
<polygon fill="midnightblue" stroke="midnightblue" points="310.717,-35.6493 301.154,-40.2099 311.474,-42.6082 310.717,-35.6493"/>
</g>
<!-- Node6&#45;&gt;Node5 -->
<g id="edge8" class="edge"><title>Node6&#45;&gt;Node5</title>
<path fill="none" stroke="midnightblue" d="M458.303,-22.3417C466.558,-22.3417 475.107,-22.3417 483.553,-22.3417"/>
<polygon fill="midnightblue" stroke="midnightblue" points="483.779,-25.8418 493.779,-22.3417 483.779,-18.8418 483.779,-25.8418"/>
</g>
</g>
</svg>
