<?xml version="1.0" encoding="UTF-8" standalone="no"?>
<!DOCTYPE svg PUBLIC "-//W3C//DTD SVG 1.1//EN"
 "http://www.w3.org/Graphics/SVG/1.1/DTD/svg11.dtd">
<!-- Generated by graphviz version 2.38.0 (20140413.2041)
 -->
<!-- Title: RegexpChecker::check Pages: 1 -->
<svg width="624pt" height="142pt"
 viewBox="0.00 0.00 624.00 142.00" xmlns="http://www.w3.org/2000/svg" xmlns:xlink="http://www.w3.org/1999/xlink">
<g id="graph0" class="graph" transform="scale(1 1) rotate(0) translate(4 138)">
<title>RegexpChecker::check</title>
<polygon fill="white" stroke="none" points="-4,4 -4,-138 620,-138 620,4 -4,4"/>
<!-- Node1 -->
<g id="node1" class="node"><title>Node1</title>
<polygon fill="#bfbfbf" stroke="black" points="0,-38.5 0,-57.5 118,-57.5 118,-38.5 0,-38.5"/>
<text text-anchor="middle" x="59" y="-45.5" font-family="Helvetica,sans-Serif" font-size="10.00">RegexpChecker::check</text>
</g>
<!-- Node2 -->
<g id="node2" class="node"><title>Node2</title>
<g id="a_node2"><a xlink:href="class_regexp_checker.html#a12a12dfe322def2c802afd2ebea0b75f" target="_top" xlink:title="RegexpChecker::check_op">
<polygon fill="white" stroke="black" points="154,-38.5 154,-57.5 288,-57.5 288,-38.5 154,-38.5"/>
<text text-anchor="middle" x="221" y="-45.5" font-family="Helvetica,sans-Serif" font-size="10.00">RegexpChecker::check_op</text>
</a>
</g>
</g>
<!-- Node1&#45;&gt;Node2 -->
<g id="edge1" class="edge"><title>Node1&#45;&gt;Node2</title>
<path fill="none" stroke="midnightblue" d="M118.216,-48C126.565,-48 135.256,-48 143.887,-48"/>
<polygon fill="midnightblue" stroke="midnightblue" points="143.967,-51.5001 153.967,-48 143.967,-44.5001 143.967,-51.5001"/>
</g>
<!-- Node3 -->
<g id="node3" class="node"><title>Node3</title>
<g id="a_node3"><a xlink:href="class_regexp_checker.html#ad48539a0443212d78e32ff0a23918478" target="_top" xlink:title="RegexpChecker::op_str">
<polygon fill="white" stroke="black" points="330,-114.5 330,-133.5 449,-133.5 449,-114.5 330,-114.5"/>
<text text-anchor="middle" x="389.5" y="-121.5" font-family="Helvetica,sans-Serif" font-size="10.00">RegexpChecker::op_str</text>
</a>
</g>
</g>
<!-- Node2&#45;&gt;Node3 -->
<g id="edge2" class="edge"><title>Node2&#45;&gt;Node3</title>
<path fill="none" stroke="midnightblue" d="M236.676,-57.587C256.034,-69.9028 291.462,-91.3186 324,-105 329.446,-107.29 335.26,-109.417 341.083,-111.356"/>
<polygon fill="midnightblue" stroke="midnightblue" points="340.238,-114.76 350.828,-114.438 342.349,-108.086 340.238,-114.76"/>
</g>
<!-- Node4 -->
<g id="node4" class="node"><title>Node4</title>
<g id="a_node4"><a xlink:href="class_regexp_checker.html#aa775725022ae645c6d8f12633aa3a3d4" target="_top" xlink:title="RegexpChecker::op_enum">
<polygon fill="white" stroke="black" points="324,-76.5 324,-95.5 455,-95.5 455,-76.5 324,-76.5"/>
<text text-anchor="middle" x="389.5" y="-83.5" font-family="Helvetica,sans-Serif" font-size="10.00">RegexpChecker::op_enum</text>
</a>
</g>
</g>
<!-- Node2&#45;&gt;Node4 -->
<g id="edge3" class="edge"><title>Node2&#45;&gt;Node4</title>
<path fill="none" stroke="midnightblue" d="M288.284,-56.504C312.114,-61.5837 337.881,-67.8713 357.319,-73.4805"/>
<polygon fill="midnightblue" stroke="midnightblue" points="356.555,-76.9052 367.139,-76.428 358.567,-70.2007 356.555,-76.9052"/>
</g>
<!-- Node6 -->
<g id="node6" class="node"><title>Node6</title>
<g id="a_node6"><a xlink:href="class_regexp_checker.html#a3f379e2420eacf52f91afce6e0ade9e4" target="_top" xlink:title="RegexpChecker::op_cat">
<polygon fill="white" stroke="black" points="329,-38.5 329,-57.5 450,-57.5 450,-38.5 329,-38.5"/>
<text text-anchor="middle" x="389.5" y="-45.5" font-family="Helvetica,sans-Serif" font-size="10.00">RegexpChecker::op_cat</text>
</a>
</g>
</g>
<!-- Node2&#45;&gt;Node6 -->
<g id="edge6" class="edge"><title>Node2&#45;&gt;Node6</title>
<path fill="none" stroke="midnightblue" d="M288.284,-41.3762C298.35,-41.2246 308.762,-41.2096 318.896,-41.3313"/>
<polygon fill="midnightblue" stroke="midnightblue" points="318.858,-44.831 328.915,-41.4985 318.975,-37.832 318.858,-44.831"/>
</g>
<!-- Node7 -->
<g id="node7" class="node"><title>Node7</title>
<g id="a_node7"><a xlink:href="class_regexp_checker.html#a5a34d99e02dba23757f33ce8107a961d" target="_top" xlink:title="RegexpChecker::op_iter">
<polygon fill="white" stroke="black" points="329,-0.5 329,-19.5 450,-19.5 450,-0.5 329,-0.5"/>
<text text-anchor="middle" x="389.5" y="-7.5" font-family="Helvetica,sans-Serif" font-size="10.00">RegexpChecker::op_iter</text>
</a>
</g>
</g>
<!-- Node2&#45;&gt;Node7 -->
<g id="edge9" class="edge"><title>Node2&#45;&gt;Node7</title>
<path fill="none" stroke="midnightblue" d="M243.426,-38.4076C262.591,-32.3956 291.77,-25.0809 318.947,-19.2059"/>
<polygon fill="midnightblue" stroke="midnightblue" points="319.787,-22.6056 328.846,-17.1117 318.338,-15.7572 319.787,-22.6056"/>
</g>
<!-- Node4&#45;&gt;Node2 -->
<g id="edge4" class="edge"><title>Node4&#45;&gt;Node2</title>
<path fill="none" stroke="midnightblue" d="M323.705,-77.8123C299.454,-72.6768 273.003,-66.2404 253.156,-60.5125"/>
<polygon fill="midnightblue" stroke="midnightblue" points="254.01,-57.1146 243.426,-57.5924 251.998,-63.8192 254.01,-57.1146"/>
</g>
<!-- Node5 -->
<g id="node5" class="node"><title>Node5</title>
<g id="a_node5"><a xlink:href="class_regexp_checker.html#adf00606a82e27c614122d001f21f9f96" target="_top" xlink:title="Пропускает текущую операцию ">
<polygon fill="white" stroke="black" points="491,-38.5 491,-57.5 616,-57.5 616,-38.5 491,-38.5"/>
<text text-anchor="middle" x="553.5" y="-45.5" font-family="Helvetica,sans-Serif" font-size="10.00">RegexpChecker::skip_op</text>
</a>
</g>
</g>
<!-- Node4&#45;&gt;Node5 -->
<g id="edge5" class="edge"><title>Node4&#45;&gt;Node5</title>
<path fill="none" stroke="midnightblue" d="M431.379,-76.411C452.853,-71.3739 479.36,-65.1562 502.097,-59.8229"/>
<polygon fill="midnightblue" stroke="midnightblue" points="502.978,-63.2113 511.915,-57.5201 501.379,-56.3963 502.978,-63.2113"/>
</g>
<!-- Node6&#45;&gt;Node2 -->
<g id="edge7" class="edge"><title>Node6&#45;&gt;Node2</title>
<path fill="none" stroke="midnightblue" d="M328.915,-54.5015C319.035,-54.7143 308.669,-54.7904 298.442,-54.7299"/>
<polygon fill="midnightblue" stroke="midnightblue" points="298.32,-51.2285 288.284,-54.6238 298.246,-58.2281 298.32,-51.2285"/>
</g>
<!-- Node6&#45;&gt;Node5 -->
<g id="edge8" class="edge"><title>Node6&#45;&gt;Node5</title>
<path fill="none" stroke="midnightblue" d="M450.363,-48C460.3,-48 470.693,-48 480.886,-48"/>
<polygon fill="midnightblue" stroke="midnightblue" points="480.987,-51.5001 490.987,-48 480.987,-44.5001 480.987,-51.5001"/>
</g>
<!-- Node7&#45;&gt;Node2 -->
<g id="edge11" class="edge"><title>Node7&#45;&gt;Node2</title>
<path fill="none" stroke="midnightblue" d="M367.139,-19.572C349.541,-25.0963 323.468,-31.7242 298.256,-37.325"/>
<polygon fill="midnightblue" stroke="midnightblue" points="297.31,-33.9488 288.284,-39.496 298.799,-40.7886 297.31,-33.9488"/>
</g>
<!-- Node7&#45;&gt;Node5 -->
<g id="edge10" class="edge"><title>Node7&#45;&gt;Node5</title>
<path fill="none" stroke="midnightblue" d="M431.379,-19.589C452.853,-24.6261 479.36,-30.8438 502.097,-36.1771"/>
<polygon fill="midnightblue" stroke="midnightblue" points="501.379,-39.6037 511.915,-38.4799 502.978,-32.7887 501.379,-39.6037"/>
</g>
</g>
</svg>
