<?xml version="1.0" encoding="UTF-8" standalone="no"?>
<!DOCTYPE svg PUBLIC "-//W3C//DTD SVG 1.1//EN"
 "http://www.w3.org/Graphics/SVG/1.1/DTD/svg11.dtd">
<!-- Generated by graphviz version 2.38.0 (20140413.2041)
 -->
<!-- Title: LexicalAnalyzer::isspecial Pages: 1 -->
<svg width="424pt" height="28pt"
 viewBox="0.00 0.00 424.00 28.00" xmlns="http://www.w3.org/2000/svg" xmlns:xlink="http://www.w3.org/1999/xlink">
<g id="graph0" class="graph" transform="scale(1 1) rotate(0) translate(4 24)">
<title>LexicalAnalyzer::isspecial</title>
<polygon fill="white" stroke="none" points="-4,4 -4,-24 420,-24 420,4 -4,4"/>
<!-- Node1 -->
<g id="node1" class="node"><title>Node1</title>
<polygon fill="#bfbfbf" stroke="black" points="0,-0.5 0,-19.5 130,-19.5 130,-0.5 0,-0.5"/>
<text text-anchor="middle" x="65" y="-7.5" font-family="Helvetica,sans-Serif" font-size="10.00">LexicalAnalyzer::isspecial</text>
</g>
<!-- Node2 -->
<g id="node2" class="node"><title>Node2</title>
<g id="a_node2"><a xlink:href="class_lexical_analyzer.html#afd35f07227fd40638e9d145ee6413640" target="_top" xlink:title="LexicalAnalyzer::analyze">
<polygon fill="white" stroke="black" points="166,-0.5 166,-19.5 291,-19.5 291,-0.5 166,-0.5"/>
<text text-anchor="middle" x="228.5" y="-7.5" font-family="Helvetica,sans-Serif" font-size="10.00">LexicalAnalyzer::analyze</text>
</a>
</g>
</g>
<!-- Node1&#45;&gt;Node2 -->
<g id="edge1" class="edge"><title>Node1&#45;&gt;Node2</title>
<path fill="none" stroke="midnightblue" d="M140.534,-10C148.987,-10 157.532,-10 165.795,-10"/>
<polygon fill="midnightblue" stroke="midnightblue" points="140.293,-6.5001 130.293,-10 140.293,-13.5001 140.293,-6.5001"/>
</g>
<!-- Node3 -->
<g id="node3" class="node"><title>Node3</title>
<g id="a_node3"><a xlink:href="class_regexp.html#abde3553b9033fd74f944dba8cdb6b9ea" target="_top" xlink:title="Regexp::Regexp">
<polygon fill="white" stroke="black" points="327,-0.5 327,-19.5 416,-19.5 416,-0.5 327,-0.5"/>
<text text-anchor="middle" x="371.5" y="-7.5" font-family="Helvetica,sans-Serif" font-size="10.00">Regexp::Regexp</text>
</a>
</g>
</g>
<!-- Node2&#45;&gt;Node3 -->
<g id="edge2" class="edge"><title>Node2&#45;&gt;Node3</title>
<path fill="none" stroke="midnightblue" d="M301.508,-10C310.18,-10 318.822,-10 326.908,-10"/>
<polygon fill="midnightblue" stroke="midnightblue" points="301.345,-6.5001 291.345,-10 301.345,-13.5001 301.345,-6.5001"/>
</g>
</g>
</svg>
