<?xml version="1.0" encoding="UTF-8" standalone="no"?>
<!DOCTYPE svg PUBLIC "-//W3C//DTD SVG 1.1//EN"
 "http://www.w3.org/Graphics/SVG/1.1/DTD/svg11.dtd">
<!-- Generated by graphviz version 2.38.0 (20140413.2041)
 -->
<!-- Title: SyntaxAnalyzer::E Pages: 1 -->
<svg width="392pt" height="28pt"
 viewBox="0.00 0.00 392.00 28.00" xmlns="http://www.w3.org/2000/svg" xmlns:xlink="http://www.w3.org/1999/xlink">
<g id="graph0" class="graph" transform="scale(1 1) rotate(0) translate(4 24)">
<title>SyntaxAnalyzer::E</title>
<polygon fill="white" stroke="none" points="-4,4 -4,-24 388,-24 388,4 -4,4"/>
<!-- Node1 -->
<g id="node1" class="node"><title>Node1</title>
<polygon fill="#bfbfbf" stroke="black" points="0,-0.5 0,-19.5 98,-19.5 98,-0.5 0,-0.5"/>
<text text-anchor="middle" x="49" y="-7.5" font-family="Helvetica,sans-Serif" font-size="10.00">SyntaxAnalyzer::E</text>
</g>
<!-- Node2 -->
<g id="node2" class="node"><title>Node2</title>
<g id="a_node2"><a xlink:href="class_syntax_analyzer.html#a04fbf355b2afe30ef814048ecb029cf2" target="_top" xlink:title="SyntaxAnalyzer::analyze">
<polygon fill="white" stroke="black" points="134,-0.5 134,-19.5 259,-19.5 259,-0.5 134,-0.5"/>
<text text-anchor="middle" x="196.5" y="-7.5" font-family="Helvetica,sans-Serif" font-size="10.00">SyntaxAnalyzer::analyze</text>
</a>
</g>
</g>
<!-- Node1&#45;&gt;Node2 -->
<g id="edge1" class="edge"><title>Node1&#45;&gt;Node2</title>
<path fill="none" stroke="midnightblue" d="M108.15,-10C116.572,-10 125.265,-10 133.754,-10"/>
<polygon fill="midnightblue" stroke="midnightblue" points="108.045,-6.5001 98.0454,-10 108.045,-13.5001 108.045,-6.5001"/>
</g>
<!-- Node3 -->
<g id="node3" class="node"><title>Node3</title>
<g id="a_node3"><a xlink:href="class_regexp.html#abde3553b9033fd74f944dba8cdb6b9ea" target="_top" xlink:title="Regexp::Regexp">
<polygon fill="white" stroke="black" points="295,-0.5 295,-19.5 384,-19.5 384,-0.5 295,-0.5"/>
<text text-anchor="middle" x="339.5" y="-7.5" font-family="Helvetica,sans-Serif" font-size="10.00">Regexp::Regexp</text>
</a>
</g>
</g>
<!-- Node2&#45;&gt;Node3 -->
<g id="edge2" class="edge"><title>Node2&#45;&gt;Node3</title>
<path fill="none" stroke="midnightblue" d="M269.508,-10C278.18,-10 286.822,-10 294.908,-10"/>
<polygon fill="midnightblue" stroke="midnightblue" points="269.345,-6.5001 259.345,-10 269.345,-13.5001 269.345,-6.5001"/>
</g>
</g>
</svg>
