<?xml version="1.0" encoding="UTF-8" standalone="no"?>
<!DOCTYPE svg PUBLIC "-//W3C//DTD SVG 1.1//EN"
 "http://www.w3.org/Graphics/SVG/1.1/DTD/svg11.dtd">
<!-- Generated by graphviz version 2.38.0 (20140413.2041)
 -->
<!-- Title: RegexpChecker::op_cat Pages: 1 -->
<svg width="627pt" height="116pt"
 viewBox="0.00 0.00 627.00 116.40" xmlns="http://www.w3.org/2000/svg" xmlns:xlink="http://www.w3.org/1999/xlink">
<g id="graph0" class="graph" transform="scale(1 1) rotate(0) translate(4 112.404)">
<title>RegexpChecker::op_cat</title>
<polygon fill="white" stroke="none" points="-4,4 -4,-112.404 623,-112.404 623,4 -4,4"/>
<!-- Node1 -->
<g id="node1" class="node"><title>Node1</title>
<polygon fill="#bfbfbf" stroke="black" points="0,-31.9036 0,-50.9036 121,-50.9036 121,-31.9036 0,-31.9036"/>
<text text-anchor="middle" x="60.5" y="-38.9036" font-family="Helvetica,sans-Serif" font-size="10.00">RegexpChecker::op_cat</text>
</g>
<!-- Node2 -->
<g id="node2" class="node"><title>Node2</title>
<g id="a_node2"><a xlink:href="class_regexp_checker.html#a12a12dfe322def2c802afd2ebea0b75f" target="_top" xlink:title="RegexpChecker::check_op">
<polygon fill="white" stroke="black" points="157,-31.9036 157,-50.9036 291,-50.9036 291,-31.9036 157,-31.9036"/>
<text text-anchor="middle" x="224" y="-38.9036" font-family="Helvetica,sans-Serif" font-size="10.00">RegexpChecker::check_op</text>
</a>
</g>
</g>
<!-- Node1&#45;&gt;Node2 -->
<g id="edge1" class="edge"><title>Node1&#45;&gt;Node2</title>
<path fill="none" stroke="midnightblue" d="M121.178,-34.8622C129.509,-34.6937 138.162,-34.6273 146.747,-34.6629"/>
<polygon fill="midnightblue" stroke="midnightblue" points="146.74,-38.1629 156.77,-34.7515 146.802,-31.1631 146.74,-38.1629"/>
</g>
<!-- Node5 -->
<g id="node5" class="node"><title>Node5</title>
<g id="a_node5"><a xlink:href="class_regexp_checker.html#adf00606a82e27c614122d001f21f9f96" target="_top" xlink:title="Пропускает текущую операцию ">
<polygon fill="white" stroke="black" points="494,-12.9036 494,-31.9036 619,-31.9036 619,-12.9036 494,-12.9036"/>
<text text-anchor="middle" x="556.5" y="-19.9036" font-family="Helvetica,sans-Serif" font-size="10.00">RegexpChecker::skip_op</text>
</a>
</g>
</g>
<!-- Node1&#45;&gt;Node5 -->
<g id="edge10" class="edge"><title>Node1&#45;&gt;Node5</title>
<path fill="none" stroke="midnightblue" d="M104.334,-31.9021C177.048,-16.9821 329.284,9.02115 458,-3.40359 473.771,-4.92593 490.78,-7.80277 506.107,-10.8658"/>
<polygon fill="midnightblue" stroke="midnightblue" points="505.405,-14.2945 515.906,-12.8932 506.823,-7.43969 505.405,-14.2945"/>
</g>
<!-- Node2&#45;&gt;Node1 -->
<g id="edge6" class="edge"><title>Node2&#45;&gt;Node1</title>
<path fill="none" stroke="midnightblue" d="M156.77,-48.0556C148.39,-48.1698 139.795,-48.1842 131.36,-48.0987"/>
<polygon fill="midnightblue" stroke="midnightblue" points="131.23,-44.5965 121.178,-47.945 131.124,-51.5957 131.23,-44.5965"/>
</g>
<!-- Node3 -->
<g id="node3" class="node"><title>Node3</title>
<g id="a_node3"><a xlink:href="class_regexp_checker.html#ad48539a0443212d78e32ff0a23918478" target="_top" xlink:title="RegexpChecker::op_str">
<polygon fill="white" stroke="black" points="333,-88.9036 333,-107.904 452,-107.904 452,-88.9036 333,-88.9036"/>
<text text-anchor="middle" x="392.5" y="-95.9036" font-family="Helvetica,sans-Serif" font-size="10.00">RegexpChecker::op_str</text>
</a>
</g>
</g>
<!-- Node2&#45;&gt;Node3 -->
<g id="edge2" class="edge"><title>Node2&#45;&gt;Node3</title>
<path fill="none" stroke="midnightblue" d="M249.149,-50.9458C269.71,-58.9388 300.107,-70.4453 327,-79.4036 333.623,-81.6096 340.671,-83.8218 347.584,-85.9168"/>
<polygon fill="midnightblue" stroke="midnightblue" points="346.968,-89.3852 357.551,-88.888 348.968,-82.677 346.968,-89.3852"/>
</g>
<!-- Node4 -->
<g id="node4" class="node"><title>Node4</title>
<g id="a_node4"><a xlink:href="class_regexp_checker.html#aa775725022ae645c6d8f12633aa3a3d4" target="_top" xlink:title="RegexpChecker::op_enum">
<polygon fill="white" stroke="black" points="327,-50.9036 327,-69.9036 458,-69.9036 458,-50.9036 327,-50.9036"/>
<text text-anchor="middle" x="392.5" y="-57.9036" font-family="Helvetica,sans-Serif" font-size="10.00">RegexpChecker::op_enum</text>
</a>
</g>
</g>
<!-- Node2&#45;&gt;Node4 -->
<g id="edge3" class="edge"><title>Node2&#45;&gt;Node4</title>
<path fill="none" stroke="midnightblue" d="M291.284,-42.3437C309.908,-44.1885 329.716,-46.6361 346.761,-49.2362"/>
<polygon fill="midnightblue" stroke="midnightblue" points="346.555,-52.7476 356.982,-50.8709 347.66,-45.8354 346.555,-52.7476"/>
</g>
<!-- Node6 -->
<g id="node6" class="node"><title>Node6</title>
<g id="a_node6"><a xlink:href="class_regexp_checker.html#a5a34d99e02dba23757f33ce8107a961d" target="_top" xlink:title="RegexpChecker::op_iter">
<polygon fill="white" stroke="black" points="332,-12.9036 332,-31.9036 453,-31.9036 453,-12.9036 332,-12.9036"/>
<text text-anchor="middle" x="392.5" y="-19.9036" font-family="Helvetica,sans-Serif" font-size="10.00">RegexpChecker::op_iter</text>
</a>
</g>
</g>
<!-- Node2&#45;&gt;Node6 -->
<g id="edge7" class="edge"><title>Node2&#45;&gt;Node6</title>
<path fill="none" stroke="midnightblue" d="M259.499,-31.874C277.507,-28.8461 300.214,-25.8955 321.695,-23.6982"/>
<polygon fill="midnightblue" stroke="midnightblue" points="322.172,-27.1684 331.785,-22.7136 321.492,-20.2015 322.172,-27.1684"/>
</g>
<!-- Node4&#45;&gt;Node2 -->
<g id="edge4" class="edge"><title>Node4&#45;&gt;Node2</title>
<path fill="none" stroke="midnightblue" d="M326.762,-59.6155C307.595,-57.7448 287.048,-55.2176 269.472,-52.5302"/>
<polygon fill="midnightblue" stroke="midnightblue" points="269.927,-49.0585 259.499,-50.9331 268.82,-55.9704 269.927,-49.0585"/>
</g>
<!-- Node4&#45;&gt;Node5 -->
<g id="edge5" class="edge"><title>Node4&#45;&gt;Node5</title>
<path fill="none" stroke="midnightblue" d="M434.379,-50.8146C455.853,-45.7775 482.36,-39.5598 505.097,-34.2265"/>
<polygon fill="midnightblue" stroke="midnightblue" points="505.978,-37.6149 514.915,-31.9236 504.379,-30.7999 505.978,-37.6149"/>
</g>
<!-- Node6&#45;&gt;Node2 -->
<g id="edge9" class="edge"><title>Node6&#45;&gt;Node2</title>
<path fill="none" stroke="midnightblue" d="M356.982,-31.9363C340.809,-34.6552 320.848,-37.3116 301.39,-39.416"/>
<polygon fill="midnightblue" stroke="midnightblue" points="300.869,-35.9511 291.284,-40.4635 301.591,-42.9138 300.869,-35.9511"/>
</g>
<!-- Node6&#45;&gt;Node5 -->
<g id="edge8" class="edge"><title>Node6&#45;&gt;Node5</title>
<path fill="none" stroke="midnightblue" d="M453.363,-22.4036C463.3,-22.4036 473.693,-22.4036 483.886,-22.4036"/>
<polygon fill="midnightblue" stroke="midnightblue" points="483.987,-25.9037 493.987,-22.4036 483.987,-18.9037 483.987,-25.9037"/>
</g>
</g>
</svg>
