<?xml version="1.0" encoding="UTF-8" standalone="no"?>
<!DOCTYPE svg PUBLIC "-//W3C//DTD SVG 1.1//EN"
 "http://www.w3.org/Graphics/SVG/1.1/DTD/svg11.dtd">
<!-- Generated by graphviz version 2.38.0 (20140413.2041)
 -->
<!-- Title: SyntaxAnalyzer::init Pages: 1 -->
<svg width="434pt" height="66pt"
 viewBox="0.00 0.00 434.00 66.00" xmlns="http://www.w3.org/2000/svg" xmlns:xlink="http://www.w3.org/1999/xlink">
<g id="graph0" class="graph" transform="scale(1 1) rotate(0) translate(4 62)">
<title>SyntaxAnalyzer::init</title>
<polygon fill="white" stroke="none" points="-4,4 -4,-62 430,-62 430,4 -4,4"/>
<!-- Node1 -->
<g id="node1" class="node"><title>Node1</title>
<polygon fill="#bfbfbf" stroke="black" points="0,-19.5 0,-38.5 104,-38.5 104,-19.5 0,-19.5"/>
<text text-anchor="middle" x="52" y="-26.5" font-family="Helvetica,sans-Serif" font-size="10.00">SyntaxAnalyzer::init</text>
</g>
<!-- Node2 -->
<g id="node2" class="node"><title>Node2</title>
<g id="a_node2"><a xlink:href="class_syntax_analyzer.html#af4bb6b4b5a638914d5851082dd7a1669" target="_top" xlink:title="SyntaxAnalyzer::SyntaxAnalyzer">
<polygon fill="white" stroke="black" points="140,-38.5 140,-57.5 301,-57.5 301,-38.5 140,-38.5"/>
<text text-anchor="middle" x="220.5" y="-45.5" font-family="Helvetica,sans-Serif" font-size="10.00">SyntaxAnalyzer::SyntaxAnalyzer</text>
</a>
</g>
</g>
<!-- Node1&#45;&gt;Node2 -->
<g id="edge1" class="edge"><title>Node1&#45;&gt;Node2</title>
<path fill="none" stroke="midnightblue" d="M114.298,-35.9949C122.631,-36.9459 131.281,-37.933 139.879,-38.9141"/>
<polygon fill="midnightblue" stroke="midnightblue" points="114.646,-32.5121 104.314,-34.8557 113.853,-39.467 114.646,-32.5121"/>
</g>
<!-- Node3 -->
<g id="node3" class="node"><title>Node3</title>
<g id="a_node3"><a xlink:href="class_syntax_analyzer.html#a04fbf355b2afe30ef814048ecb029cf2" target="_top" xlink:title="SyntaxAnalyzer::analyze">
<polygon fill="white" stroke="black" points="158,-0.5 158,-19.5 283,-19.5 283,-0.5 158,-0.5"/>
<text text-anchor="middle" x="220.5" y="-7.5" font-family="Helvetica,sans-Serif" font-size="10.00">SyntaxAnalyzer::analyze</text>
</a>
</g>
</g>
<!-- Node1&#45;&gt;Node3 -->
<g id="edge2" class="edge"><title>Node1&#45;&gt;Node3</title>
<path fill="none" stroke="midnightblue" d="M114.435,-21.9894C128.59,-20.3741 143.65,-18.6556 157.815,-17.0391"/>
<polygon fill="midnightblue" stroke="midnightblue" points="113.853,-18.533 104.314,-23.1443 114.646,-25.4879 113.853,-18.533"/>
</g>
<!-- Node4 -->
<g id="node4" class="node"><title>Node4</title>
<g id="a_node4"><a xlink:href="class_regexp.html#abde3553b9033fd74f944dba8cdb6b9ea" target="_top" xlink:title="Regexp::Regexp">
<polygon fill="white" stroke="black" points="337,-0.5 337,-19.5 426,-19.5 426,-0.5 337,-0.5"/>
<text text-anchor="middle" x="381.5" y="-7.5" font-family="Helvetica,sans-Serif" font-size="10.00">Regexp::Regexp</text>
</a>
</g>
</g>
<!-- Node3&#45;&gt;Node4 -->
<g id="edge3" class="edge"><title>Node3&#45;&gt;Node4</title>
<path fill="none" stroke="midnightblue" d="M293.54,-10C308.26,-10 323.325,-10 336.691,-10"/>
<polygon fill="midnightblue" stroke="midnightblue" points="293.429,-6.5001 283.429,-10 293.429,-13.5001 293.429,-6.5001"/>
</g>
</g>
</svg>
