<?xml version="1.0" encoding="UTF-8" standalone="no"?>
<!DOCTYPE svg PUBLIC "-//W3C//DTD SVG 1.1//EN"
 "http://www.w3.org/Graphics/SVG/1.1/DTD/svg11.dtd">
<!-- Generated by graphviz version 2.38.0 (20140413.2041)
 -->
<!-- Title: RegexpChecker::op_enum Pages: 1 -->
<svg width="587pt" height="123pt"
 viewBox="0.00 0.00 587.00 123.00" xmlns="http://www.w3.org/2000/svg" xmlns:xlink="http://www.w3.org/1999/xlink">
<g id="graph0" class="graph" transform="scale(1 1) rotate(0) translate(4 119)">
<title>RegexpChecker::op_enum</title>
<polygon fill="white" stroke="none" points="-4,4 -4,-119 583,-119 583,4 -4,4"/>
<!-- Node1 -->
<g id="node1" class="node"><title>Node1</title>
<polygon fill="#bfbfbf" stroke="black" points="0,-38.5 0,-57.5 131,-57.5 131,-38.5 0,-38.5"/>
<text text-anchor="middle" x="65.5" y="-45.5" font-family="Helvetica,sans-Serif" font-size="10.00">RegexpChecker::op_enum</text>
</g>
<!-- Node2 -->
<g id="node2" class="node"><title>Node2</title>
<g id="a_node2"><a xlink:href="class_regexp_checker.html#a12a12dfe322def2c802afd2ebea0b75f" target="_top" xlink:title="RegexpChecker::check_op">
<polygon fill="white" stroke="black" points="167,-38.5 167,-57.5 301,-57.5 301,-38.5 167,-38.5"/>
<text text-anchor="middle" x="234" y="-45.5" font-family="Helvetica,sans-Serif" font-size="10.00">RegexpChecker::check_op</text>
</a>
</g>
</g>
<!-- Node1&#45;&gt;Node2 -->
<g id="edge1" class="edge"><title>Node1&#45;&gt;Node2</title>
<path fill="none" stroke="midnightblue" d="M141.589,-41.2789C150.049,-41.2188 158.623,-41.2524 166.956,-41.3798"/>
<polygon fill="midnightblue" stroke="midnightblue" points="141.308,-37.7819 131.35,-41.3987 141.39,-44.7814 141.308,-37.7819"/>
</g>
<!-- Node2&#45;&gt;Node1 -->
<g id="edge5" class="edge"><title>Node2&#45;&gt;Node1</title>
<path fill="none" stroke="midnightblue" d="M156.696,-54.7291C148.226,-54.7802 139.659,-54.7376 131.35,-54.6013"/>
<polygon fill="midnightblue" stroke="midnightblue" points="156.993,-58.2262 166.956,-54.6202 156.919,-51.2266 156.993,-58.2262"/>
</g>
<!-- Node3 -->
<g id="node3" class="node"><title>Node3</title>
<g id="a_node3"><a xlink:href="class_regexp_checker.html#a58d9c7c69c53ef18fa6ddb6a2c4bf24f" target="_top" xlink:title="RegexpChecker::check">
<polygon fill="white" stroke="black" points="338.5,-76.5 338.5,-95.5 456.5,-95.5 456.5,-76.5 338.5,-76.5"/>
<text text-anchor="middle" x="397.5" y="-83.5" font-family="Helvetica,sans-Serif" font-size="10.00">RegexpChecker::check</text>
</a>
</g>
</g>
<!-- Node2&#45;&gt;Node3 -->
<g id="edge2" class="edge"><title>Node2&#45;&gt;Node3</title>
<path fill="none" stroke="midnightblue" d="M285.558,-59.8961C308.259,-65.2374 334.678,-71.4537 356.04,-76.4799"/>
<polygon fill="midnightblue" stroke="midnightblue" points="286.289,-56.4725 275.753,-57.589 284.686,-63.2864 286.289,-56.4725"/>
</g>
<!-- Node6 -->
<g id="node6" class="node"><title>Node6</title>
<g id="a_node6"><a xlink:href="class_regexp_checker.html#a3f379e2420eacf52f91afce6e0ade9e4" target="_top" xlink:title="RegexpChecker::op_cat">
<polygon fill="white" stroke="black" points="337,-38.5 337,-57.5 458,-57.5 458,-38.5 337,-38.5"/>
<text text-anchor="middle" x="397.5" y="-45.5" font-family="Helvetica,sans-Serif" font-size="10.00">RegexpChecker::op_cat</text>
</a>
</g>
</g>
<!-- Node2&#45;&gt;Node6 -->
<g id="edge6" class="edge"><title>Node2&#45;&gt;Node6</title>
<path fill="none" stroke="midnightblue" d="M311.229,-41.2594C319.859,-41.2234 328.558,-41.2906 336.93,-41.4607"/>
<polygon fill="midnightblue" stroke="midnightblue" points="311.123,-37.7601 301.154,-41.349 311.185,-44.7598 311.123,-37.7601"/>
</g>
<!-- Node7 -->
<g id="node7" class="node"><title>Node7</title>
<g id="a_node7"><a xlink:href="class_regexp_checker.html#a5a34d99e02dba23757f33ce8107a961d" target="_top" xlink:title="RegexpChecker::op_iter">
<polygon fill="white" stroke="black" points="337,-0.5 337,-19.5 458,-19.5 458,-0.5 337,-0.5"/>
<text text-anchor="middle" x="397.5" y="-7.5" font-family="Helvetica,sans-Serif" font-size="10.00">RegexpChecker::op_iter</text>
</a>
</g>
</g>
<!-- Node2&#45;&gt;Node7 -->
<g id="edge8" class="edge"><title>Node2&#45;&gt;Node7</title>
<path fill="none" stroke="midnightblue" d="M265.338,-35.4527C285.457,-29.4714 312.536,-22.7226 336.865,-17.4912"/>
<polygon fill="midnightblue" stroke="midnightblue" points="264.302,-32.1093 255.783,-38.4076 266.37,-38.7968 264.302,-32.1093"/>
</g>
<!-- Node4 -->
<g id="node4" class="node"><title>Node4</title>
<g id="a_node4"><a xlink:href="class_regexp.html#a7869806d5707d47742db7ad5129b6585" target="_top" xlink:title="Regexp::match">
<polygon fill="white" stroke="black" points="495,-95.5 495,-114.5 578,-114.5 578,-95.5 495,-95.5"/>
<text text-anchor="middle" x="536.5" y="-102.5" font-family="Helvetica,sans-Serif" font-size="10.00">Regexp::match</text>
</a>
</g>
</g>
<!-- Node3&#45;&gt;Node4 -->
<g id="edge3" class="edge"><title>Node3&#45;&gt;Node4</title>
<path fill="none" stroke="midnightblue" d="M466.595,-95.4439C476.221,-96.7788 485.857,-98.1152 494.743,-99.3476"/>
<polygon fill="midnightblue" stroke="midnightblue" points="466.986,-91.9647 456.6,-94.0577 466.025,-98.8983 466.986,-91.9647"/>
</g>
<!-- Node5 -->
<g id="node5" class="node"><title>Node5</title>
<g id="a_node5"><a xlink:href="class_regexp.html#af7c296f94f7577ce0fa662c78268659e" target="_top" xlink:title="Regexp::search">
<polygon fill="white" stroke="black" points="494,-57.5 494,-76.5 579,-76.5 579,-57.5 494,-57.5"/>
<text text-anchor="middle" x="536.5" y="-64.5" font-family="Helvetica,sans-Serif" font-size="10.00">Regexp::search</text>
</a>
</g>
</g>
<!-- Node3&#45;&gt;Node5 -->
<g id="edge4" class="edge"><title>Node3&#45;&gt;Node5</title>
<path fill="none" stroke="midnightblue" d="M466.664,-76.5465C475.972,-75.2557 485.288,-73.9637 493.925,-72.7659"/>
<polygon fill="midnightblue" stroke="midnightblue" points="466.025,-73.1017 456.6,-77.9423 466.986,-80.0353 466.025,-73.1017"/>
</g>
<!-- Node6&#45;&gt;Node2 -->
<g id="edge7" class="edge"><title>Node6&#45;&gt;Node2</title>
<path fill="none" stroke="midnightblue" d="M326.696,-54.6946C318.218,-54.7809 309.577,-54.7664 301.154,-54.651"/>
<polygon fill="midnightblue" stroke="midnightblue" points="326.984,-58.1907 336.93,-54.5393 326.878,-51.1915 326.984,-58.1907"/>
</g>
<!-- Node7&#45;&gt;Node2 -->
<g id="edge9" class="edge"><title>Node7&#45;&gt;Node2</title>
<path fill="none" stroke="midnightblue" d="M366.378,-22.4832C348.013,-27.9514 323.792,-34.0689 301.154,-39.0853"/>
<polygon fill="midnightblue" stroke="midnightblue" points="367.415,-25.8262 375.931,-19.5233 365.343,-19.1398 367.415,-25.8262"/>
</g>
</g>
</svg>
