<?xml version="1.0" encoding="UTF-8" standalone="no"?>
<!DOCTYPE svg PUBLIC "-//W3C//DTD SVG 1.1//EN"
 "http://www.w3.org/Graphics/SVG/1.1/DTD/svg11.dtd">
<!-- Generated by graphviz version 2.38.0 (20140413.2041)
 -->
<!-- Title: RegexpChecker::check Pages: 1 -->
<svg width="378pt" height="66pt"
 viewBox="0.00 0.00 378.00 66.00" xmlns="http://www.w3.org/2000/svg" xmlns:xlink="http://www.w3.org/1999/xlink">
<g id="graph0" class="graph" transform="scale(1 1) rotate(0) translate(4 62)">
<title>RegexpChecker::check</title>
<polygon fill="white" stroke="none" points="-4,4 -4,-62 374,-62 374,4 -4,4"/>
<!-- Node1 -->
<g id="node1" class="node"><title>Node1</title>
<polygon fill="#bfbfbf" stroke="black" points="0,-19.5 0,-38.5 118,-38.5 118,-19.5 0,-19.5"/>
<text text-anchor="middle" x="59" y="-26.5" font-family="Helvetica,sans-Serif" font-size="10.00">RegexpChecker::check</text>
</g>
<!-- Node2 -->
<g id="node2" class="node"><title>Node2</title>
<g id="a_node2"><a xlink:href="class_regexp.html#a7869806d5707d47742db7ad5129b6585" target="_top" xlink:title="Regexp::match">
<polygon fill="white" stroke="black" points="155,-38.5 155,-57.5 238,-57.5 238,-38.5 155,-38.5"/>
<text text-anchor="middle" x="196.5" y="-45.5" font-family="Helvetica,sans-Serif" font-size="10.00">Regexp::match</text>
</a>
</g>
</g>
<!-- Node1&#45;&gt;Node2 -->
<g id="edge1" class="edge"><title>Node1&#45;&gt;Node2</title>
<path fill="none" stroke="midnightblue" d="M128.433,-38.5958C137.476,-39.8638 146.503,-41.1295 154.868,-42.3026"/>
<polygon fill="midnightblue" stroke="midnightblue" points="128.64,-35.0906 118.251,-37.168 127.668,-42.0228 128.64,-35.0906"/>
</g>
<!-- Node5 -->
<g id="node5" class="node"><title>Node5</title>
<g id="a_node5"><a xlink:href="class_regexp.html#af7c296f94f7577ce0fa662c78268659e" target="_top" xlink:title="Regexp::search">
<polygon fill="white" stroke="black" points="154,-0.5 154,-19.5 239,-19.5 239,-0.5 154,-0.5"/>
<text text-anchor="middle" x="196.5" y="-7.5" font-family="Helvetica,sans-Serif" font-size="10.00">Regexp::search</text>
</a>
</g>
</g>
<!-- Node1&#45;&gt;Node5 -->
<g id="edge4" class="edge"><title>Node1&#45;&gt;Node5</title>
<path fill="none" stroke="midnightblue" d="M128.358,-19.4147C136.992,-18.2041 145.613,-16.9953 153.659,-15.867"/>
<polygon fill="midnightblue" stroke="midnightblue" points="127.668,-15.9772 118.251,-20.832 128.64,-22.9094 127.668,-15.9772"/>
</g>
<!-- Node3 -->
<g id="node3" class="node"><title>Node3</title>
<g id="a_node3"><a xlink:href="main_8cpp.html#a3c04138a5bfe5d72780bb7e82a18e627" target="_top" xlink:title="main">
<polygon fill="white" stroke="black" points="303.5,-38.5 303.5,-57.5 341.5,-57.5 341.5,-38.5 303.5,-38.5"/>
<text text-anchor="middle" x="322.5" y="-45.5" font-family="Helvetica,sans-Serif" font-size="10.00">main</text>
</a>
</g>
</g>
<!-- Node2&#45;&gt;Node3 -->
<g id="edge2" class="edge"><title>Node2&#45;&gt;Node3</title>
<path fill="none" stroke="midnightblue" d="M248.144,-48C267.702,-48 288.821,-48 303.353,-48"/>
<polygon fill="midnightblue" stroke="midnightblue" points="248.102,-44.5001 238.102,-48 248.102,-51.5001 248.102,-44.5001"/>
</g>
<!-- Node4 -->
<g id="node4" class="node"><title>Node4</title>
<g id="a_node4"><a xlink:href="class_regexp.html#ada3dfc1370864a39089592fbe27ef19d" target="_top" xlink:title="Regexp::~Regexp">
<polygon fill="white" stroke="black" points="275,-0.5 275,-19.5 370,-19.5 370,-0.5 275,-0.5"/>
<text text-anchor="middle" x="322.5" y="-7.5" font-family="Helvetica,sans-Serif" font-size="10.00">Regexp::~Regexp</text>
</a>
</g>
</g>
<!-- Node2&#45;&gt;Node4 -->
<g id="edge3" class="edge"><title>Node2&#45;&gt;Node4</title>
<path fill="none" stroke="midnightblue" d="M238.405,-35.4647C255.273,-30.2952 274.508,-24.4009 290.22,-19.5859"/>
<polygon fill="midnightblue" stroke="midnightblue" points="237.326,-32.1345 228.79,-38.411 239.377,-38.8273 237.326,-32.1345"/>
</g>
<!-- Node5&#45;&gt;Node3 -->
<g id="edge5" class="edge"><title>Node5&#45;&gt;Node3</title>
<path fill="none" stroke="midnightblue" d="M238.538,-22.5763C260.462,-29.2948 286.349,-37.228 303.303,-42.4236"/>
<polygon fill="midnightblue" stroke="midnightblue" points="239.377,-19.1727 228.79,-19.589 237.326,-25.8655 239.377,-19.1727"/>
</g>
<!-- Node5&#45;&gt;Node4 -->
<g id="edge6" class="edge"><title>Node5&#45;&gt;Node4</title>
<path fill="none" stroke="midnightblue" d="M249.235,-10C257.656,-10 266.337,-10 274.633,-10"/>
<polygon fill="midnightblue" stroke="midnightblue" points="249.135,-6.5001 239.135,-10 249.135,-13.5001 249.135,-6.5001"/>
</g>
</g>
</svg>
