<?xml version="1.0" encoding="UTF-8" standalone="no"?>
<!DOCTYPE svg PUBLIC "-//W3C//DTD SVG 1.1//EN"
 "http://www.w3.org/Graphics/SVG/1.1/DTD/svg11.dtd">
<!-- Generated by graphviz version 2.38.0 (20140413.2041)
 -->
<!-- Title: main Pages: 1 -->
<svg width="819pt" height="142pt"
 viewBox="0.00 0.00 819.00 142.00" xmlns="http://www.w3.org/2000/svg" xmlns:xlink="http://www.w3.org/1999/xlink">
<g id="graph0" class="graph" transform="scale(1 1) rotate(0) translate(4 138)">
<title>main</title>
<polygon fill="white" stroke="none" points="-4,4 -4,-138 815,-138 815,4 -4,4"/>
<!-- Node1 -->
<g id="node1" class="node"><title>Node1</title>
<polygon fill="#bfbfbf" stroke="black" points="0,-38.5 0,-57.5 38,-57.5 38,-38.5 0,-38.5"/>
<text text-anchor="middle" x="19" y="-45.5" font-family="Helvetica,sans-Serif" font-size="10.00">main</text>
</g>
<!-- Node2 -->
<g id="node2" class="node"><title>Node2</title>
<g id="a_node2"><a xlink:href="class_regexp.html#af7c296f94f7577ce0fa662c78268659e" target="_top" xlink:title="Regexp::search">
<polygon fill="white" stroke="black" points="74,-57.5 74,-76.5 159,-76.5 159,-57.5 74,-57.5"/>
<text text-anchor="middle" x="116.5" y="-64.5" font-family="Helvetica,sans-Serif" font-size="10.00">Regexp::search</text>
</a>
</g>
</g>
<!-- Node1&#45;&gt;Node2 -->
<g id="edge1" class="edge"><title>Node1&#45;&gt;Node2</title>
<path fill="none" stroke="midnightblue" d="M38.4134,-51.6634C45.817,-53.1364 54.7568,-54.915 63.8862,-56.7313"/>
<polygon fill="midnightblue" stroke="midnightblue" points="63.3126,-60.1857 73.8033,-58.7043 64.6785,-53.3202 63.3126,-60.1857"/>
</g>
<!-- Node10 -->
<g id="node10" class="node"><title>Node10</title>
<g id="a_node10"><a xlink:href="class_regexp.html#a7869806d5707d47742db7ad5129b6585" target="_top" xlink:title="Regexp::match">
<polygon fill="white" stroke="black" points="75,-19.5 75,-38.5 158,-38.5 158,-19.5 75,-19.5"/>
<text text-anchor="middle" x="116.5" y="-26.5" font-family="Helvetica,sans-Serif" font-size="10.00">Regexp::match</text>
</a>
</g>
</g>
<!-- Node1&#45;&gt;Node10 -->
<g id="edge14" class="edge"><title>Node1&#45;&gt;Node10</title>
<path fill="none" stroke="midnightblue" d="M38.4134,-44.3366C46.1371,-42.8 55.5328,-40.9307 65.0714,-39.0329"/>
<polygon fill="midnightblue" stroke="midnightblue" points="65.8746,-42.4418 74.9994,-37.0577 64.5086,-35.5764 65.8746,-42.4418"/>
</g>
<!-- Node3 -->
<g id="node3" class="node"><title>Node3</title>
<g id="a_node3"><a xlink:href="class_regexp_checker.html#a58d9c7c69c53ef18fa6ddb6a2c4bf24f" target="_top" xlink:title="RegexpChecker::check">
<polygon fill="white" stroke="black" points="195,-38.5 195,-57.5 313,-57.5 313,-38.5 195,-38.5"/>
<text text-anchor="middle" x="254" y="-45.5" font-family="Helvetica,sans-Serif" font-size="10.00">RegexpChecker::check</text>
</a>
</g>
</g>
<!-- Node2&#45;&gt;Node3 -->
<g id="edge2" class="edge"><title>Node2&#45;&gt;Node3</title>
<path fill="none" stroke="midnightblue" d="M159.26,-61.1443C167.308,-60.0158 175.933,-58.8064 184.573,-57.595"/>
<polygon fill="midnightblue" stroke="midnightblue" points="185.271,-61.0314 194.688,-56.1766 184.299,-54.0992 185.271,-61.0314"/>
</g>
<!-- Node4 -->
<g id="node4" class="node"><title>Node4</title>
<g id="a_node4"><a xlink:href="class_regexp_checker.html#a12a12dfe322def2c802afd2ebea0b75f" target="_top" xlink:title="RegexpChecker::check_op">
<polygon fill="white" stroke="black" points="349,-38.5 349,-57.5 483,-57.5 483,-38.5 349,-38.5"/>
<text text-anchor="middle" x="416" y="-45.5" font-family="Helvetica,sans-Serif" font-size="10.00">RegexpChecker::check_op</text>
</a>
</g>
</g>
<!-- Node3&#45;&gt;Node4 -->
<g id="edge3" class="edge"><title>Node3&#45;&gt;Node4</title>
<path fill="none" stroke="midnightblue" d="M313.216,-48C321.565,-48 330.256,-48 338.887,-48"/>
<polygon fill="midnightblue" stroke="midnightblue" points="338.967,-51.5001 348.967,-48 338.967,-44.5001 338.967,-51.5001"/>
</g>
<!-- Node5 -->
<g id="node5" class="node"><title>Node5</title>
<g id="a_node5"><a xlink:href="class_regexp_checker.html#ad48539a0443212d78e32ff0a23918478" target="_top" xlink:title="RegexpChecker::op_str">
<polygon fill="white" stroke="black" points="525,-114.5 525,-133.5 644,-133.5 644,-114.5 525,-114.5"/>
<text text-anchor="middle" x="584.5" y="-121.5" font-family="Helvetica,sans-Serif" font-size="10.00">RegexpChecker::op_str</text>
</a>
</g>
</g>
<!-- Node4&#45;&gt;Node5 -->
<g id="edge4" class="edge"><title>Node4&#45;&gt;Node5</title>
<path fill="none" stroke="midnightblue" d="M431.676,-57.587C451.034,-69.9028 486.462,-91.3186 519,-105 524.446,-107.29 530.26,-109.417 536.083,-111.356"/>
<polygon fill="midnightblue" stroke="midnightblue" points="535.238,-114.76 545.828,-114.438 537.349,-108.086 535.238,-114.76"/>
</g>
<!-- Node6 -->
<g id="node6" class="node"><title>Node6</title>
<g id="a_node6"><a xlink:href="class_regexp_checker.html#aa775725022ae645c6d8f12633aa3a3d4" target="_top" xlink:title="RegexpChecker::op_enum">
<polygon fill="white" stroke="black" points="519,-76.5 519,-95.5 650,-95.5 650,-76.5 519,-76.5"/>
<text text-anchor="middle" x="584.5" y="-83.5" font-family="Helvetica,sans-Serif" font-size="10.00">RegexpChecker::op_enum</text>
</a>
</g>
</g>
<!-- Node4&#45;&gt;Node6 -->
<g id="edge5" class="edge"><title>Node4&#45;&gt;Node6</title>
<path fill="none" stroke="midnightblue" d="M483.284,-56.504C507.114,-61.5837 532.881,-67.8713 552.319,-73.4805"/>
<polygon fill="midnightblue" stroke="midnightblue" points="551.555,-76.9052 562.139,-76.428 553.567,-70.2007 551.555,-76.9052"/>
</g>
<!-- Node8 -->
<g id="node8" class="node"><title>Node8</title>
<g id="a_node8"><a xlink:href="class_regexp_checker.html#a3f379e2420eacf52f91afce6e0ade9e4" target="_top" xlink:title="RegexpChecker::op_cat">
<polygon fill="white" stroke="black" points="524,-38.5 524,-57.5 645,-57.5 645,-38.5 524,-38.5"/>
<text text-anchor="middle" x="584.5" y="-45.5" font-family="Helvetica,sans-Serif" font-size="10.00">RegexpChecker::op_cat</text>
</a>
</g>
</g>
<!-- Node4&#45;&gt;Node8 -->
<g id="edge8" class="edge"><title>Node4&#45;&gt;Node8</title>
<path fill="none" stroke="midnightblue" d="M483.284,-41.3762C493.35,-41.2246 503.762,-41.2096 513.896,-41.3313"/>
<polygon fill="midnightblue" stroke="midnightblue" points="513.858,-44.831 523.915,-41.4985 513.975,-37.832 513.858,-44.831"/>
</g>
<!-- Node9 -->
<g id="node9" class="node"><title>Node9</title>
<g id="a_node9"><a xlink:href="class_regexp_checker.html#a5a34d99e02dba23757f33ce8107a961d" target="_top" xlink:title="RegexpChecker::op_iter">
<polygon fill="white" stroke="black" points="524,-0.5 524,-19.5 645,-19.5 645,-0.5 524,-0.5"/>
<text text-anchor="middle" x="584.5" y="-7.5" font-family="Helvetica,sans-Serif" font-size="10.00">RegexpChecker::op_iter</text>
</a>
</g>
</g>
<!-- Node4&#45;&gt;Node9 -->
<g id="edge11" class="edge"><title>Node4&#45;&gt;Node9</title>
<path fill="none" stroke="midnightblue" d="M438.426,-38.4076C457.591,-32.3956 486.77,-25.0809 513.947,-19.2059"/>
<polygon fill="midnightblue" stroke="midnightblue" points="514.787,-22.6056 523.846,-17.1117 513.338,-15.7572 514.787,-22.6056"/>
</g>
<!-- Node6&#45;&gt;Node4 -->
<g id="edge6" class="edge"><title>Node6&#45;&gt;Node4</title>
<path fill="none" stroke="midnightblue" d="M518.705,-77.8123C494.454,-72.6768 468.003,-66.2404 448.156,-60.5125"/>
<polygon fill="midnightblue" stroke="midnightblue" points="449.01,-57.1146 438.426,-57.5924 446.998,-63.8192 449.01,-57.1146"/>
</g>
<!-- Node7 -->
<g id="node7" class="node"><title>Node7</title>
<g id="a_node7"><a xlink:href="class_regexp_checker.html#adf00606a82e27c614122d001f21f9f96" target="_top" xlink:title="Пропускает текущую операцию ">
<polygon fill="white" stroke="black" points="686,-38.5 686,-57.5 811,-57.5 811,-38.5 686,-38.5"/>
<text text-anchor="middle" x="748.5" y="-45.5" font-family="Helvetica,sans-Serif" font-size="10.00">RegexpChecker::skip_op</text>
</a>
</g>
</g>
<!-- Node6&#45;&gt;Node7 -->
<g id="edge7" class="edge"><title>Node6&#45;&gt;Node7</title>
<path fill="none" stroke="midnightblue" d="M626.379,-76.411C647.853,-71.3739 674.36,-65.1562 697.097,-59.8229"/>
<polygon fill="midnightblue" stroke="midnightblue" points="697.978,-63.2113 706.915,-57.5201 696.379,-56.3963 697.978,-63.2113"/>
</g>
<!-- Node8&#45;&gt;Node4 -->
<g id="edge9" class="edge"><title>Node8&#45;&gt;Node4</title>
<path fill="none" stroke="midnightblue" d="M523.915,-54.5015C514.035,-54.7143 503.669,-54.7904 493.442,-54.7299"/>
<polygon fill="midnightblue" stroke="midnightblue" points="493.32,-51.2285 483.284,-54.6238 493.246,-58.2281 493.32,-51.2285"/>
</g>
<!-- Node8&#45;&gt;Node7 -->
<g id="edge10" class="edge"><title>Node8&#45;&gt;Node7</title>
<path fill="none" stroke="midnightblue" d="M645.363,-48C655.3,-48 665.693,-48 675.886,-48"/>
<polygon fill="midnightblue" stroke="midnightblue" points="675.987,-51.5001 685.987,-48 675.987,-44.5001 675.987,-51.5001"/>
</g>
<!-- Node9&#45;&gt;Node4 -->
<g id="edge13" class="edge"><title>Node9&#45;&gt;Node4</title>
<path fill="none" stroke="midnightblue" d="M562.139,-19.572C544.541,-25.0963 518.468,-31.7242 493.256,-37.325"/>
<polygon fill="midnightblue" stroke="midnightblue" points="492.31,-33.9488 483.284,-39.496 493.799,-40.7886 492.31,-33.9488"/>
</g>
<!-- Node9&#45;&gt;Node7 -->
<g id="edge12" class="edge"><title>Node9&#45;&gt;Node7</title>
<path fill="none" stroke="midnightblue" d="M626.379,-19.589C647.853,-24.6261 674.36,-30.8438 697.097,-36.1771"/>
<polygon fill="midnightblue" stroke="midnightblue" points="696.379,-39.6037 706.915,-38.4799 697.978,-32.7887 696.379,-39.6037"/>
</g>
<!-- Node10&#45;&gt;Node3 -->
<g id="edge15" class="edge"><title>Node10&#45;&gt;Node3</title>
<path fill="none" stroke="midnightblue" d="M158.154,-34.7006C166.627,-35.8887 175.777,-37.1716 184.934,-38.4557"/>
<polygon fill="midnightblue" stroke="midnightblue" points="184.452,-41.9223 194.842,-39.845 185.425,-34.9901 184.452,-41.9223"/>
</g>
</g>
</svg>
