<?xml version="1.0" encoding="UTF-8" standalone="no"?>
<!DOCTYPE svg PUBLIC "-//W3C//DTD SVG 1.1//EN"
 "http://www.w3.org/Graphics/SVG/1.1/DTD/svg11.dtd">
<!-- Generated by graphviz version 2.38.0 (20140413.2041)
 -->
<!-- Title: main.cpp Pages: 1 -->
<svg width="769pt" height="196pt"
 viewBox="0.00 0.00 768.50 196.00" xmlns="http://www.w3.org/2000/svg" xmlns:xlink="http://www.w3.org/1999/xlink">
<g id="graph0" class="graph" transform="scale(1 1) rotate(0) translate(4 192)">
<title>main.cpp</title>
<polygon fill="white" stroke="none" points="-4,4 -4,-192 764.5,-192 764.5,4 -4,4"/>
<!-- Node1 -->
<g id="node1" class="node"><title>Node1</title>
<polygon fill="#bfbfbf" stroke="black" points="197,-168.5 197,-187.5 253,-187.5 253,-168.5 197,-168.5"/>
<text text-anchor="middle" x="225" y="-175.5" font-family="Helvetica,sans-Serif" font-size="10.00">main.cpp</text>
</g>
<!-- Node2 -->
<g id="node2" class="node"><title>Node2</title>
<polygon fill="white" stroke="#bfbfbf" points="130,-112.5 130,-131.5 184,-131.5 184,-112.5 130,-112.5"/>
<text text-anchor="middle" x="157" y="-119.5" font-family="Helvetica,sans-Serif" font-size="10.00">iostream</text>
</g>
<!-- Node1&#45;&gt;Node2 -->
<g id="edge1" class="edge"><title>Node1&#45;&gt;Node2</title>
<path fill="none" stroke="midnightblue" d="M214.075,-168.324C203.825,-160.185 188.279,-147.839 175.999,-138.087"/>
<polygon fill="midnightblue" stroke="midnightblue" points="178.132,-135.312 168.124,-131.834 173.779,-140.794 178.132,-135.312"/>
</g>
<!-- Node3 -->
<g id="node3" class="node"><title>Node3</title>
<polygon fill="white" stroke="#bfbfbf" points="202,-112.5 202,-131.5 248,-131.5 248,-112.5 202,-112.5"/>
<text text-anchor="middle" x="225" y="-119.5" font-family="Helvetica,sans-Serif" font-size="10.00">cstring</text>
</g>
<!-- Node1&#45;&gt;Node3 -->
<g id="edge2" class="edge"><title>Node1&#45;&gt;Node3</title>
<path fill="none" stroke="midnightblue" d="M225,-168.083C225,-161.006 225,-150.861 225,-141.986"/>
<polygon fill="midnightblue" stroke="midnightblue" points="228.5,-141.751 225,-131.751 221.5,-141.751 228.5,-141.751"/>
</g>
<!-- Node4 -->
<g id="node4" class="node"><title>Node4</title>
<g id="a_node4"><a xlink:href="_regexp_8h.html" target="_top" xlink:title="Заголовочный файл класса регулярного выражения ">
<polygon fill="white" stroke="black" points="266,-112.5 266,-131.5 324,-131.5 324,-112.5 266,-112.5"/>
<text text-anchor="middle" x="295" y="-119.5" font-family="Helvetica,sans-Serif" font-size="10.00">Regexp.h</text>
</a>
</g>
</g>
<!-- Node1&#45;&gt;Node4 -->
<g id="edge3" class="edge"><title>Node1&#45;&gt;Node4</title>
<path fill="none" stroke="midnightblue" d="M236.247,-168.324C246.797,-160.185 262.801,-147.839 275.442,-138.087"/>
<polygon fill="midnightblue" stroke="midnightblue" points="277.769,-140.713 283.549,-131.834 273.493,-135.171 277.769,-140.713"/>
</g>
<!-- Node5 -->
<g id="node5" class="node"><title>Node5</title>
<g id="a_node5"><a xlink:href="_lexical_analyzer_8h.html" target="_top" xlink:title="Заголовочный файл лексического анализатора ">
<polygon fill="white" stroke="black" points="136,-56.5 136,-75.5 230,-75.5 230,-56.5 136,-56.5"/>
<text text-anchor="middle" x="183" y="-63.5" font-family="Helvetica,sans-Serif" font-size="10.00">LexicalAnalyzer.h</text>
</a>
</g>
</g>
<!-- Node4&#45;&gt;Node5 -->
<g id="edge4" class="edge"><title>Node4&#45;&gt;Node5</title>
<path fill="none" stroke="midnightblue" d="M277.005,-112.324C258.962,-103.625 230.953,-90.1202 210.197,-80.113"/>
<polygon fill="midnightblue" stroke="midnightblue" points="211.478,-76.8449 200.95,-75.6545 208.438,-83.1502 211.478,-76.8449"/>
</g>
<!-- Node11 -->
<g id="node11" class="node"><title>Node11</title>
<g id="a_node11"><a xlink:href="_syntax_analyzer_8h.html" target="_top" xlink:title="Заголовочный файл синтаксического анализатора ">
<polygon fill="white" stroke="black" points="248,-56.5 248,-75.5 342,-75.5 342,-56.5 248,-56.5"/>
<text text-anchor="middle" x="295" y="-63.5" font-family="Helvetica,sans-Serif" font-size="10.00">SyntaxAnalyzer.h</text>
</a>
</g>
</g>
<!-- Node4&#45;&gt;Node11 -->
<g id="edge10" class="edge"><title>Node4&#45;&gt;Node11</title>
<path fill="none" stroke="midnightblue" d="M295,-112.083C295,-105.006 295,-94.8611 295,-85.9865"/>
<polygon fill="midnightblue" stroke="midnightblue" points="298.5,-85.751 295,-75.7511 291.5,-85.7511 298.5,-85.751"/>
</g>
<!-- Node14 -->
<g id="node14" class="node"><title>Node14</title>
<g id="a_node14"><a xlink:href="_regexp_checker_8h.html" target="_top" xlink:title="Заголовочный файл класса, проверяющего строки ">
<polygon fill="white" stroke="black" points="368,-56.5 368,-75.5 462,-75.5 462,-56.5 368,-56.5"/>
<text text-anchor="middle" x="415" y="-63.5" font-family="Helvetica,sans-Serif" font-size="10.00">RegexpChecker.h</text>
</a>
</g>
</g>
<!-- Node4&#45;&gt;Node14 -->
<g id="edge17" class="edge"><title>Node4&#45;&gt;Node14</title>
<path fill="none" stroke="midnightblue" d="M314.014,-112.444C333.588,-103.636 364.308,-89.8116 386.729,-79.722"/>
<polygon fill="midnightblue" stroke="midnightblue" points="388.392,-82.8119 396.075,-75.5164 385.519,-76.4284 388.392,-82.8119"/>
</g>
<!-- Node6 -->
<g id="node6" class="node"><title>Node6</title>
<polygon fill="white" stroke="#bfbfbf" points="265.5,-0.5 265.5,-19.5 306.5,-19.5 306.5,-0.5 265.5,-0.5"/>
<text text-anchor="middle" x="286" y="-7.5" font-family="Helvetica,sans-Serif" font-size="10.00">string</text>
</g>
<!-- Node5&#45;&gt;Node6 -->
<g id="edge5" class="edge"><title>Node5&#45;&gt;Node6</title>
<path fill="none" stroke="midnightblue" d="M199.549,-56.324C215.992,-47.7034 241.435,-34.3643 260.468,-24.3855"/>
<polygon fill="midnightblue" stroke="midnightblue" points="262.261,-27.3977 269.492,-19.6545 259.011,-21.198 262.261,-27.3977"/>
</g>
<!-- Node7 -->
<g id="node7" class="node"><title>Node7</title>
<polygon fill="white" stroke="#bfbfbf" points="325,-0.5 325,-19.5 367,-19.5 367,-0.5 325,-0.5"/>
<text text-anchor="middle" x="346" y="-7.5" font-family="Helvetica,sans-Serif" font-size="10.00">vector</text>
</g>
<!-- Node5&#45;&gt;Node7 -->
<g id="edge6" class="edge"><title>Node5&#45;&gt;Node7</title>
<path fill="none" stroke="midnightblue" d="M208.828,-56.4435C237.701,-46.8782 284.431,-31.3969 315.189,-21.2075"/>
<polygon fill="midnightblue" stroke="midnightblue" points="316.566,-24.4383 324.958,-17.971 314.365,-17.7934 316.566,-24.4383"/>
</g>
<!-- Node8 -->
<g id="node8" class="node"><title>Node8</title>
<polygon fill="white" stroke="#bfbfbf" points="0,-0.5 0,-19.5 46,-19.5 46,-0.5 0,-0.5"/>
<text text-anchor="middle" x="23" y="-7.5" font-family="Helvetica,sans-Serif" font-size="10.00">cctype</text>
</g>
<!-- Node5&#45;&gt;Node8 -->
<g id="edge7" class="edge"><title>Node5&#45;&gt;Node8</title>
<path fill="none" stroke="midnightblue" d="M157.648,-56.4435C130.097,-47.1454 85.9843,-32.2572 55.8103,-22.0735"/>
<polygon fill="midnightblue" stroke="midnightblue" points="56.75,-18.6967 46.1559,-18.8151 54.5115,-25.3292 56.75,-18.6967"/>
</g>
<!-- Node9 -->
<g id="node9" class="node"><title>Node9</title>
<polygon fill="white" stroke="#bfbfbf" points="385.5,-0.5 385.5,-19.5 444.5,-19.5 444.5,-0.5 385.5,-0.5"/>
<text text-anchor="middle" x="415" y="-7.5" font-family="Helvetica,sans-Serif" font-size="10.00">stdexcept</text>
</g>
<!-- Node5&#45;&gt;Node9 -->
<g id="edge8" class="edge"><title>Node5&#45;&gt;Node9</title>
<path fill="none" stroke="midnightblue" d="M219.761,-56.4435C262.226,-46.5595 331.828,-30.3589 375.443,-20.2072"/>
<polygon fill="midnightblue" stroke="midnightblue" points="376.458,-23.5646 385.404,-17.8886 374.871,-16.7468 376.458,-23.5646"/>
</g>
<!-- Node10 -->
<g id="node10" class="node"><title>Node10</title>
<g id="a_node10"><a xlink:href="token_8h.html" target="_top" xlink:title="Файл с определением структуры лексемы ">
<polygon fill="white" stroke="black" points="64.5,-0.5 64.5,-19.5 113.5,-19.5 113.5,-0.5 64.5,-0.5"/>
<text text-anchor="middle" x="89" y="-7.5" font-family="Helvetica,sans-Serif" font-size="10.00">token.h</text>
</a>
</g>
</g>
<!-- Node5&#45;&gt;Node10 -->
<g id="edge9" class="edge"><title>Node5&#45;&gt;Node10</title>
<path fill="none" stroke="midnightblue" d="M167.897,-56.324C153.097,-47.8215 130.306,-34.7288 113.018,-24.7975"/>
<polygon fill="midnightblue" stroke="midnightblue" points="114.48,-21.6009 104.065,-19.6545 110.993,-27.6707 114.48,-21.6009"/>
</g>
<!-- Node11&#45;&gt;Node6 -->
<g id="edge11" class="edge"><title>Node11&#45;&gt;Node6</title>
<path fill="none" stroke="midnightblue" d="M293.514,-56.083C292.321,-48.9272 290.606,-38.6353 289.115,-29.6911"/>
<polygon fill="midnightblue" stroke="midnightblue" points="292.555,-29.0396 287.459,-19.7511 285.65,-30.1904 292.555,-29.0396"/>
</g>
<!-- Node11&#45;&gt;Node7 -->
<g id="edge12" class="edge"><title>Node11&#45;&gt;Node7</title>
<path fill="none" stroke="midnightblue" d="M303.422,-56.083C310.848,-48.2195 321.852,-36.5688 330.812,-27.0813"/>
<polygon fill="midnightblue" stroke="midnightblue" points="333.413,-29.4244 337.735,-19.7511 328.324,-24.618 333.413,-29.4244"/>
</g>
<!-- Node11&#45;&gt;Node9 -->
<g id="edge15" class="edge"><title>Node11&#45;&gt;Node9</title>
<path fill="none" stroke="midnightblue" d="M314.014,-56.4435C333.588,-47.6356 364.308,-33.8116 386.729,-23.722"/>
<polygon fill="midnightblue" stroke="midnightblue" points="388.392,-26.8119 396.075,-19.5164 385.519,-20.4284 388.392,-26.8119"/>
</g>
<!-- Node11&#45;&gt;Node10 -->
<g id="edge16" class="edge"><title>Node11&#45;&gt;Node10</title>
<path fill="none" stroke="midnightblue" d="M262.339,-56.4849C229.696,-47.9677 177.806,-34.4112 123.346,-20.0853"/>
<polygon fill="midnightblue" stroke="midnightblue" points="124.073,-16.6576 113.512,-17.4974 122.292,-23.4272 124.073,-16.6576"/>
</g>
<!-- Node12 -->
<g id="node12" class="node"><title>Node12</title>
<polygon fill="white" stroke="#bfbfbf" points="206.5,-0.5 206.5,-19.5 247.5,-19.5 247.5,-0.5 206.5,-0.5"/>
<text text-anchor="middle" x="227" y="-7.5" font-family="Helvetica,sans-Serif" font-size="10.00">stack</text>
</g>
<!-- Node11&#45;&gt;Node12 -->
<g id="edge13" class="edge"><title>Node11&#45;&gt;Node12</title>
<path fill="none" stroke="midnightblue" d="M284.075,-56.324C273.825,-48.1849 258.279,-35.8395 245.999,-26.0874"/>
<polygon fill="midnightblue" stroke="midnightblue" points="248.132,-23.3119 238.124,-19.8339 243.779,-28.7937 248.132,-23.3119"/>
</g>
<!-- Node13 -->
<g id="node13" class="node"><title>Node13</title>
<polygon fill="white" stroke="#bfbfbf" points="132,-0.5 132,-19.5 188,-19.5 188,-0.5 132,-0.5"/>
<text text-anchor="middle" x="160" y="-7.5" font-family="Helvetica,sans-Serif" font-size="10.00">algorithm</text>
</g>
<!-- Node11&#45;&gt;Node13 -->
<g id="edge14" class="edge"><title>Node11&#45;&gt;Node13</title>
<path fill="none" stroke="midnightblue" d="M273.609,-56.4435C251.293,-47.5171 216.097,-33.4387 190.792,-23.3168"/>
<polygon fill="midnightblue" stroke="midnightblue" points="191.876,-19.9807 181.291,-19.5164 189.276,-26.4801 191.876,-19.9807"/>
</g>
<!-- Node14&#45;&gt;Node6 -->
<g id="edge19" class="edge"><title>Node14&#45;&gt;Node6</title>
<path fill="none" stroke="midnightblue" d="M394.56,-56.4435C373.33,-47.5566 339.901,-33.5632 315.745,-23.4514"/>
<polygon fill="midnightblue" stroke="midnightblue" points="316.921,-20.1493 306.345,-19.5164 314.218,-26.6064 316.921,-20.1493"/>
</g>
<!-- Node14&#45;&gt;Node7 -->
<g id="edge18" class="edge"><title>Node14&#45;&gt;Node7</title>
<path fill="none" stroke="midnightblue" d="M403.914,-56.324C393.514,-48.1849 377.739,-35.8395 365.278,-26.0874"/>
<polygon fill="midnightblue" stroke="midnightblue" points="367.32,-23.2407 357.288,-19.8339 363.006,-28.7533 367.32,-23.2407"/>
</g>
<!-- Node14&#45;&gt;Node9 -->
<g id="edge20" class="edge"><title>Node14&#45;&gt;Node9</title>
<path fill="none" stroke="midnightblue" d="M415,-56.083C415,-49.0059 415,-38.8611 415,-29.9865"/>
<polygon fill="midnightblue" stroke="midnightblue" points="418.5,-29.751 415,-19.7511 411.5,-29.7511 418.5,-29.751"/>
</g>
<!-- Node14&#45;&gt;Node10 -->
<g id="edge24" class="edge"><title>Node14&#45;&gt;Node10</title>
<path fill="none" stroke="midnightblue" d="M367.942,-58.3674C301.685,-48.9294 183.229,-31.6674 123.844,-19.9414"/>
<polygon fill="midnightblue" stroke="midnightblue" points="124.308,-16.464 113.81,-17.892 122.907,-23.3224 124.308,-16.464"/>
</g>
<!-- Node15 -->
<g id="node15" class="node"><title>Node15</title>
<polygon fill="white" stroke="#bfbfbf" points="709.5,-0.5 709.5,-19.5 760.5,-19.5 760.5,-0.5 709.5,-0.5"/>
<text text-anchor="middle" x="735" y="-7.5" font-family="Helvetica,sans-Serif" font-size="10.00">unistd.h</text>
</g>
<!-- Node14&#45;&gt;Node15 -->
<g id="edge21" class="edge"><title>Node14&#45;&gt;Node15</title>
<path fill="none" stroke="midnightblue" d="M462.149,-58.9546C516.823,-51.6342 609.83,-38.2269 699.395,-19.9452"/>
<polygon fill="midnightblue" stroke="midnightblue" points="700.366,-23.3187 709.451,-17.8687 698.95,-16.4634 700.366,-23.3187"/>
</g>
<!-- Node16 -->
<g id="node16" class="node"><title>Node16</title>
<polygon fill="white" stroke="#bfbfbf" points="463,-0.5 463,-19.5 531,-19.5 531,-0.5 463,-0.5"/>
<text text-anchor="middle" x="497" y="-7.5" font-family="Helvetica,sans-Serif" font-size="10.00">sys/types.h</text>
</g>
<!-- Node14&#45;&gt;Node16 -->
<g id="edge22" class="edge"><title>Node14&#45;&gt;Node16</title>
<path fill="none" stroke="midnightblue" d="M428.175,-56.324C440.847,-47.979 460.233,-35.2122 475.206,-25.3524"/>
<polygon fill="midnightblue" stroke="midnightblue" points="477.431,-28.0776 483.858,-19.6545 473.581,-22.2313 477.431,-28.0776"/>
</g>
<!-- Node17 -->
<g id="node17" class="node"><title>Node17</title>
<polygon fill="white" stroke="#bfbfbf" points="549.5,-0.5 549.5,-19.5 610.5,-19.5 610.5,-0.5 549.5,-0.5"/>
<text text-anchor="middle" x="580" y="-7.5" font-family="Helvetica,sans-Serif" font-size="10.00">sys/wait.h</text>
</g>
<!-- Node14&#45;&gt;Node17 -->
<g id="edge23" class="edge"><title>Node14&#45;&gt;Node17</title>
<path fill="none" stroke="midnightblue" d="M441.145,-56.4435C469.023,-47.3196 513.348,-32.8133 544.4,-22.6509"/>
<polygon fill="midnightblue" stroke="midnightblue" points="545.562,-25.9533 553.978,-19.5164 543.385,-19.3005 545.562,-25.9533"/>
</g>
<!-- Node18 -->
<g id="node18" class="node"><title>Node18</title>
<g id="a_node18"><a xlink:href="rc__result_8h.html" target="_top" xlink:title="Файл с определением результата работы класса проверки строк ">
<polygon fill="white" stroke="black" points="629,-0.5 629,-19.5 691,-19.5 691,-0.5 629,-0.5"/>
<text text-anchor="middle" x="660" y="-7.5" font-family="Helvetica,sans-Serif" font-size="10.00">rc_result.h</text>
</a>
</g>
</g>
<!-- Node14&#45;&gt;Node18 -->
<g id="edge25" class="edge"><title>Node14&#45;&gt;Node18</title>
<path fill="none" stroke="midnightblue" d="M454.313,-56.4342C493.494,-47.8829 555.66,-34.2772 618.848,-20.2476"/>
<polygon fill="midnightblue" stroke="midnightblue" points="619.992,-23.5788 628.995,-17.993 618.474,-16.7455 619.992,-23.5788"/>
</g>
</g>
</svg>
