<?xml version="1.0" encoding="UTF-8" standalone="no"?>
<!DOCTYPE svg PUBLIC "-//W3C//DTD SVG 1.1//EN"
 "http://www.w3.org/Graphics/SVG/1.1/DTD/svg11.dtd">
<!-- Generated by graphviz version 2.38.0 (20140413.2041)
 -->
<!-- Title: token.h Pages: 1 -->
<svg width="432pt" height="196pt"
 viewBox="0.00 0.00 432.00 196.00" xmlns="http://www.w3.org/2000/svg" xmlns:xlink="http://www.w3.org/1999/xlink">
<g id="graph0" class="graph" transform="scale(1 1) rotate(0) translate(4 192)">
<title>token.h</title>
<polygon fill="white" stroke="none" points="-4,4 -4,-192 428,-192 428,4 -4,4"/>
<!-- Node1 -->
<g id="node1" class="node"><title>Node1</title>
<polygon fill="#bfbfbf" stroke="black" points="182.5,-168.5 182.5,-187.5 231.5,-187.5 231.5,-168.5 182.5,-168.5"/>
<text text-anchor="middle" x="207" y="-175.5" font-family="Helvetica,sans-Serif" font-size="10.00">token.h</text>
</g>
<!-- Node2 -->
<g id="node2" class="node"><title>Node2</title>
<g id="a_node2"><a xlink:href="_lexical_analyzer_8h.html" target="_top" xlink:title="Заголовочный файл лексического анализатора ">
<polygon fill="white" stroke="black" points="48,-112.5 48,-131.5 142,-131.5 142,-112.5 48,-112.5"/>
<text text-anchor="middle" x="95" y="-119.5" font-family="Helvetica,sans-Serif" font-size="10.00">LexicalAnalyzer.h</text>
</a>
</g>
</g>
<!-- Node1&#45;&gt;Node2 -->
<g id="edge1" class="edge"><title>Node1&#45;&gt;Node2</title>
<path fill="none" stroke="midnightblue" d="M179.751,-163.862C158.984,-153.849 130.977,-140.346 112.95,-131.655"/>
<polygon fill="midnightblue" stroke="midnightblue" points="178.477,-167.134 189.005,-168.324 181.518,-160.828 178.477,-167.134"/>
</g>
<!-- Node7 -->
<g id="node7" class="node"><title>Node7</title>
<g id="a_node7"><a xlink:href="_syntax_analyzer_8h.html" target="_top" xlink:title="Заголовочный файл синтаксического анализатора ">
<polygon fill="white" stroke="black" points="160,-112.5 160,-131.5 254,-131.5 254,-112.5 160,-112.5"/>
<text text-anchor="middle" x="207" y="-119.5" font-family="Helvetica,sans-Serif" font-size="10.00">SyntaxAnalyzer.h</text>
</a>
</g>
</g>
<!-- Node1&#45;&gt;Node7 -->
<g id="edge6" class="edge"><title>Node1&#45;&gt;Node7</title>
<path fill="none" stroke="midnightblue" d="M207,-157.805C207,-148.91 207,-138.78 207,-131.751"/>
<polygon fill="midnightblue" stroke="midnightblue" points="203.5,-158.083 207,-168.083 210.5,-158.083 203.5,-158.083"/>
</g>
<!-- Node9 -->
<g id="node9" class="node"><title>Node9</title>
<g id="a_node9"><a xlink:href="_regexp_checker_8h.html" target="_top" xlink:title="Заголовочный файл класса, проверяющего строки ">
<polygon fill="white" stroke="black" points="272,-112.5 272,-131.5 366,-131.5 366,-112.5 272,-112.5"/>
<text text-anchor="middle" x="319" y="-119.5" font-family="Helvetica,sans-Serif" font-size="10.00">RegexpChecker.h</text>
</a>
</g>
</g>
<!-- Node1&#45;&gt;Node9 -->
<g id="edge9" class="edge"><title>Node1&#45;&gt;Node9</title>
<path fill="none" stroke="midnightblue" d="M234.249,-163.862C255.016,-153.849 283.023,-140.346 301.05,-131.655"/>
<polygon fill="midnightblue" stroke="midnightblue" points="232.482,-160.828 224.995,-168.324 235.523,-167.134 232.482,-160.828"/>
</g>
<!-- Node3 -->
<g id="node3" class="node"><title>Node3</title>
<g id="a_node3"><a xlink:href="_lexical_analyzer_8cpp.html" target="_top" xlink:title="LexicalAnalyzer.cpp">
<polygon fill="white" stroke="black" points="0,-56.5 0,-75.5 104,-75.5 104,-56.5 0,-56.5"/>
<text text-anchor="middle" x="52" y="-63.5" font-family="Helvetica,sans-Serif" font-size="10.00">LexicalAnalyzer.cpp</text>
</a>
</g>
</g>
<!-- Node2&#45;&gt;Node3 -->
<g id="edge2" class="edge"><title>Node2&#45;&gt;Node3</title>
<path fill="none" stroke="midnightblue" d="M81.5776,-104.144C74.0858,-94.7357 65.0629,-83.4046 58.9685,-75.7511"/>
<polygon fill="midnightblue" stroke="midnightblue" points="78.9321,-106.44 87.8994,-112.083 84.4081,-102.08 78.9321,-106.44"/>
</g>
<!-- Node4 -->
<g id="node4" class="node"><title>Node4</title>
<g id="a_node4"><a xlink:href="_regexp_8h.html" target="_top" xlink:title="Заголовочный файл класса регулярного выражения ">
<polygon fill="white" stroke="black" points="122,-56.5 122,-75.5 180,-75.5 180,-56.5 122,-56.5"/>
<text text-anchor="middle" x="151" y="-63.5" font-family="Helvetica,sans-Serif" font-size="10.00">Regexp.h</text>
</a>
</g>
</g>
<!-- Node2&#45;&gt;Node4 -->
<g id="edge3" class="edge"><title>Node2&#45;&gt;Node4</title>
<path fill="none" stroke="midnightblue" d="M111.33,-105.253C121.265,-95.6731 133.588,-83.7906 141.839,-75.8339"/>
<polygon fill="midnightblue" stroke="midnightblue" points="108.766,-102.863 103.997,-112.324 113.625,-107.902 108.766,-102.863"/>
</g>
<!-- Node5 -->
<g id="node5" class="node"><title>Node5</title>
<g id="a_node5"><a xlink:href="main_8cpp.html" target="_top" xlink:title="main.cpp">
<polygon fill="white" stroke="black" points="83,-0.5 83,-19.5 139,-19.5 139,-0.5 83,-0.5"/>
<text text-anchor="middle" x="111" y="-7.5" font-family="Helvetica,sans-Serif" font-size="10.00">main.cpp</text>
</a>
</g>
</g>
<!-- Node4&#45;&gt;Node5 -->
<g id="edge4" class="edge"><title>Node4&#45;&gt;Node5</title>
<path fill="none" stroke="midnightblue" d="M138.3,-47.8554C131.374,-38.5048 123.094,-27.3265 117.482,-19.7511"/>
<polygon fill="midnightblue" stroke="midnightblue" points="135.63,-50.1307 144.395,-56.083 141.255,-45.9641 135.63,-50.1307"/>
</g>
<!-- Node6 -->
<g id="node6" class="node"><title>Node6</title>
<g id="a_node6"><a xlink:href="_regexp_8cpp.html" target="_top" xlink:title="Regexp.cpp">
<polygon fill="white" stroke="black" points="157,-0.5 157,-19.5 225,-19.5 225,-0.5 157,-0.5"/>
<text text-anchor="middle" x="191" y="-7.5" font-family="Helvetica,sans-Serif" font-size="10.00">Regexp.cpp</text>
</a>
</g>
</g>
<!-- Node4&#45;&gt;Node6 -->
<g id="edge5" class="edge"><title>Node4&#45;&gt;Node6</title>
<path fill="none" stroke="midnightblue" d="M163.7,-47.8554C170.626,-38.5048 178.906,-27.3265 184.518,-19.7511"/>
<polygon fill="midnightblue" stroke="midnightblue" points="160.745,-45.9641 157.605,-56.083 166.37,-50.1307 160.745,-45.9641"/>
</g>
<!-- Node7&#45;&gt;Node4 -->
<g id="edge7" class="edge"><title>Node7&#45;&gt;Node4</title>
<path fill="none" stroke="midnightblue" d="M190.67,-105.253C180.735,-95.6731 168.412,-83.7906 160.161,-75.8339"/>
<polygon fill="midnightblue" stroke="midnightblue" points="188.375,-107.902 198.003,-112.324 193.234,-102.863 188.375,-107.902"/>
</g>
<!-- Node8 -->
<g id="node8" class="node"><title>Node8</title>
<g id="a_node8"><a xlink:href="_syntax_analyzer_8cpp.html" target="_top" xlink:title="SyntaxAnalyzer.cpp">
<polygon fill="white" stroke="black" points="198,-56.5 198,-75.5 302,-75.5 302,-56.5 198,-56.5"/>
<text text-anchor="middle" x="250" y="-63.5" font-family="Helvetica,sans-Serif" font-size="10.00">SyntaxAnalyzer.cpp</text>
</a>
</g>
</g>
<!-- Node7&#45;&gt;Node8 -->
<g id="edge8" class="edge"><title>Node7&#45;&gt;Node8</title>
<path fill="none" stroke="midnightblue" d="M220.422,-104.144C227.914,-94.7357 236.937,-83.4046 243.032,-75.7511"/>
<polygon fill="midnightblue" stroke="midnightblue" points="217.592,-102.08 214.101,-112.083 223.068,-106.44 217.592,-102.08"/>
</g>
<!-- Node9&#45;&gt;Node4 -->
<g id="edge10" class="edge"><title>Node9&#45;&gt;Node4</title>
<path fill="none" stroke="midnightblue" d="M282.614,-109.304C250.958,-99.1294 205.832,-84.6246 177.496,-75.5164"/>
<polygon fill="midnightblue" stroke="midnightblue" points="281.789,-112.715 292.38,-112.444 283.931,-106.051 281.789,-112.715"/>
</g>
<!-- Node10 -->
<g id="node10" class="node"><title>Node10</title>
<g id="a_node10"><a xlink:href="_regexp_checker_8cpp.html" target="_top" xlink:title="RegexpChecker.cpp">
<polygon fill="white" stroke="black" points="320,-56.5 320,-75.5 424,-75.5 424,-56.5 320,-56.5"/>
<text text-anchor="middle" x="372" y="-63.5" font-family="Helvetica,sans-Serif" font-size="10.00">RegexpChecker.cpp</text>
</a>
</g>
</g>
<!-- Node9&#45;&gt;Node10 -->
<g id="edge11" class="edge"><title>Node9&#45;&gt;Node10</title>
<path fill="none" stroke="midnightblue" d="M334.981,-104.718C344.322,-95.1997 355.746,-83.5608 363.411,-75.7511"/>
<polygon fill="midnightblue" stroke="midnightblue" points="332.259,-102.494 327.752,-112.083 337.254,-107.398 332.259,-102.494"/>
</g>
</g>
</svg>
